<?xml version="1.0" encoding="UTF-8"?>
<svg id="Capa_2" data-name="Capa 2" xmlns="http://www.w3.org/2000/svg" viewBox="0 0 538.59 816.27">
  <defs>
    <style>
      .cls-1, .cls-2 {
        fill: #75ba61;
      }

      .cls-1, .cls-3, .cls-4, .cls-5 {
        stroke-width: 2px;
      }

      .cls-1, .cls-3, .cls-4, .cls-5, .cls-6 {
        stroke: #1d1d1b;
        stroke-miterlimit: 10;
      }

      .cls-7 {
        fill: #ffe85c;
      }

      .cls-7, .cls-8, .cls-2, .cls-9, .cls-10, .cls-11 {
        stroke-width: 0px;
      }

      .cls-8 {
        fill: #dfaed0;
      }

      .cls-9 {
        fill: #4860aa;
      }

      .cls-3 {
        fill: #fff;
      }

      .cls-10 {
        fill: #e72f5d;
      }

      .cls-4 {
        fill: none;
      }

      .cls-5 {
        fill: #f7ef91;
      }

      .cls-11 {
        fill: #1d1d1b;
      }

      .cls-6 {
        fill: #dbabd0;
        stroke-width: 4px;
      }
    </style>
  </defs>
  <g id="Capa_1_copia" data-name="Capa 1 copia">
    <g>
      <g>
        <path class="cls-1" d="m281.63,331.56c-56.26-25.63-113.33-21.36-141.93,9.86-22.95,25.05-32.74,73.08-15.73,89.6,3.67,3.57,15.18,12.43,23.54,7.66,5.85-3.34,7.65-11.92,7.82-12.73,1.62-8.18-3.21-11.73-6.07-17.94-4.7-10.2-2.79-24.75,2.87-34.96,11.41-20.59,34.69-31.54,54.34-32.31,23.79-.93,40.85,11.6,46.25,15.95,9.64-8.37,19.28-16.74,28.92-25.12Z"/>
        <path class="cls-7" d="m231.99,343.71c.05-2.72.48-6.95,2.48-11.64,2.9-6.79,7.51-10.83,9.91-12.64,6.9,1.53,12.7,3.21,17.21,4.66,9.38,3.02,6.88,3.05,14.08,5.25,1.68.51,3.59,1.05,5.61,2.62,2.84,2.19,4.25,5.1,4.99,7.16-10.67,6.23-21.34,12.46-32,18.68-.73-1.07-1.89-2.57-3.6-4.03-2.07-1.77-3.96-2.65-4.91-3.1-3.48-1.65-8-3.95-13.76-6.96Z"/>
        <path class="cls-10" d="m143.88,337.67c2.88.8,9.52,3.08,14.96,9.4,3.28,3.81,4.92,7.69,5.76,10.27,4.81-4.24,13.49-10.73,25.99-14.42,19.31-5.69,35.68-1.13,42,1-.12-2.32-.32-11.4,6.23-18.59,2.52-2.76,5.27-4.42,7.36-5.41-6.41-1.82-13.85-3.3-22.17-3.83-3.81-.25-6.81-.23-10.29-.21-7.07.05-14.5.1-22.5,1.25-17.46,2.52-30.01,9.2-33.21,10.96-6.17,3.41-10.91,6.94-14.13,9.59Z"/>
        <path class="cls-8" d="m116.53,399.93c1.76-1.73,7.2-6.62,15.74-7.64,5.97-.71,10.72.8,13.1,1.75.63-6.02,2.67-16.79,10.3-27.21,2.96-4.04,6.11-7.15,8.94-9.5-.85-2.59-2.55-6.64-6.05-10.59-5.39-6.08-11.83-8.29-14.66-9.07-5.12,5.28-11.53,13.07-16.91,23.64-7.89,15.51-9.91,29.83-10.44,38.62Z"/>
      </g>
      <path class="cls-3" d="m122.78,104.6c-11.56-33.11-23.11-66.22-34.67-99.33,24.56,31,49.11,62,73.67,93-13,2.11-26,4.22-39,6.33Z"/>
      <path class="cls-6" d="m122.78,104.6c-24.59,5.85-24.05,9.4-102.33,49.33-3.02,1.54-9.95,5.07-14.33,12.67-7.3,12.65-4.57,31.5,5.67,42.67,7.25,7.9,16.61,10.16,20.33,11,36.67,8.3,68.42,2.58,92.03,4.16,62.21,4.17,103.08,61.41,107.3,67.51,11.14,16.08,19.44,35.15,25,64,18.2,94.45-12.56,192.13-30,238.67,41.92,42.37,83.83,84.73,125.75,127.1,10.61-32.55,25.17-85.95,29.58-152.93,14.83-225.2-94.32-463.95-197-471.5-16.18-1.19-42.21,2.62-62,7.33Z"/>
      <path class="cls-9" d="m157.18,229.44c14.09-4.09,26.06-8.32,35.6-12,2.65-1.02,10.9-3.45,31.94-13.57,18.3-8.81,25.19-14.17,33.73-15.26,43.27-5.49,108.35,105.19,132,217.33,11.49,54.47,25.86,169.32-33.42,317.33-7.33-5.42-16.79-13.02-27-23,0,0-9.8-9.58-16.75-18-20.77-25.17,29.68-127.78,36.21-200.94,10.42-116.72-77.63-242.06-131.71-238.06-9.12.68-16.6,4.98-22.12,9.35-4.77-3.89-10.38-8-16.88-12.02-7.75-4.79-15.1-8.41-21.6-11.17Z"/>
      <ellipse class="cls-11" cx="138.24" cy="156.46" rx="25.79" ry="26.81"/>
      <circle class="cls-3" cx="131.2" cy="157.69" r="18.75"/>
      <path class="cls-4" d="m102.29,224.36c2.43-.98,6.61-3.05,10.32-7.25,5.83-6.59,6.66-14.08,6.83-16.67"/>
      <path class="cls-2" d="m222.37,277.43c4.65-1.22,11.4-2.39,19.29-1.49,36.64,4.15,58.46,48.37,68.79,69.33,46.13,93.57-22.16,285.29-29.17,304.5,10.67,10.83,21.33,21.67,32,32.5,52.74-198,64.27-351.92,34-396-14.68-21.38-35-34.5-35-34.5-33.89-21.89-67.54-18.76-87.88-16.88-8.03.75-24.68,2.23-28.25,11.62-.88,2.31-.75,4.55-.5,6.1l26.71,24.81Z"/>
      <path class="cls-7" d="m247.3,615.68c11.33,11.36,22.65,22.73,33.98,34.09,14.75-35.48,32.84-88.78,40.25-155.5,3.98-35.86,21.64-194.43-41.06-221.99-11.75-5.16-29.94-7.32-58.1,5.15,4.27,6,8.61,12.45,12.91,19.34,3.43,5.48,6.59,10.85,9.5,16.06,5.4,6.74,12.68,16.8,19.5,29.94,4.93,9.5,23.76,46.87,19.75,120.25-1.88,34.42-9.12,89.02-36.73,152.66Z"/>
      <path class="cls-10" d="m244.78,312.83c8.07-.48,22.42-.03,32.5,9.44,11.72,11,11.5,28.36,11.25,38.25-2.15,86.69-3.23,130.03-10.75,161.25-5.8,24.08-15.12,56.55-30.48,93.91-6.95-7.03-13.9-14.05-20.85-21.08,15.2-38.92,23.35-73.21,27.97-99.24,8.18-46,7.72-79.47,7.37-91.26-.95-32.15-6.84-55.63-8.94-64.1-2.74-11.08-5.68-20.31-8.07-27.16Z"/>
      <path class="cls-5" d="m161.78,98.27c5.35,4.95,9.64,4.48,14,8,6.4,5.17,6.43,8.49,16,23,8.27,12.54,10.78,13.9,13.33,21.33,2.52,7.35,2.55,13.26,2.67,16,.82,19.66,14.1,43.11,40.67,90,2.34,4.14,6.04,10.58,8.67,20,4.36,15.63,2.56,27.94,3.33,28,.67.06,2.35-9.11,6.67-48,14.65,44.23,22.23,70.52,26.33,87.33,1.09,4.48,3.78,15.83,8,16,4.53.19,8.37-12.58,9-14.67,1.77-5.88,3.69-16.01.67-29.67,1.2,3.45,2.55,8.36,3,14.33,1.04,13.77-3.41,23.57-2.33,24,2.04.82,16.87-35.33,20-34.33,3.68,1.17-21.73,49.59-12,105,5.72,32.6,16.88,29.28,26.67,72,3.66,15.96,11.01,49.4,5.33,90.67-4.13,30-14.4,58.78-9.67,60.67,1.24.49,2.94-1.08,5.33-3.33,10.71-10.1,13.07-23.73,13.33-23.67.22.05-1.72,9.76-12,55.33.03,1.03.2,5.71,2,6.17.9.23,1.9-.66,2.67-1.5,5.05-5.51,12.16-22.12,12-22.17-.2-.05-9.32,26.36-12.33,52.17-4.07,34.94,3.44,65.43,5.67,65.33,1.39-.06,2.15-12.07,3-12,.73.06-.72,8.8,3.33,18,1.68,3.81,4.64,8.45,6,8,2.66-.88-2.16-20.72-1-21,1.45-.36,9.27,30.79,11.67,30.33,2.38-.45-1.36-31.96-1-32,.41-.04,2.93,41.04,8.67,41.33,3.07.16,6.24-11.36,7.33-16.33,2.6-11.83,1.03-21.31,1.33-21.33.56-.03,3,26,3,26,1.03,11.04,1.19,13.55,2,13.67,1.4.2,4.43-6.93,11.67-40.67,1.81,4.85,4.49,12.35,7.33,21.67,4.8,15.75,6,23.41,8,23.33,2.79-.11,4.56-15.22,5.66-24.65,1.47-12.55,1.46-21.34,2-21.35,1.11-.02,1.18,36.8,4.33,37,2.15.14,3.42-16.92,9.67-42,5.83-23.42,12.72-40.65,19.67-58,11.91-29.78,16.23-33.67,22.67-50,18.96-48.14,12.81-94.02,10-113.33-5.55-38.09-19-67.49-29.67-86.33,6.91,9.16,17.38,21.2,32.33,32.67,12.49,9.58,28.98,19.43,30.67,17.33,1.62-2.01-10.98-14.29-17.67-21.33-29.29-30.88-42.48-64.25-60.33-110.67-22.04-57.29-15.3-63.85-30-101-33.36-84.34-109.94-148.06-184.67-172.67-37.66-12.4-87.51-18.92-89.67-12.33-.88,2.68,5.76,8.82,6.67,9.67Z"/>
      <path class="cls-1" d="m325.78,431.27c-5.82-54.41-52.07-85.5-86-77.25-26.5,6.44-50.49,38.13-47.75,62.25.58,5.06,3.38,19.05,10.25,20.25,4.81.84,9.55-4.94,10-5.5,4.46-5.57,3.22-11.32,4.25-18,1.7-10.98,9.08-21.48,16.75-26.25,13.71-8.54,33.61-2.05,45.25,6.75,18.83,14.23,19.68,37.22,19.75,40.5"/>
      <path class="cls-7" d="m293.52,410.21c1-2,2.54-4.45,4.88-6.82,6.08-6.11,13.51-7.48,16.5-7.86,3.75,6.4,8.52,16.55,10.06,29.71.65,5.56.6,10.58.24,14.86-8.83-1.42-17.67-2.83-26.5-4.25-.09-3.35-.41-7.2-1.17-11.42-1-5.59-2.5-10.37-4.01-14.23Z"/>
      <path class="cls-10" d="m243.81,353.53c1.71,3.25,4.16,8.98,4.56,16.49.27,5.09-.49,9.34-1.28,12.33,4.89-.02,12.37.62,20.58,4.11,15.63,6.64,23.33,19.15,25.87,23.75,1.84-2.53,5.12-6.38,10.29-9.61,4.33-2.7,8.4-3.99,11.21-4.64-2.81-5.46-7.42-13.01-14.75-20.56-3.07-3.16-9.07-9.26-18-14.12-15.11-8.23-30.2-8.38-38.47-7.74Z"/>
      <path class="cls-8" d="m199.82,387.81c1.11-.26,7.62-1.66,13.71,2.46,4.73,3.2,6.34,7.81,6.79,9.25,2.16-3.48,7.58-11.07,17.51-14.97,3.42-1.35,6.62-1.95,9.26-2.2.8-3.03,1.6-7.45,1.26-12.77-.47-7.3-2.86-12.87-4.53-16.05-5.29,1.11-12.73,3.37-20.53,8.24-13.72,8.57-20.58,20.26-23.46,26.04Z"/>
    </g>
  </g>
</svg>