<?xml version="1.0" encoding="UTF-8"?>
<svg id="Capa_2" data-name="Capa 2" xmlns="http://www.w3.org/2000/svg" viewBox="0 0 240.85 243.25">
  <defs>
    <style>
      .cls-1 {
        fill: #add6be;
      }

      .cls-1, .cls-2, .cls-3, .cls-4, .cls-5, .cls-6, .cls-7, .cls-8, .cls-9, .cls-10 {
        stroke-miterlimit: 10;
      }

      .cls-1, .cls-2, .cls-3, .cls-4, .cls-6, .cls-7, .cls-8, .cls-10 {
        stroke-width: 2px;
      }

      .cls-1, .cls-3, .cls-4, .cls-5, .cls-6, .cls-8, .cls-10 {
        stroke: #1d2d2b;
      }

      .cls-11 {
        fill: #cd3f56;
      }

      .cls-11, .cls-12, .cls-13, .cls-14, .cls-15, .cls-16, .cls-17, .cls-18 {
        stroke-width: 0px;
      }

      .cls-12 {
        fill: #e2c64f;
      }

      .cls-2 {
        fill: #63747d;
        stroke: #63747d;
      }

      .cls-3 {
        fill: #78bfb9;
      }

      .cls-4 {
        fill: #649399;
      }

      .cls-5 {
        stroke-width: 4px;
      }

      .cls-5, .cls-7 {
        fill: none;
      }

      .cls-13 {
        fill: #c1dcbd;
      }

      .cls-14 {
        fill: #405362;
      }

      .cls-15 {
        fill: #2b422e;
      }

      .cls-16 {
        fill: #f6d852;
      }

      .cls-6 {
        fill: #6485a4;
      }

      .cls-7 {
        stroke: #0a72b9;
      }

      .cls-8 {
        fill: #364249;
      }

      .cls-9 {
        fill: #3c5a5d;
        stroke: #3c5a5d;
        stroke-width: .5px;
      }

      .cls-10 {
        fill: #60c4dd;
      }

      .cls-17 {
        fill: #b63d54;
      }

      .cls-18 {
        fill: #1d2d2b;
      }
    </style>
  </defs>
  <g id="Capa_1_copia_8" data-name="Capa 1 copia 8">
    <g>
      <path class="cls-10" d="m200.55,155.71c5.47,5.77,12.58,8.56,17.71,6.42,5.28-2.2,8.4-9.6,9.17-14.71.47-3.12,0-5.07,1.62-7.54,1.95-2.98,6.02-5.36,8.38-4.25,3.91,1.84,2,12.73,1.67,14.62-1.06,6.03-2.98,16.98-12.79,22.83-8.73,5.2-20.38,4.39-29.75-1.88,1.33-5.17,2.67-10.33,4-15.5Z"/>
      <path class="cls-3" d="m175.47,203.59l-89.78-20.91c-7.39-1.72-11.98-9.1-10.26-16.49L110.56,15.33c1.72-7.39,9.1-11.98,16.49-10.26l89.78,20.91c7.39,1.72,11.98,9.1,10.26,16.49l-35.13,150.86c-1.72,7.39-9.1,11.98-16.49,10.26Z"/>
      <path class="cls-4" d="m80.24,180.03c-19.46-5.7-38.92-11.4-58.38-17.1-7.39-1.72-11.98-9.1-10.26-16.49L43,11.62c1.72-7.39,9.1-11.98,16.49-10.26,22.07,1.15,44.15,2.31,66.22,3.46-1.33-.11-6.43-.39-10.66,3.15-1.69,1.41-2.71,2.99-3.32,4.18-1.72,6.77-3.44,13.55-5.16,20.32-9.03,38.78-18.06,77.55-27.09,116.33-.55,1.49-4.71,12.93-4.41,20.53.12,3.15,1,5.15,1.22,5.65,1.14,2.51,2.83,4.15,3.95,5.06Z"/>
      <rect class="cls-1" x="120.2" y="28.61" width="81.9" height="73.3" rx="13.73" ry="13.73" transform="translate(19 -34.85) rotate(13.11)"/>
      <path class="cls-14" d="m118.49,103.12h42.39c2.41,0,4.36,1.95,4.36,4.36v1.4c0,2.41-1.95,4.36-4.36,4.36h-42.39c-2.41,0-4.36-1.95-4.36-4.36v-1.4c0-2.41,1.95-4.36,4.36-4.36Z" transform="translate(28.18 -28.86) rotate(13.11)"/>
      <circle class="cls-14" cx="183.11" cy="120.76" r="6"/>
      <path class="cls-7" d="m161.67,130.63c-2.31,3.25-4.61,6.5-6.92,9.75,3.89.53,7.78,1.06,11.67,1.58-1.58-3.78-3.17-7.56-4.75-11.33Z"/>
      <path class="cls-17" d="m172.71,173.19c-.65,2.63-2.59,4.49-4.39,5.32-1.14.53-2.27.67-2.45.69,0,0-1.25.15-2.58-.12-2.02-.4-8.5-3.27-8.53-9.04-.02-2.81,1.5-5.76,4.06-7.25,4.51-2.63,10.63.23,12.94,4.25.34.6,1.72,3.08.96,6.14Z"/>
      <circle class="cls-11" cx="164.95" cy="171.26" r="8"/>
      <path class="cls-2" d="m165.45,133.01c-2.31,3.25-4.61,6.5-6.92,9.75,3.89.53,7.78,1.06,11.67,1.58-1.58-3.78-3.17-7.56-4.75-11.33Z"/>
      <path class="cls-9" d="m161.94,128.95c1.13.7,2.26,1.4,3.39,2.11l-8.61,12.17c-1.27-.7-2.53-1.4-3.8-2.1,3.01-4.06,6.01-8.11,9.02-12.17Z"/>
      <path class="cls-15" d="m192.59,157.5c-.65,2.63-2.59,4.49-4.39,5.32-1.14.53-2.27.67-2.45.69,0,0-1.25.15-2.58-.12-2.02-.4-8.5-3.27-8.53-9.04-.02-2.81,1.5-5.76,4.06-7.25,4.51-2.63,10.63.23,12.94,4.25.34.6,1.72,3.08.96,6.14Z"/>
      <circle class="cls-13" cx="184.83" cy="155.57" r="8"/>
      <path class="cls-12" d="m108.57,136.76c.76.18,1.59-3.97,3.59-5.97,3.39-3.38,12.1-1.83,13.05,1.17.89,2.83-5.54,5.92-4.5,8.91.88,2.53,5.9,1.53,7.13,4.43,1.01,2.38-.98,6.36-3.72,7.36-3.11,1.13-6.15-1.98-7.41-.78-1.28,1.21,1.68,4.56.41,6.48-1.82,2.77-11.54,1.68-13.66-2.82-1.33-2.82,1.07-5.97-.89-7.9-1.18-1.16-2.48-.47-3.89-2.02-1.58-1.74-1.33-4.12-1.32-4.26.19-1.58,1.05-2.62,1.4-3.04,2.9-3.42,8.73-2.89,9.64-1.69.03.04.08.11.17.14Z"/>
      <path class="cls-16" d="m111.95,137.84c2.52-.67,1.56-5.56,4.79-7.58,2.42-1.51,6.57-1.02,8.12,1.08,2.24,3.04-2.28,7.61,0,11,1.85,2.75,5.87,1.26,7.25,3.92,1.32,2.55-.66,7.24-3.56,8.25-2.88,1.01-4.84-2.23-7.69-1.17-2.8,1.05-2.12,4.64-5.08,6-2.58,1.18-6.62.08-8.17-2.33-1.96-3.06,1.23-6.47-.92-9.17-1.41-1.77-3.25-.87-5.02-3.02-1.12-1.36-2.06-3.77-1.12-5.88,1-2.25,3.71-3.15,5.68-3.1,3.05.09,3.92,2.47,5.71,1.99Z"/>
      <path class="cls-6" d="m121.43,190.96c1.48,2.78,25.59,48.09,26.44,49.34.38.55.87.98.87.98s.49.42,1.09.72c1.05.52,9.03.85,12.41-4.91,2.44-4.17,2.05-10.82-1.19-12.19-3.06-1.28-7.26,2.71-7.49,2.94-4.69-10.85-9.38-21.71-14.06-32.56-6.02-1.44-12.04-2.88-18.06-4.31Z"/>
      <path class="cls-6" d="m55.18,172.17c.37.85,1.37,3.49.25,6.08-1.67,3.86-6.68,4.5-7.42,4.58-3.77.42-4.94-1.55-7.25-.58-2.73,1.14-3.52,4.91-4.17,8-.59,2.82-1.85,8.82,1.45,11.43,1.09.86,3.04,1.65,4.63.98,2.76-1.16,1.52-5.44,4.42-7.42,2.4-1.64,4.38.54,8.5-.5,4.02-1.01,6.43-4.16,7.83-6,3.96-5.17,4.13-10.89,4.08-13-4.11-1.19-8.22-2.39-12.33-3.58Z"/>
      <path class="cls-10" d="m41.12,130.92c-3.6-6.42-24.67-7.48-34.38,3.88-9.81,11.47-5.34,32.47.62,34.25,1.43.43,2.76-.31,2.88-.38,5.95-3.42-2.99-20.34,3.62-26.25,3.63-3.24,11.32-2.62,15.5-1.5,3.76,1.01,5.24,2.57,7.44,1.81,3.74-1.29,6.34-8.2,4.31-11.81Z"/>
      <path class="cls-18" d="m138.07,60.76c.45-1.25,1.33-2.28,2.46-2.9.37-.21.42-.22.78-.34.16-.05.33-.1.49-.13.08-.02.16-.03.25-.05-.13.01-.11.01.04,0,.29-.02.57-.02.86,0,.15.02.16.02.03,0,.08.01.16.03.24.05.17.04.33.09.49.14.14.05.16.06.06.02.08.04.16.07.23.11.15.08.3.17.45.27s.18.13.22.16c.12.1.24.21.35.32.41.41.83,1.03,1.04,1.54.6,1.43.53,2.86-.05,4.31-.25.63.27,1.37.87,1.54.71.2,1.29-.24,1.54-.87,1.14-2.87.47-6.44-1.88-8.52-2.19-1.94-5.3-2.05-7.72-.43-1.49,1-2.54,2.43-3.15,4.11-.23.64.26,1.37.87,1.54.69.19,1.31-.24,1.54-.87h0Z"/>
      <path class="cls-18" d="m154.49,70.09c-1.14,3.12-.39,6.87,2.11,9.13,2.39,2.15,5.79,2.34,8.48.62,1.63-1.04,2.77-2.56,3.48-4.33.25-.63-.27-1.37-.87-1.54-.71-.2-1.29.24-1.54.87-.55,1.39-1.61,2.52-2.93,3.18-1.14.58-2.44.71-3.64.21s-2.18-1.61-2.69-2.88c-.61-1.49-.54-3.1,0-4.6.23-.63-.26-1.37-.87-1.54-.7-.19-1.3.24-1.54.87h0Z"/>
      <circle class="cls-18" cx="183.66" cy="72.56" r="3.12"/>
      <path class="cls-5" d="m47.93,82.07c5.96.15,11.92.29,17.88.44.29,2.04.54,6.08-1.69,10-.69,1.22-2.61,4.6-4.81,4.38-1.94-.2-3.75-3.15-4-7.31-.02.23-.29,2.81-2.44,3.94-1.26.66-2.79.63-3.75.12-2.29-1.2-2.95-5.89-1.19-11.56Z"/>
      <path class="cls-5" d="m42.61,99.07c12.14,1.98,18.23,4.02,18.25,6.12.02,1.65-3.69,3.34-11.12,5.06,5.49,2.55,8.67,5.72,8.12,7.81-.65,2.48-6.36,2.84-6.94,2.88-6.91.38-12.16-4.35-14-6.19"/>
      <circle class="cls-18" cx="79.61" cy="52.63" r="2.25"/>
      <circle class="cls-18" cx="84.12" cy="32.7" r="2.25"/>
      <circle class="cls-18" cx="63.12" cy="55.58" r="2.25"/>
      <circle class="cls-18" cx="71.23" cy="22.07" r="2.25"/>
      <circle class="cls-18" cx="54.2" cy="29.32" r="2.25"/>
      <circle class="cls-18" cx="51.15" cy="44.7" r="2.25"/>
      <circle class="cls-18" cx="67.62" cy="37.2" r="2.25"/>
      <path class="cls-8" d="m38.18,128.18c.4-.32,3.57-2.79,7.47-1.79,3.32.85,4.87,3.64,5.31,4.44,2.14,3.86,2.45,10.76-2.69,14.38-4.44,3.12-10.78,2.25-14.33-2.13,1.04.4,2.8.87,4.56.23,4.02-1.45,6.06-7.91,3.7-11.92-1.15-1.96-3.07-2.85-4.03-3.21Z"/>
    </g>
  </g>
</svg>