<?xml version="1.0" encoding="UTF-8"?>
<svg id="Capa_2" data-name="Capa 2" xmlns="http://www.w3.org/2000/svg" xmlns:xlink="http://www.w3.org/1999/xlink" viewBox="0 0 283.81 814.7">
  <defs>
    <style>
      .cls-1 {
        fill: #f196bf;
      }

      .cls-1, .cls-2, .cls-3, .cls-4, .cls-5, .cls-6, .cls-7 {
        stroke-miterlimit: 10;
        stroke-width: 2px;
      }

      .cls-1, .cls-4 {
        stroke: #000;
      }

      .cls-2 {
        fill: #eed5e9;
      }

      .cls-2, .cls-3, .cls-5, .cls-6, .cls-7 {
        stroke: #1d1d1b;
      }

      .cls-8 {
        fill: #09050c;
      }

      .cls-8, .cls-9 {
        stroke-width: 0px;
      }

      .cls-3 {
        fill: #f4d234;
      }

      .cls-4 {
        fill: url(#Degradado_sin_nombre_5);
      }

      .cls-5 {
        fill: #83a0d3;
      }

      .cls-6 {
        fill: #754494;
      }

      .cls-9 {
        fill: #1d1d1b;
      }

      .cls-7 {
        fill: #ed73a9;
      }
    </style>
    <linearGradient id="Degradado_sin_nombre_5" data-name="Degradado sin nombre 5" x1="-110.12" y1="628.3" x2="303.56" y2="214.62" gradientUnits="userSpaceOnUse">
      <stop offset="0" stop-color="#ed72a9"/>
      <stop offset="1" stop-color="#e695c0"/>
    </linearGradient>
  </defs>
  <g id="Capa_1_copia_6" data-name="Capa 1 copia 6">
    <g>
      <path class="cls-4" d="m77.04,773.46c-8.33-1.98-13.55-7.99-13.55-7.99-4.77-5.49-5.87-12.1-6.17-16-1.96,3.81-11.78,22.32-22.33,21-4.55-.57-7.48-4.6-8.5-6-27.02-37.14-10.5-155.5-10.5-155.5s5.64-40.41,10.5-151.5c6.35-145.13-18.48-276.56,24.26-329.61,12.2-15.15,28.74-25.89,28.74-25.89,9.11-5.91,38.73-25.14,72.82-18.82,28.56,5.29,46.17,25.91,53.26,34.45,31.93,38.46,29.98,85.69,26.42,183.37-6.03,165.71-5.17,160.18-5.8,164.41-27.85,187.2-129.62,312.71-149.16,308.08Z"/>
      <path class="cls-7" d="m71.26,271.33c-3.12.2-14.26,1.29-23.48,10.31-2.26,2.21-10.97,11.31-10.83,24.83.02,2.46.08,8.23,3.33,13.67,5.66,9.46,18.67,14.06,32.83,12.33-.62-20.38-1.23-40.76-1.85-61.14Z"/>
      <path class="cls-7" d="m97.36,275.64c2.56-1.95,30.32-22.41,59.08-11.5,21.57,8.18,30.59,29.01,32.33,33.33,9.49,23.47-2.91,36.22,2,83.33.78,7.5,1.56,14.72,3.93,24.24,7.15,28.72,21.08,47.38,24.53,52.36,24.5,35.44,18.18,101.41,22.46,209.29,1.09,27.58,3.34,69.61,8.59,121.61.24,1.96.39,5.59-1.67,8.83-1.92,3.03-5,4.49-7.5,5.33-37.88,12.75-73.5,11.17-73.5,11.17s-41.36-1.84-86.5-21.5c-2.62-1.14-3.89-2.65-4.47-3.47-1.88-2.66-1.83-5.7-1.79-7.15.28-9.69,1.23-21.53,1.51-25.63.4-5.92.01-5.42.5-14.06.48-8.53,1.18-14.74,1.25-15.44.93-8.92,6.39-134.02,19.25-450.75Z"/>
      <path class="cls-7" d="m174.58,276c2.07-2.04,9.56-8.92,21.03-9.53,1.39-.07,18.61-.71,26.33,12.17,7.01,11.69,1.84,27.26-7.5,35.5-8.64,7.63-19.25,7.57-22.15,7.46.37-4.81.3-11.88-2.02-19.95-3.82-13.27-11.61-21.76-15.69-25.65Z"/>
      <path class="cls-7" d="m197.07,321.44c-.3.78-3.04,8.13.92,13.07.47.59,2.71,3.38,5.63,3.12,2.58-.22,4.2-2.71,5.25-4.38,3.8-6.02,3.07-13.12,2.41-16.7-2.06,1.31-4.94,2.82-8.6,3.85-2.06.58-3.96.88-5.6,1.04Z"/>
      <path class="cls-7" d="m222.6,302.77c7.85,2.5,12.06,8.1,11.18,12.28-.66,3.17-4.1,4.76-4.46,4.92-4.43,1.97-10.56-.05-14.9-5.45,1.3-1.51,2.64-3.21,3.98-5.1,1.65-2.33,3.04-4.57,4.19-6.66Z"/>
      <path class="cls-6" d="m142.25,261.07c.59,9.67-6.4,17.16-13.89,17.32-6.6.14-13.37-5.42-12.75-9.25.51-3.14,6.2-6.42,26.64-8.07Z"/>
      <path class="cls-6" d="m142.25,261.07c1.4,7.76,6.07,13.74,12.11,15.19,5.69,1.37,12.96-1.16,13.5-4.54.64-4.01-8.38-8.22-9.17-8.58-6.73-3.14-13.18-2.59-16.45-2.07Z"/>
      <path class="cls-2" d="m123.28,263.09c.15-.25,3.4-5.66.58-10.95-1.86-3.48-5.17-4.72-6.03-5.01-2.27-39.22-3.51-67.93-3.07-70.33.29-1.61.85-3.08.85-3.08s.57-1.48,1.44-2.89c3.44-5.57,11.31-8.94,11.31-8.94,5.59-2.39,11.24-3.38,21.5-4.5,11.01-1.2,18.92-.88,34.75-.25,3.06.12,7.35.34,11.75,3,1.08.65,5.31,3.35,7.75,8.5,1.27,2.69,2.17,6.28.5,17-1.82,11.71-3.1,19.9-9,28.75-3.31,4.96-6.61,7.94-10,11-13.27,11.98-21.41,11.33-25.75,19.5-1.82,3.44-3.34,9.12-.68,18.48-3.65-1.16-8.23-2.24-13.58-2.66-9.41-.74-17.19.86-22.32,2.38Z"/>
      <path class="cls-1" d="m66.11,184.8c4.49,58.69,6.3,108.79,7,147.67,1.24,69.17-.6,126.68-1.96,167.33-1.16,34.93-1.75,52.4-2.38,60.33-5.59,70.16-20.81,136.56-.72,160.22,1.52,1.79,5.15,5.96,10.06,6.03,13.03.19,22.47-28.75,24-33.58,6,14.55,15.73,23.14,24,22,4.44-.61,7.42-3.88,9-5.67,7.77-8.76,6.49-20.79,5.67-39.67-.48-11.1.35-22.27-.67-33.33-2.49-27.04-12.18-206.51-25.36-459.45"/>
      <path class="cls-7" d="m57.28,331.47c-3.03,1.85.88,19.32,6.5,19.67,5.39.33,11.49-15.12,8.67-17.67-1.11-1-2.9.64-7.33.17-4.88-.53-6.57-2.94-7.83-2.17Z"/>
      <path class="cls-7" d="m40.28,320.14c.72-.02,1.64.15,7.83,5,4.61,3.61,6.92,5.44,6.83,6.33-.41,4.25-19.61,9.09-23.17,3.5-2.67-4.2,3.23-14.68,8.5-14.83Z"/>
      <path class="cls-2" d="m38.77,337.49c-15.68,31.36-27.58,56.19-34.66,70.98-1.52,3.18-4.54,9.72-2.33,16.33,2.15,6.46,8.2,9.78,11,11.33,11.98,6.66,28.31,16.62,49,29.33-4.87,1.49-8.06,4.77-8,8,.04,2.34,1.79,5.12,3.5,5.17.87.02,1.71-.77,3.4-2.38.46-.44,2.4-2.31,2.27-2.46-.17-.19-4.49,1.99-5.15,5.46-.4,2.08.52,4.62,1.88,4.94,2.11.5,5.27-4.36,5.06-4.56-.15-.15-2.66,1.56-3.65,4.23-.05.14-1.16,3.2.09,4.71,1.41,1.71,5.76,1.36,10.41-1.74.35-12.15.69-24.3,1.04-36.45-1.83-1.53-3.72-3.05-5.7-4.56-13.02-9.92-26.29-16.77-38.56-21.56-2.89-1-6.83-2.92-8-6.5-1.49-4.54,2.28-9.26,5.5-13.88,5.56-7.97,8.82-17.33,13.87-25.62,5.2-8.52,11.66-21.4,16.75-40.11-.17-.58-.33-1.23-.43-1.96-.22-1.46-.18-2.74-.06-3.75-2.29,1.41-5.65,3.11-9.97,4.14-2.75.65-5.23.87-7.25.91Z"/>
      <path class="cls-3" d="m32.45,167.8c15.55-9.76,48.7-27.67,94.67-31,45.47-3.3,80.53,9.33,97.33,16.67-2.24-5.49-4.47-10.97-6.71-16.46-3.51-.7-21.39-4.42-33.96-12.38-2.67-1.69-6.9-4.42-10.96-9.38,0,0-3.02-3.69-5.28-8.37-3.93-8.13-7.39-39.33-7.42-81.87,6.92-4.39,8.57-13.33,4.62-19-4.68-6.71-15.41-6.22-20.12-1.25-4.95,5.22-4.18,16.34,4.5,22.62-.63,22.67-1.25,45.33-1.88,68-.15,3.23-.88,8.99-4.37,15-.85,1.47-5.91,9.89-16.13,13.88-5.13,2-9.46,2.06-11.62,2.12,0,0-11.99.34-40.13,6.62-9.83,2.19-23.29,7.19-38.49,19.68-1.35,5.04-2.7,10.07-4.05,15.11Z"/>
      <circle class="cls-5" cx="154.36" cy="13.83" r="5.44"/>
      <path class="cls-6" d="m124.98,371.28c9.06.95,21.37,1.3,35.63-1.14,11.77-2.01,21.55-5.35,28.99-8.51,1.02,11.26,2.05,22.52,3.07,33.77-5.83,4.08-14.15,8.94-24.89,12.4-17.37,5.61-32.54,4.83-41.33,3.67-.49-13.4-.98-26.8-1.46-40.2Z"/>
      <circle class="cls-8" cx="143.71" cy="173.36" r="3.59"/>
      <circle class="cls-8" cx="191.43" cy="175.22" r="3.59"/>
      <path class="cls-8" d="m159.85,182.52c2.71,3.18,6.95,5.08,11.11,4.99s7.97-1.96,10.56-4.99c1.04-1.22-.72-3-1.77-1.77-2.17,2.54-5.44,4.18-8.79,4.26-3.56.08-7.04-1.55-9.34-4.26-1.04-1.23-2.81.55-1.77,1.77h0Z"/>
      <path class="cls-2" d="m231.1,325.65c19.96,33.65,27.49,39.84,30.53,38.58,9.44-3.92-.17-89.69-3.52-111.43-.53-3.45-2.14-13.31,2.33-16.17,2.63-1.68,6.75-.54,9.33,1.17,4.2,2.77,5.69,7.9,6.33,12,.66,4.19,20.32,134.44-11,141.17-7.14,1.53-18.12-3.11-35.33-28.2.44-12.37.88-24.75,1.32-37.12Z"/>
      <path class="cls-9" d="m259.81,237.69c.16.15.31.3.46.46.1.1.19.21.28.32.04.05.08.1.12.14.21.24-.15-.21.05.06.21.29.41.58.59.9.2.36.39.75.48,1,.34.91.5,1.76.5,2.7,0,.22,0,.43-.02.65,0,.08-.01.16-.02.24,0,.03-.06.41,0,.11-.05.29-.1.58-.17.87-.16.65.21,1.36.87,1.54s1.38-.21,1.54-.87c.88-3.55-.22-7.38-2.9-9.88-.49-.46-1.28-.49-1.77,0s-.5,1.31,0,1.77h0Z"/>
      <path class="cls-9" d="m268.19,245.93c.72-1.42,1.13-3.03,1.05-4.62-.11-2.06-.96-3.97-2.36-5.47-.46-.49-1.3-.47-1.77,0-.49.49-.46,1.27,0,1.77.1.1.19.21.28.31.04.05.08.1.12.15.21.25-.09-.13.03.04.22.31.43.63.6.97.35.68.58,1.57.61,2.37,0,.21,0,.42,0,.63,0,.11-.02.22-.03.33,0,.07-.02.19,0,.05-.05.36-.13.72-.24,1.08-.08.27-.15.59-.29.83.14-.26.02-.05-.04.08-.03.07-.07.14-.11.22-.31.6-.16,1.36.45,1.71.56.33,1.4.16,1.71-.45h0Z"/>
    </g>
  </g>
</svg>