<?xml version="1.0" encoding="UTF-8"?>
<svg id="Capa_2" data-name="Capa 2" xmlns="http://www.w3.org/2000/svg" viewBox="0 0 517.32 682.31">
  <defs>
    <style>
      .cls-1 {
        fill: #b41919;
      }

      .cls-1, .cls-2 {
        stroke-width: 0px;
      }

      .cls-3 {
        fill: #52a633;
      }

      .cls-3, .cls-4, .cls-5, .cls-6, .cls-7, .cls-8, .cls-9, .cls-10, .cls-11 {
        stroke-miterlimit: 10;
        stroke-width: 2px;
      }

      .cls-3, .cls-4, .cls-5, .cls-7, .cls-8, .cls-9, .cls-10, .cls-11 {
        stroke: #1d1d1b;
      }

      .cls-4 {
        fill: #47c1f0;
      }

      .cls-5 {
        fill: #9fc971;
      }

      .cls-6 {
        stroke: #fab728;
      }

      .cls-6, .cls-9 {
        fill: none;
      }

      .cls-7, .cls-2 {
        fill: #1d1d1b;
      }

      .cls-8 {
        fill: #fff;
      }

      .cls-10 {
        fill: #3866af;
      }

      .cls-11 {
        fill: #fee1c3;
      }
    </style>
  </defs>
  <g id="Capa_1_copia_15" data-name="Capa 1 copia 15">
    <g>
      <path class="cls-3" d="m477.91,365.28c-1.03,3.85-7.18,24.95-20.76,39-19.88,20.57-50.24,20.29-55.6,20.16,2.03-7.24,3.93-15.36,5.42-24.28,1.58-9.45,2.44-18.21,2.84-26.08-13.4-3.98-23.78-12.74-27.42-23.38-7.04-20.54,9.96-51.24,43.28-56.66-6.66-27.66-1.74-33.32.86-34.88,5.8-3.48,17.66,3.02,28.52,13.54-3.04,4.18-6.32,8.5-9.94,13v.02c-10.3,12.9-23.06,27.2-38.7,43.06-.52,1.74-2.36,8.74,1.38,15.38.9,1.6,3.74,6.66,9.12,7.74,1.36.28,2.54.22,3.38.14,14.26-16.76,25.68-31.1,33.74-41.52.78-1,1.54-1.98,2.28-2.94,4.76-6.18,9.1-11.94,13.04-17.34.28.42.54.86.8,1.28,19.06,31.62,9.68,66.56,7.76,73.76Z"/>
      <path class="cls-5" d="m481.91,335.11c.29-10.87-1.65-19.38-3.34-24.83-3.43-11.11-10.51-19.85-24.67-37.33-5.07-6.27-9.46-11.16-16.61-13.01-.59-.15-5.87-1.45-11.74-.04-16.63,4-19.36,25.36-38.43,59.55-1.44,2.59-4.73,8.38-5.63,16.62-.77,7.04.52,12.88,1.58,16.42,3.7-2.82,9.85-6.93,18.2-9.77,17.27-5.88,28.69-1.15,51.96-2.78,6.67-.47,16.6-1.62,28.67-4.84Z"/>
      <path class="cls-8" d="m288.58,198.28c14.18-3.89,35.92-8.02,62.33-6,21.64,1.66,39.27,6.9,51.67,11.67-.81-1.75-2.14-5.37-1.33-9.67,1.62-8.61,10.93-14.9,16-13.33,5.2,1.6,6.24,11.57,7.33,32,2.47,46.1,3.58,69.37-2.67,80-11.78,20.03-33.53,27.21-43,30.33-57.69,19.04-113.68-24.47-121-30.33,2.94-94.89,11.02-116.88,18.33-117.67,3.48-.38,10.88,3.6,13.33,10,2.03,5.28.07,10.61-1,13Z"/>
      <path class="cls-5" d="m258.69,271.98c-.64,8.52-1.54,17.42-2.78,26.68-.62,4.58-1.28,9.06-2.02,13.44-1.42-1.46-4.18-3.88-8.36-5.32-6.36-2.18-11.88-.64-13.8-.02.06-1.42.2-2.84.42-4.24,2.28-14.36,12.6-26.24,26.54-30.54Z"/>
      <path class="cls-3" d="m253.89,312.1c-1.6,9.82-3.46,19.14-5.48,27.94-11.02-7.52-17.26-20.18-16.68-33.28,1.92-.62,7.44-2.16,13.8.02,4.18,1.44,6.94,3.86,8.36,5.32Z"/>
      <line class="cls-6" x1="253.91" y1="312.12" x2="253.89" y2="312.1"/>
      <path class="cls-9" d="m409.81,374.08c6.1,1.8,12.84,2.64,19.86,2.2"/>
      <path class="cls-11" d="m514.79,74.16c1.84-5.14,1.92-7.42.74-8.88-.82-1.04-2.46-1.88-3.86-1.5-3.9,1.02-3.56,10.4-5.38,10.5-1.78.1-3.04-8.62-9.26-18.62-1.72-2.8-3.58-5.26-5.5-5-1.14.14-2.26,1.26-2.5,2.5-.06.3-.06.56-.02.84,1.4,1.26,2.62,3.16,3.66,5.12.3.4.58.82.86,1.28,1.44,2.38,2.08,4.72,2.38,6.54-.32-.96-1.48-4.48-3.24-7.82-1.68-2.34-3.38-3.62-3.66-5.12-.82-.76-1.68-1.28-2.6-1.48-.64-.12-2.32-.5-3.34.42-.98.9-.8,2.58-.66,3.58.14,1.12.44,2.02.84,2.9-1.58-2.1-3.28-3.58-4.84-3.3-1.64.28-2.54,2.44-2.84,3.16-3.92,9.5,9.92,19.98,13.16,34.24,4.18,18.4-13.18,25.96-16.48,50.76-2.74,20.44,6.5,34.44,10.02,44.8,5.56,16.38,3,41.9-27.22,83.62-3.04,4.18-6.32,8.5-9.94,13v.02c-.34,1-2.64,8.22,1.72,14.9,3.22,4.94,8.08,6.56,9.48,6.96,4.76-6.18,9.1-11.94,13.04-17.34,28.18-38.5,36.8-58.6,38.68-76.84,1.12-10.82,2-19.22-1.74-29.12-4.26-11.24-11.06-15.42-11.5-26.24-.16-3.86.74-8.82,4.88-17.64,9.3-19.9,13.96-29.84,12.74-37.36-1.2-7.48-5.24-10.3-3.38-16.52,1.08-3.56,3.1-4.96,5.76-12.36Zm-31.52-14.72c1.6,2.12,3.06,4.86,4.16,7.14-1.74-3.42-3.24-5.2-4.16-7.14Z"/>
      <path class="cls-4" d="m456.31,307.58c-.74.96-1.5,1.94-2.28,2.94-5.98,7.72-13.8,17.62-23.26,29.04-3.3,3.98-6.8,8.16-10.48,12.48-.84.08-2.02.14-3.38-.14-5.38-1.08-8.22-6.14-9.12-7.74-.54-.96-.98-1.94-1.3-2.9-1.94-5.66-.52-11-.08-12.48,15.64-15.86,28.4-30.16,38.7-43.06-.34,1-2.64,8.22,1.72,14.9,3.22,4.94,8.08,6.56,9.48,6.96Z"/>
      <path class="cls-6" d="m483.27,59.44c1.6,2.12,3.06,4.86,4.16,7.14-1.74-3.42-3.24-5.2-4.16-7.14Z"/>
      <path class="cls-6" d="m492.67,59.12c-1.68-2.34-3.38-3.62-3.66-5.12,1.4,1.26,2.62,3.16,3.66,5.12Z"/>
      <path class="cls-9" d="m430.77,339.56c4.98.04,10.32.1,16.3-.12,8.38-.3,20.34-1.28,34.84-4.32"/>
      <path class="cls-10" d="m232.41,433.78c-12.83-21.83-25.67-43.67-38.5-65.5-1.03,11.48-4.77,19.4-7.5,24-2.38,4.01-6.59,11.09-11.5,10.75-4.18-.29-6.92-5.81-7-5.75-1.04.77,20,27.75,20,27.75,20.11,25.79,30.16,38.68,38.75,47.75,23.72,19.5,42,33.11,48,36.62,6.02,3.53,10.15,3.02,11.12,2.88,2.18-.34,4.12-1.25,4.13-1.25,2.26-1.06,3.2-2.14,5.37-3.88,1.17-.94,2.98-2.2,5.5-3.38-17.04,14.33-34.08,28.67-51.12,43,4.93,1.26,12.86,3.98,20.87,10.14,5.91,4.55,9.87,9.44,12.38,13.11,14.67-16.5,29.33-33,44-49.5,3.59.32,11.94.53,19.88-4.5,6.5-4.12,10-10.03,11.12-12.75,8.2-19.87-29.36-65.84-77.63-82.62-21.09-7.33-50.74-11.36-54.87-2.72-2.03,4.26,2.52,10.76,7,15.84Z"/>
      <path class="cls-9" d="m383.09,352.48c2.82-2.16,7.26-5.22,13.18-7.82,3.52-1.54,6.9-2.64,10.22-3.4"/>
      <path class="cls-4" d="m409.81,374.07c-1.51,27.68-8.39,69.65-35.9,109.21-5.16,7.42-10.56,14.07-16,20-6.16-11.75-15.47-25.97-29.5-39.5-38.55-37.18-85.83-43.18-103.5-44.5,6.57-17.44,12.97-36.81,18.67-58,6.6-24.54,11.16-47.5,14.33-68.33,9.15,8.69,35.94,31.79,76.67,35.67,21.6,2.06,39.41-2.03,50.65-5.67-.53,1.01-9.16,18.4.76,34.84,7.86,13.03,21.58,15.86,23.81,16.28Z"/>
      <path class="cls-11" d="m283.03,20.66c-2.52-1.36-9.08,8.52-11.36,7.24-2.56-1.4,5.12-14-.38-23-.2-.3-2.72-4.34-4.88-3.86-1.82.4-2.78,3.86-3.24,8.34-.38-3.92-1.54-6.48-3.34-7.08-1.86-.62-3.88,1-4.16,1.22-1.7,1.36-2.66,3.6-2.76,6.3.48,2.22,1.1,4.86,1.84,8-1.36-2.82-1.94-5.58-1.84-8-.14-.64-.26-1.22-.38-1.78-.1-.54-.34-1.7-1.24-2.76-1-1.16-2.78-2.14-3.62-1.76-2.08.98.56,10.4,1.36,14,4.88,22.2-11.5,45.74-15.46,51.42-11.24,16.18-16.52,10.98-27,26.34-3.44,5.04-16.28,25.28-12.32,48.66,2.4,14.32,8.4,13.78,16,34,7,18.64,7.9,35.02,8.66,49,.18,3.3.46,9.82.92,17.36,1.96.3,7.32.86,13.08-2.02,4.72-2.36,7.34-5.84,8.48-7.54v-.02c-2.8-22.56,3.76-32.08-1.4-51.9-7.42-28.54-26.22-28.74-25.58-48.04.54-16.74,14.88-22.02,34.74-51,11.66-16.98,18.74-32.7,23-43.74,2.26-1.08,7.84-4.1,10.38-10.38,1.34-3.32,2.08-8.16.5-9Zm-20.24-1.62c0-3.22.08-6.62.38-9.6.24,2.64.14,5.9-.38,9.6Z"/>
      <path class="cls-6" d="m252.91,9.82c.48,2.22,1.1,4.86,1.84,8-1.36-2.82-1.94-5.58-1.84-8Z"/>
      <path class="cls-4" d="m253.33,274.1c-6.7,7.88-13.4,15.74-20.08,23.6-.92-1.02-2.22-2.6-3.58-4.66-1.18-1.78-4.32-6.84-6.1-14.42-1.88-8.04-3.02-22.42-3.74-34.32,1.96.3,7.32.86,13.08-2.02,4.72-2.36,7.34-5.84,8.48-7.54.34,2.8.84,5.8,1.52,9.04,2.76,13.26,7.16,23.66,10.42,30.32Z"/>
      <path class="cls-7" d="m317.57,654.35c.35.44,1.76.02,4.59-.81,3.82-1.12,5.86-2.46,7.87-3.34,2.24-.97,5.69-1.92,10.71-1.43-21.97,1.55-36.66,10.36-37.5,19.83-.35,4,1.75,8.27,4.83,10.77,5.62,4.56,11.21.57,42.33-7.1,8.23-2.03,15.17-3.56,21.33-9.67,2.32-2.3,5.82-5.77,6.33-10.5,1.15-10.68-13.34-24.17-27.92-24.58-20.42-.56-34.24,24.75-32.59,26.82Z"/>
      <path class="cls-6" d="m262.79,19.04c0-3.22.08-6.62.38-9.6.24,2.64.14,5.9-.38,9.6Z"/>
      <path class="cls-8" d="m300.54,636.6c-.11.93-1.35,12.35,5.33,16.91,7.99,5.45,21.11-3.17,27.55-7.39,7.91-5.19,17.13-11.25,16.83-20.5-.21-6.48-5.03-12.5-10.67-15-10.04-4.45-20.54,3.21-25.5,6.83-4.26,3.11-12.31,8.98-13.54,19.15Z"/>
      <path class="cls-11" d="m249.66,546.78c-11.9,14.88-12.45,27.18-12.25,32.25,1.08,27.32,32.15,54.65,78,60.25,2.52-.69,7.54-2.45,12-7,2.75-2.8,4.34-5.7,5.25-7.75-21.14-6.51-37.93-13.83-50-19.75-16.66-8.17-21.87-12.47-23.18-18.6-2.74-12.81,13.22-25.43,15.42-27.13-8.41-4.09-16.83-8.18-25.24-12.27Z"/>
      <path class="cls-10" d="m262.5,573.74c1.35.63,8,3.6,15.03.67,2.84-1.19,4.8-2.94,6-4.25-.47-1.31-1.42-3.49-3.37-5.62-1.91-2.09-3.94-3.23-5.19-3.82-4.15,4.34-8.31,8.68-12.46,13.02Z"/>
      <path class="cls-10" d="m168.31,397.89c-3.52-5.24-2.58-10.96-2.27-12.86.2-1.23,1.25-7.6,4.5-8.38.03,0,.06-.01.08-.02,4.26,6.8,8.51,13.6,12.77,20.39-1.87,3.88-5.24,6.26-8.47,6-3.33-.27-5.32-3.24-6.6-5.14Z"/>
      <path class="cls-11" d="m193.45,372.12c-5.76-14.32-16.13-34.04-35.54-50.18-19.96-16.6-29.82-13.07-41.33-28-16.88-21.89-14.09-53.36-12-77,2.23-25.24,7.48-29.24,4.67-42.67-4.91-23.47-26.72-38.98-45.33-48.67-4.89,5.11-9.78,10.22-14.67,15.33,8.72,3.05,23.95,9.99,31.33,25,2.66,5.42,4.59,12.46,2,40-3.77,40.12-9.45,42.34-6.67,58.67,4.03,23.62,19.43,39.42,23.67,43.67,12.29,12.3,15.47,7.66,33.33,22.33,18.4,15.11,29.6,32,36.67,42.67,6.26,9.45,10.79,17.77,13.81,23.75,3.35-8.3,6.71-16.61,10.06-24.91Z"/>
      <ellipse class="cls-11" cx="332.79" cy="258.34" rx="57.88" ry="40.56"/>
      <path class="cls-8" d="m33.41,102.03c1.95-1.08,14.66-8.1,24-1.75,8.4,5.71,8.26,18.3,6.5,25.33-3.9,15.56-22.01,28.85-35,23.92-8.43-3.2-11.34-12.8-11.75-14.25-3.83-13.36,5.44-27.28,16.25-33.25Z"/>
      <path class="cls-7" d="m46.41,111.28c-13.7-5.37-17.38-10.94-18-15.25-1.75-12.14,20.2-18.86,23.75-41,.3-1.85,2.27-14.17-3.75-18.25-6.45-4.37-18.21,3.35-22.25,6-3.04,1.99-22.05,14.93-24.75,39.25-.49,4.4-1.44,14.16,3.5,25,7.76,17.01,23.88,23.21,27.5,24.5,1.38-.41,8.34-2.63,12-9.75,2.27-4.42,2.17-8.59,2-10.5Z"/>
      <path class="cls-7" d="m326.04,260.9c5.98.79,11.69-.38,12.25-.5,6.45-1.37,8.91-3.78,10.75-2.5,2.5,1.74,1.64,8.72-1.25,13.62-4.35,7.38-13.76,10.84-21.75,10.5-12.91-.55-25.83-11.17-24.75-19.38.41-3.14,2.95-6.46,6.13-7.5,5.36-1.76,8.29,4.38,18.62,5.75Z"/>
      <circle class="cls-2" cx="293.51" cy="249.06" r="4.47"/>
      <circle class="cls-2" cx="367.33" cy="253.53" r="4.47"/>
      <path class="cls-8" d="m312.18,255.83c-2.23,3.55-1.75,7.41.31,8.95,1.22.92,3.27,1.23,4.83.25,1.78-1.12,2.55-3.69,1.57-6.11-2.24-1.03-4.48-2.06-6.72-3.09Z"/>
      <path class="cls-8" d="m331.28,261.17c-1.29,2.82-.3,5.8,1.71,6.82,1.4.71,3.45.55,4.62-.71,1.43-1.53,1.33-4.43-.71-6.33-1.88.07-3.75.15-5.63.22Z"/>
      <path class="cls-8" d="m338.95,260.26c-.95,2.29-.18,4.78,1.59,5.87,1.41.86,3.46.85,4.75-.28,1.38-1.21,1.25-3.14,1.19-3.97-.13-1.82-1.03-3.08-1.43-3.58-2.03.66-4.06,1.31-6.1,1.97Z"/>
      <path class="cls-1" d="m349.7,267.09c-6.85.75-12.87,1.56-17.92,2.32-6.09.91-9.51,1.55-11.12,4.31-1.33,2.28-.85,5.02-.31,6.81,1.21.43,11.65,3.96,20.88-2.29,5.52-3.74,7.73-9.03,8.48-11.15Z"/>
      <path class="cls-8" d="m335.87,280.27c-.91-1.95-.6-3.84.23-4.33.91-.53,3.01.25,4.19,2.56-1.47.59-2.94,1.18-4.42,1.77Z"/>
      <path class="cls-8" d="m342.01,277.28c-1.61-1.87-1.49-4.01-.66-4.62.72-.53,2.32-.16,3.62,1.09-.99,1.18-1.98,2.35-2.97,3.53Z"/>
      <path class="cls-8" d="m308.57,275.12c.12-2.26,1.93-3.7,3.41-3.47,1.23.19,2.22,1.54,2.25,2.94.02,1.25-.72,2.42-1.91,2.97l-3.75-2.44Z"/>
      <path class="cls-8" d="m314.32,278.69c-.53-1.87.45-3.69,1.94-4.16,1.31-.41,2.74.31,3.41,1.34.9,1.39.53,3.5-1.06,4.78-1.43-.66-2.85-1.31-4.28-1.97Z"/>
    </g>
  </g>
</svg>