<?xml version="1.0" encoding="UTF-8"?>
<svg id="Capa_2" data-name="Capa 2" xmlns="http://www.w3.org/2000/svg" xmlns:xlink="http://www.w3.org/1999/xlink" viewBox="0 0 245.97 297.76">
  <defs>
    <style>
      .cls-1 {
        fill: url(#Degradado_sin_nombre_12);
      }

      .cls-1, .cls-2 {
        stroke-width: 0px;
      }

      .cls-3 {
        fill: #b4acba;
      }

      .cls-3, .cls-4, .cls-5, .cls-6 {
        stroke: #1d1d1b;
        stroke-miterlimit: 10;
      }

      .cls-3, .cls-4, .cls-6 {
        stroke-width: 2px;
      }

      .cls-4 {
        fill: #43244c;
      }

      .cls-5 {
        fill: #ba9fc8;
        stroke-width: 4px;
      }

      .cls-6 {
        fill: none;
      }

      .cls-2 {
        fill: #1d1d1b;
      }
    </style>
    <radialGradient id="Degradado_sin_nombre_12" data-name="Degradado sin nombre 12" cx="109.37" cy="38.72" fx="109.37" fy="38.72" r="26.82" gradientUnits="userSpaceOnUse">
      <stop offset=".15" stop-color="#fde666"/>
      <stop offset=".79" stop-color="#d7b087"/>
    </radialGradient>
  </defs>
  <g id="Capa_1_copia_5" data-name="Capa 1 copia 5">
    <g>
      <path class="cls-5" d="m64.01,51C68.75,23.06,92.94,2.37,121.01,2c28.62-.37,53.67,20.5,58.51,49,21.09.92,40.01,13.07,49.18,31.69,12.93,26.23-.48,51.15-1.69,53.31,14.51,13.81,20.36,34.11,15,52.5-6.44,22.08-26.05,31.19-29,32.5,6.4,14.88,2.55,31.85-9,41.5-14.73,12.3-33.7,5.79-34.5,5.5,3.49,10.03,1.59,19.5-3.06,22.12-5.39,3.04-17.3-1.55-23.44-14.87,1.12,11.26-7.74,20.58-17.5,20.5-8.43-.07-16.29-7.15-17.25-16.75-3.09,7.84-10.26,12.75-17,12.25-9.04-.68-17.34-11.11-14.82-23.25-1.36.43-15.59,4.63-27.43-4.5-9.63-7.42-13.69-20.57-10.05-32.98-1.54-.85-36.3-20.91-36.95-59.52-.48-28.17,17.53-46.58,21-50-9.82-19.77-7.01-42.5,6.5-56.5,13-13.46,30.8-13.56,34.5-13.5Z"/>
      <circle class="cls-2" cx="72.87" cy="90.59" r="5.62"/>
      <circle class="cls-2" cx="145.74" cy="84.97" r="5.63"/>
      <path class="cls-1" d="m110.49,11.47c1.67,7.17,3.33,14.33,5,21.5,6.75,1.92,13.5,3.83,20.25,5.75-6.58,2-13.17,4-19.75,6,2.42,7.08,4.83,14.17,7.25,21.25l-15-18.75c-5.67,5-11.33,10-17,15,1.75-6.08,3.5-12.17,5.25-18.25-4.5-2.83-9-5.67-13.5-8.5,6-.58,12-1.17,18-1.75,3.17-7.42,6.33-14.83,9.5-22.25Z"/>
      <path class="cls-4" d="m108.24,108.72c4.13-.31,4.51-5.44,11-7.75,1.42-.5,5.17-1.84,8.25-.25,4.66,2.42,5.51,10.42,4.25,15.5-2.05,8.3-10.83,14.63-22,15.5-1.71-.08-4.25-.36-7.13-1.38-7.75-2.74-17.55-10.7-15.87-18.62,1-4.7,5.99-9.19,10.5-9,5.13.21,6.44,6.34,11,6Z"/>
      <path class="cls-3" d="m93.9,124.7c-.18-2.01,4.71-4.14,8.09-4.73,9.32-1.62,17.96,6.56,17.08,8.96-1.28,3.5-24.78.07-25.18-4.23Z"/>
      <path class="cls-6" d="m179.99,150.97c.2,3.91,2.64,58.17-10,68-4.82,3.75-9.25,3.5-9.25,3.5-5.75-.32-9.71-5.39-11.5-7.75-7.91-10.43-7.04-23.75-6-37,.94-11.96,2.51-31.9,11.75-34.5,2.05-.58,4.67-.35,6.62,1,5.42,3.73,3.16,14.16,2.13,27.75-.57,7.55-.95,18.59.25,32.36"/>
      <path class="cls-2" d="m154.19,153.28c-.18-1.44-.19-2.94.04-4.36.12-.76.3-1.5.52-2.23.1-.32.21-.65.33-.96.05-.14.11-.29.17-.43.06-.14.06-.14,0,0,.03-.06.06-.13.08-.19.27-.62.18-1.34-.45-1.71-.53-.31-1.44-.17-1.71.45-1.31,2.96-1.88,6.21-1.48,9.44.08.67.52,1.25,1.25,1.25.61,0,1.33-.58,1.25-1.25h0Z"/>
      <path class="cls-2" d="m159.58,152.4c.12.29.02.05-.03-.09-.05-.13-.1-.26-.14-.4-.11-.35-.2-.7-.27-1.06-.14-.69-.18-1.65-.08-2.43.05-.44.16-.88.29-1.3.06-.19.12-.38.19-.57.04-.1.07-.2.11-.29-.05.12-.02.04.02-.03.25-.52.53-1.02.86-1.49.39-.55.1-1.39-.45-1.71-.62-.37-1.32-.11-1.71.45-2.1,2.99-2.36,6.87-.95,10.19.26.62,1.18.76,1.71.45.64-.38.71-1.09.45-1.71h0Z"/>
      <path class="cls-6" d="m34.24,171.97c7.56,21.55,15.1,36.54,18.16,39.52,4.3,4.18,8.69,4.73,8.69,4.73,0,0,0,0,0,0,5.74.46,10.35-4.02,12.45-6.11,9.26-9.25,10.21-22.57,10.99-35.84.7-11.97,1.87-31.95-6.94-35.78-1.96-.85-4.57-.98-6.7.09-4.59,2.31-5.63,9.46-5.89,27.2-.32,21.4.92,28.22-.93,28.86-1.94.67-7.18-5.56-22.17-38.17"/>
      <path class="cls-2" d="m79.46,149.07c.83-3.13.8-6.46-.1-9.57-.19-.65-.88-1.05-1.54-.87s-1.06.89-.87,1.54c.78,2.71.82,5.53.1,8.24-.17.65.22,1.36.87,1.54s1.36-.22,1.54-.87h0Z"/>
      <path class="cls-2" d="m73.86,148.36c1.86-3.12,1.94-7.02.28-10.24-.31-.6-1.15-.78-1.71-.45-.61.36-.76,1.11-.45,1.71.05.1.1.2.15.3.04.08.18.42.08.16.13.33.25.67.35,1.02.25.89.33,1.61.29,2.54-.03.76-.19,1.52-.47,2.31-.03.09-.07.18-.1.28-.02.05-.12.29-.02.06-.06.14-.12.27-.19.4-.11.22-.23.44-.36.65-.35.58-.13,1.37.45,1.71s1.36.13,1.71-.45h0Z"/>
    </g>
  </g>
</svg>