<?xml version="1.0" encoding="UTF-8"?>
<svg id="Capa_2" data-name="Capa 2" xmlns="http://www.w3.org/2000/svg" viewBox="0 0 2490.84 1169.11">
  <defs>
    <style>
      .cls-1 {
        fill: #ef7980;
      }

      .cls-1, .cls-2, .cls-3, .cls-4, .cls-5, .cls-6 {
        stroke: #1d1d1b;
        stroke-miterlimit: 10;
      }

      .cls-1, .cls-2, .cls-3, .cls-4, .cls-6 {
        stroke-width: 2px;
      }

      .cls-7, .cls-3 {
        fill: #fff;
      }

      .cls-7, .cls-8 {
        stroke-width: 0px;
      }

      .cls-2, .cls-8 {
        fill: #1d1d1b;
      }

      .cls-4 {
        fill: #921e17;
      }

      .cls-5 {
        fill: #fab728;
        stroke-width: 6px;
      }

      .cls-6 {
        fill: #fab824;
      }
    </style>
  </defs>
  <g id="Capa_1_copia_2" data-name="Capa 1 copia 2">
    <g>
      <path class="cls-5" d="m2487.84,393.47c.06,3.96-4.9,6.9-6.96,8.12-11.36,6.72-46.7,9.48-78.02-12.64-20.28-14.32-29.24-32.3-41.28-56.44-12.86-25.8-11.92-34.52-27.56-76.26-11.38-30.38-17.08-45.56-24.26-57.16-2.32-3.72-46.16-72.5-103.6-69.5-34.5,1.8-57.86,28.64-83.24,57.76-47.46,54.48-38.1,86.5-85.22,126.82-16.32,13.98-35.52,30.4-64.58,35.5-53.62,9.42-114.58-24.3-150.14-56.3-20.4-18.36-33.7-37.28-60.94-41.5-24.64-3.84-44.46,6.88-47,8.3-10.66,5.98-18.08,13.68-23.08,20.48,123.36,208.18,106.12,503.56-57.52,754.88,50.72-13.2,90.26-11.76,117.66-7.66,30.42,4.56,49.88,13.02,85,10.34,31.96-2.44,48-11.9,69-18.34,64.16-19.7,103.64,10.38,186,22,38.02,5.36,93.14,7.94,163-7-.54-.72-13.12-18.18-5-35.5,3.34-7.12,11.4-16.84,19-15.62,7.5,1.2,11.16,15,18.5,42.62,4.08,15.34,4.46,21.2,1.5,26.5-4.4,7.88-13.86,10.36-18.5,11.5-55.22,13.54-95.5,11.5-95.5,11.5-39.4-2-59.1-2.98-84-5.5-63.42-6.4-70.78-10.24-101.5-12.5-33.62-2.48-77.36-4.82-129,9-27.42,7.34-89.2,27.92-116,29.5-16.98,1-34,.5-34,.5-6.98-.2-12.04-.54-13.5-.62-15.26-.96-46.6-.9-79.5,1.62-56.04,4.3-154.98,18.68-208.5,24-67,6.66-116.3,4.48-172,2-193.54-8.6-206.4-58.46-357.34-67-137.84-7.8-265.18,25.98-373.32,54.66-66.82,17.74-135.28,28.64-202.68,44,0,0-127.42,29.06-207.66-9.16-4.26-2.04-6.74-5.24-6.76-5.26-1.44-14.74-2-27.12-2.24-36.24-.86-33.2,2.28-40.18,7.34-44,3.96-3,10.04-4.78,14.9-3,11.08,4.06,15.94,26.64,10.42,56.34,48.52,6.98,115.26,11.48,193.34,1.32,84.34-10.96,151.94-35.12,198.66-56,0,0,61.54-14.94,126.68-25.32,72.32-11.54,179.84-22.32,317.32-13.34-43.38-19.96-102.52-54.64-152.92-115-141.04-168.96-127.92-436.42-17-621.64-5.7-6.58-14.22-14.16-26.24-19.36-2.68-1.16-23.48-9.8-47.6-3.5-26.66,6.98-37.96,27.16-56.4,47.5-32.14,35.46-89.34,75.18-143.64,71.26-29.42-2.12-50.2-16.52-67.86-28.76-50.96-35.32-44.92-68.12-97.66-117.5-28.2-26.4-54.18-50.72-88.68-49-57.46,2.86-94.08,75.72-96,79.66-5.96,12.26-10.08,27.96-18.32,59.34-11.32,43.1-9.5,51.7-19.68,78.66-9.52,25.24-16.6,44.02-35.32,60.34-28.9,25.18-64.34,26.04-76.34,20.5-2.16-1-7.4-3.42-7.76-7.38-.3-3.48,3.24-7.3,6.92-8.62,3.72-1.32,5.72.54,11.76-.02,3.2-.3,5.76-1.12,7.48-1.78-3.38.6-8.48,1.14-14.56.3-5.58-.76-11.5-1.58-12.72-5.24-.94-2.88,1.3-6.66,3.88-8.38,1.68-1.12,4.12-1.3,9-1.62,2.3-.16,2.86-.08,6.08-.26.86-.04,6.92-.4,6.92-.74,0-.68-21.34,1.56-23.76-5-.96-2.68,1.52-5.8,1.88-6.26,4.56-5.72,12.56-2.54,23.12-6.38,4.44-1.6,7.22-3.78,12.76-8.12,17.74-13.9,27.84-32.14,28.66-33.66,10.66-19.68,11.26-36.76,13.34-53.34,7.28-57.86,31.76-100.96,42-119,12.66-22.28,21.28-37.48,39.5-52.5,37-30.52,79.74-32.48,93.5-32.5,6.36,0,38.84.34,75,19.5,26.5,14.04,46.02,37.04,84,82.5,40.7,48.72,49.1,65.74,78,79.5,16.22,7.72,34.5,16.42,55.64,11.72,22.46-5,43.72-29.8,85.36-79.22,11.96-14.2,17.16-21.1,28.5-28.5,25.5-16.62,52.72-16.64,63.5-16.5,40.9.5,71.88,21.3,87.74,34.62,57.4-77.46,183.48-211,383.14-225.34,262.56-18.84,429.66,184.44,450.78,211.06,2.7,3.38,5.34,6.8,7.94,10.26,15.66-14.66,42.28-33.84,78.3-37.96,10.7-1.24,37.78-4,64.84,9.96,12.04,6.2,17.9,12.54,31.26,25.46,46.42,44.92,70.1,67.44,92.94,70.12,21.52,2.54,38.84-7.98,54.18-17.3,27.34-16.64,33.98-34.42,69.52-87.02,33.16-49.08,50.24-73.96,75.18-90.6,34.02-22.74,66.3-26.4,72.62-27.02,13.7-1.38,56.42-3.78,96.32,22.82,19.66,13.1,29.78,27.34,44.64,48.22,12.02,16.9,40.76,57.28,53.88,114.12,3.76,16.28,6.06,33.2,18.68,51.7.98,1.44,12.86,18.54,31.94,30.58,5.96,3.76,8.92,5.62,13.5,6.78,10.9,2.74,18.56-1.24,23.66,4,.42.42,3.2,3.28,2.5,6.02-1.74,6.76-23.12,6.72-23.12,7.38.04.36,6.1.08,6.96.06,3.22-.16,3.78-.3,6.08-.38,4.88-.16,7.32-.24,9.12.7,2.74,1.46,5.34,4.98,4.7,7.94-.82,3.76-6.64,5.18-12.12,6.52-5.96,1.44-11.08,1.44-14.5,1.18,1.76.48,4.4,1.04,7.62,1,6.06-.04,7.86-2.1,11.68-1.16,3.8.92,7.72,4.36,7.76,7.88Z"/>
      <path class="cls-4" d="m1210.77,239.87c19.04-7,22.12-18.89,31.67-16.67,9.96,2.32,17.43,17.8,15.33,30.67-2.78,17.08-21.63,24.64-28.33,27.33-24.11,9.67-57.99,4.84-63.83-11.33-2.43-6.71-.02-15.37,4.83-20.67,8.87-9.67,20.3-1.97,40.33-9.33Z"/>
      <path class="cls-3" d="m1167.6,254.71c.46,4.32,10.41,8.8,18.17,6,6.37-2.3,10.7-9.33,10.78-17.55-1.12-.02-2.85-.02-4.94.09-5.91.33-11.96.67-17.38,4-2.16,1.33-6.96,4.29-6.62,7.46Z"/>
      <path class="cls-3" d="m1197.22,243.44c3.38-.45,7.46-1.26,11.94-2.75,4.8-1.59,8.77-3.53,11.88-5.31,3.61,4.31,4.62,9.9,2.44,14-3.02,5.68-10.64,5.6-14,5.56-2.59-.03-9.52-.11-11.94-4.81-1.31-2.55-.72-5.32-.31-6.69Z"/>
      <path class="cls-3" d="m1222.04,234.81c.11.57,1.55,7.48,6.88,9.31,5.95,2.05,11.59-4.04,13.81-6.44,1.47-1.59,5.03-5.43,3.88-8.31-.41-1.02-1.05-1.03-6.13-4.31-.36-.24-1.23-.8-2.47-.96,0,0-.6-.08-1.25,0-1.45.15-7.29,4.36-14.72,10.72Z"/>
      <path class="cls-1" d="m1183.51,283.6c3.54-5.19,13.28-17.94,29.92-22.55,11.07-3.07,21.84-1.61,26.33-1,5.83.79,10.6,2.12,14,3.25-4.15,4.77-13.4,14.09-28.4,19.38-19.28,6.8-35.97,2.68-41.86.92Z"/>
      <path class="cls-6" d="m1156.12,172.21c3.61,23.61.18,41.65-2.77,52.16-3.78,13.5-7.6,27.16-19,31.5-12.66,4.83-26.3-5.04-27.25-5.75-22.28-16.6-16.55-56-16-59.5,7.57-47.82,62.89-97.15,122.5-92.5,42.72,3.33,84.03,34.12,92.25,68.75,1.53,6.46,7.04,29.68-6.25,44.75-1.22,1.39-7.7,8.74-16,9.5-16.21,1.49-35.92-22.49-46.12-60.5-27.12,3.86-54.24,7.72-81.37,11.59Z"/>
      <ellipse class="cls-2" cx="1196.89" cy="165.56" rx="41.83" ry="24.77" transform="translate(.89 337.42) rotate(-16.05)"/>
      <circle class="cls-8" cx="1315.72" cy="72.62" r="72.62"/>
      <circle class="cls-7" cx="1321.35" cy="61.62" r="55.25"/>
      <circle class="cls-8" cx="1013.72" cy="162.75" r="72.62"/>
      <circle class="cls-7" cx="1021.6" cy="153.07" r="55.25"/>
    </g>
  </g>
</svg>