<?xml version="1.0" encoding="UTF-8"?>
<svg id="Capa_2" data-name="Capa 2" xmlns="http://www.w3.org/2000/svg" viewBox="0 0 228.45 764.68">
  <defs>
    <style>
      .cls-1 {
        fill: #496537;
      }

      .cls-1, .cls-2, .cls-3, .cls-4, .cls-5, .cls-6, .cls-7 {
        stroke-miterlimit: 10;
        stroke-width: 2px;
      }

      .cls-1, .cls-2, .cls-3, .cls-4, .cls-5, .cls-7 {
        stroke: #1d1d1b;
      }

      .cls-2, .cls-8 {
        fill: #585453;
      }

      .cls-8, .cls-9 {
        stroke-width: 0px;
      }

      .cls-3 {
        fill: #fff;
      }

      .cls-4 {
        fill: #efe646;
      }

      .cls-5 {
        fill: none;
      }

      .cls-6 {
        fill: #121211;
        stroke: #121211;
      }

      .cls-9 {
        fill: #1d1d1b;
      }

      .cls-7 {
        fill: #c2d22b;
      }
    </style>
  </defs>
  <g id="Capa_1_copia_9" data-name="Capa 1 copia 9">
    <g>
      <path class="cls-5" d="m154.92,259.2c-.24,4.7-.48,9.42-.7,14.16-.46,9.94-.9,19.94-1.3,30"/>
      <path class="cls-8" d="m51.76,250.29c34.08,6.08,68.17,12.17,102.25,18.25-.75,26.17-1.5,52.33-2.25,78.5-18.34,6.13-39.43,12.04-63,16.75-23.53,4.7-45.24,7.35-64.5,8.75,0-16.9,1.52-38.42,7-62.75,5.46-24.23,13.29-44.26,20.5-59.5Z"/>
      <path class="cls-2" d="m23.48,401.78c-1.38,6.8-6.08,33.86,10.28,52.26,2,2.24,4.46,4.54,7.54,6.68,3.74,19.28,6.8,40.64,8.46,63.82,3.46,48.64-.24,91.42-6,126,6.84.16,13.66.34,20.5.5,7.98-30.22,15.68-73.82,12-126-2.28-32.38-8.38-60.24-15-82.5,11.18,1.78,27.26,2.96,46-.5,10.62-1.96,19.68-4.98,27-8,5.22,28.32,9.44,61.82,10.5,99.5,1.06,37.92-1.32,71.8-5,100.5,7,1.26,14,2.5,21,3.74,5.66-23.92,10.4-53.66,10.84-87.9.72-57.16-10.84-104.06-21.68-136,.34-24.26.88-48.92,1.68-73.9"/>
      <path class="cls-2" d="m56.92,255.87c-8.17,19.42-13.7,36.23-17.42,48.92-6.98,23.8-16.84,57.47-6.89,63.32,2,1.18,4.2.84,5.44.65,7.13-1.08,11.27-9.27,20.03-30.55,3.18-7.72,6.86-16.9,10.83-27.33,5.44,3.11,10.89,6.22,16.33,9.33-10.61,28.72-19.37,51.13-24.67,65-1.08,2.82-3.78,9.9-10.67,15-2.17,1.6-8.32,5.45-16,5-13.44-.78-21.56-14.21-24.67-19.33-6.8-11.23-7.87-22.46-8.17-31.67-1.39-43.53,13.46-78.35,14.92-81.67,5.89-13.41,16.41-33.15,35.05-53.4,12.71,10.2,24.57,13.56,31.06,14.84,12.44,2.47,22.78.82,35.39-1.2,10.61-1.69,19.19-4.13,25.03-6.03l4.38-1.56c38.48,32.68,61.12,67.76,68.68,92,5.08,16.38,5.38,34.54,5.64,49.74.04,2.98.04,8.2-2.64,13.94-2.9,6.16-9.38,13.84-16.36,14.84-10.94,1.58-19.86-13.84-40.32-41.84-2.98-4.08-6.42-8.74-10.32-13.9l-2.51-3.29c-7.28-9.16-14.55-18.33-21.83-27.49,5.17-6.39,10.33-12.77,15.5-19.16,19,24.91,38,49.83,57,74.74-.86-9.66-2.9-21.5-7.5-34.4-10.12-28.4-27.26-47.1-38.04-57.02"/>
      <path class="cls-6" d="m139.76,634.04c-5.21,27.08-10.42,54.17-15.62,81.25-.14,1.85,0,3.56.38,5.12,5.01,21.41,52.43,25.68,56.92,26.04,6.06,1.24,11.03-2.81,11.25-6.87.16-2.93-2.13-6.06-5.67-7.54-4.1-1.44-39.41-13.85-41.58-15.67-.71-.59-1.04-1.33-1.04-1.33-.63-1.41-.1-2.89,0-3.21.69-2.17,7.28-32.23,16.38-74.04l-21-3.75Z"/>
      <path class="cls-6" d="m43.76,650.54c-5.2,26.86-10.41,53.73-15.61,80.59-.13,1.85.02,3.55.38,5.12,4.95,21.66,51.82,26.47,56.48,26.91,1.2.24,9.59,1.83,12.12-2.12,1.08-1.68.67-3.69.62-3.88-2.3-10.53-43.83-17.19-47.38-22.25-1.24-1.76-1.54-3.67-1.54-3.67-.26-1.6.04-2.87.12-3.25.61-2.73,6.46-32.84,15.04-76.96-6.75-.16-13.5-.33-20.25-.49Z"/>
      <g>
        <path class="cls-4" d="m221.92,153.54c-9.88,2.24-26.32,4.88-46.42,2.6-1.72,10.16-4.88,23.22-10.62,37.16-6.38,15.5-16.34,29.06-17.08,30.72-.04.12-.28.72-.88,1.18,0,0-.4.34-.96.5-43.12,13.54-64.36,8.18-64.36,8.18-7.12-1.8-18.86-5.78-31.34-15.34-22.88-53.48-26.26-103.1-16.34-133.34,7.7-23.44,21.26-40.4,21.26-40.42,8.94-11.2,18.32-18.8,25.24-23.64.3-.24.64-.6.88-1.1.34-.72.28-1.4.28-1.5-.04-1.32,4.72-16.58,16.56-17.5,12.52-.96,19.32,15.24,19.24,16.38-.02.08-.08.62.22,1.12.26.46.72.66.76.68.84.44,59.3,47.66,59.24,116.66,0,0,0,3.42-.6,9.24,3.52,1.04,7.18,2.02,10.92,2.92,12.3,2.96,23.74,4.64,34,5.5Z"/>
        <path class="cls-4" d="m121.76,120.38c13.8,8.5,32.32,17.94,55.24,24.74"/>
        <path class="cls-4" d="m102.76,125.2c9.72,8.02,29.96,22.56,59.66,28.84,4.5.96,8.88,1.64,13.08,2.1"/>
      </g>
      <path class="cls-9" d="m93.13,167.71c2.99-8,9.67-14.68,18.16-16.49,7.88-1.68,15.29,1.93,19.87,8.34.88,1.23,1.66,2.53,2.35,3.88.23.45.45.91.65,1.38.1.22.07.15.22.56.56,1.49,2.98.84,2.41-.66-2.15-5.68-6.32-11.04-11.7-13.95-8.06-4.37-17.8-2.48-24.83,2.99-4.4,3.43-7.6,8.09-9.55,13.3-.56,1.51,1.85,2.16,2.41.66h0Z"/>
      <path class="cls-9" d="m111.13,161.71c.59-3.96-.15-7.98-2.3-11.39-.86-1.36-3.02-.1-2.16,1.26.99,1.56,1.66,3.27,1.98,5.09.15.82.2,1.67.19,2.5,0,.37-.02.74-.05,1.11-.01.16-.03.33-.05.49,0,.03-.03.27-.01.12.02-.17-.02.15-.02.15-.1.67.17,1.34.87,1.54.59.16,1.44-.2,1.54-.87h0Z"/>
      <path class="cls-9" d="m121.88,160.93c.92-4.19-.05-8.54-3.02-11.71-1.1-1.17-2.87.6-1.77,1.77,1.37,1.45,2.25,3.27,2.55,5.24.12.8.13,1.63.07,2.44-.01.17-.03.34-.05.51-.01.1-.03.27,0,.08-.01.07-.02.14-.03.21-.04.26-.09.53-.15.79-.15.66.2,1.35.87,1.54.63.17,1.39-.21,1.54-.87h0Z"/>
      <path class="cls-3" d="m49.51,116.04c-.19-6.32,4.21-11.14,6.38-13.5,1.84-2.01,7.55-8.25,16.12-8.25,7.77,0,13.02,5.12,16.75,8.75,3.74,3.65,7.27,7.09,7.5,11.62.49,9.68-14.14,21.65-27.88,19.5-9.02-1.41-18.6-9.07-18.88-18.12Z"/>
      <path class="cls-3" d="m132.13,111.67c.64-9.23,11.11-15.35,20-14.12,7.05.97,14.58,6.77,14.88,14.75.32,8.85-8.43,15.95-17,16.12-9.23.19-18.51-7.62-17.88-16.75Z"/>
      <path class="cls-9" d="m56.88,108.79v15.39c0,1.96,1.72,3.84,3.75,3.75s3.75-1.65,3.75-3.75v-15.39c0-1.96-1.72-3.84-3.75-3.75s-3.75,1.65-3.75,3.75h0Z"/>
      <path class="cls-9" d="m140.26,107.79v13.39c0,1.96,1.72,3.84,3.75,3.75s3.75-1.65,3.75-3.75v-13.39c0-1.96-1.72-3.84-3.75-3.75s-3.75,1.65-3.75,3.75h0Z"/>
      <path class="cls-4" d="m127.26,309.2c-5.33-3.66-16.5-11.91-18.67-19.33-.26-.9-1.09-3.72.08-4.67,1.54-1.25,5.75,1.37,5.9,1.08.11-.22-2.78-1.19-4-3.75-.09-.18-1.23-2.65-.08-3.98.94-1.08,2.86-.75,3.51-.64,2.65.46,4.18,2.37,4.38,2.18.38-.36-6.42-6.58-5.21-8.81.94-1.74,6.42-.45,7.25-.25,4.07.96,13.14,4.27,22.33,19-5.17,6.39-10.33,12.77-15.5,19.16Z"/>
      <path class="cls-4" d="m69.13,311.29c1.94-8.25,5.15-18.51,10.12-24.56,1.14-1.39,3.68-4.48,5.46-3.85,1.03.36,1.54,1.88,1.6,2.98.14,2.57-2.12,4.69-2.12,4.69,0,0,.41-.45,1.47-2.2,1.32-2.17,1.4-2.66,2.15-3.18.67-.47,1.95-1.01,2.81-.5,1.22.73.88,3.15.79,3.75-.33,2.27-1.66,3.98-1.61,4.01.03.02.48-.71.62-.94,1.34-2.14,2.45-3.93,3.87-4.08.78-.08,1.42.37,1.61.5,2.69,1.9.83,9.42.33,11.44-1.11,4.5-3.77,12.02-11,20.85-5.38-2.97-10.75-5.94-16.12-8.92Z"/>
      <path class="cls-9" d="m117.64,241.67c.11,5.54.22,11.08.32,16.62.03,1.61,2.53,1.61,2.5,0-.11-5.54-.22-11.08-.32-16.62-.03-1.61-2.53-1.61-2.5,0h0Z"/>
      <path class="cls-9" d="m129.51,244.79c3.22,0,3.22-5,0-5s-3.22,5,0,5h0Z"/>
      <path class="cls-9" d="m130.51,257.54c3.22,0,3.22-5,0-5s-3.22,5,0,5h0Z"/>
      <path class="cls-1" d="m145.51,332.04c-6.44,6.2-16.16,14.14-29.5,20.62-19.22,9.35-36.84,11.25-47.35,11.55-2.38,6.65-4.77,13.3-7.15,19.95,8.89,1.7,25.72,3.7,45.62-1.75,22.69-6.21,37.35-18.79,43.95-25.24.12-5.82.24-11.63.36-17.45-1.98-2.56-3.96-5.12-5.94-7.69Z"/>
      <path class="cls-7" d="m100.17,369.37c-.64.33-1.79,1.04-2.67,2.38-.23.35-1.98,3.07-.92,5.04.96,1.78,4.04,2.63,7.17,1.25,1.53.65,3.78,1.45,6.58,1.88,1.79.27,7.31,1.1,11.83-.92,8.48-3.79,9.58-15.91,9.62-16.5.26-.14,1.76-.99,2.25-2.83.04-.16.53-2.1-.46-3.42-1.19-1.58-4.25-1.93-7.04-.12-1.56-1.34-4.97-3.87-9.92-4.54-1.9-.26-5.34-.73-9.04,1.12-3.92,1.96-5.64,5.29-6.21,6.42-2.29,4.56-1.51,8.89-1.21,10.25Z"/>
    </g>
  </g>
</svg>