<?xml version="1.0" encoding="UTF-8"?>
<svg id="Capa_2" data-name="Capa 2" xmlns="http://www.w3.org/2000/svg" viewBox="0 0 414.1 665.03">
  <defs>
    <style>
      .cls-1 {
        fill: #6d595c;
      }

      .cls-1, .cls-2 {
        stroke-width: 0px;
      }

      .cls-3 {
        fill: #6e4d32;
      }

      .cls-3, .cls-4, .cls-5, .cls-6, .cls-7, .cls-8, .cls-9, .cls-10, .cls-11, .cls-12, .cls-13, .cls-14 {
        stroke-miterlimit: 10;
      }

      .cls-3, .cls-4, .cls-5, .cls-6, .cls-7, .cls-8, .cls-9, .cls-10, .cls-11, .cls-13, .cls-14 {
        stroke: #1d1d1b;
      }

      .cls-3, .cls-4, .cls-5, .cls-6, .cls-7, .cls-8, .cls-9, .cls-11, .cls-12, .cls-13, .cls-14 {
        stroke-width: 2px;
      }

      .cls-4 {
        fill: #0f0f0f;
      }

      .cls-5 {
        fill: #bd1543;
      }

      .cls-6 {
        fill: #29337f;
      }

      .cls-7 {
        fill: none;
      }

      .cls-8 {
        fill: #9f9fa4;
      }

      .cls-9 {
        fill: #4f1a4a;
      }

      .cls-10 {
        fill: #911913;
        stroke-width: 4px;
      }

      .cls-11 {
        fill: #777776;
      }

      .cls-12 {
        fill: #fafdfe;
        stroke: #000;
      }

      .cls-13 {
        fill: #22110c;
      }

      .cls-14 {
        fill: #6d150c;
      }
    </style>
  </defs>
  <g id="Capa_1_copia_16" data-name="Capa 1 copia 16">
    <g>
      <path class="cls-4" d="m148.17,46.04c4.58-6.92,23.92-34.43,60.47-42.75,44.14-10.04,78.2,15.92,84.53,20.75,24.05,18.33,33.63,41.97,40.67,60,22.66,58.03,13.68,117.03,28.67,152.5,1.1,2.62,4.55,10.33,9.67,22.83,10.39,25.38,9,24.87,12.17,29.17,6.92,9.39,17.44,17.07,18.32,25.7.05.53.32,3.11-.86,3.75-2.2,1.2-7.16-5.62-9.62-4.25-1.06.59-1.12,2.3-1.13,2.38-.09,4.05,7.41,5.3,7.75,9.88.01.17.14,2.16-1,3.12-3.34,2.83-14.62-5.71-17.25-7.75,18.15,38.01,21.55,68.69,21.29,89.67-.49,40.06-14.28,45.72-8.29,80.63.49,2.85,7.94,45.63-.21,59.04-.66,1.09-2.57,4.23-5,4.17-4.2-.11-5.35-11.74-7.33-11.67-3.75.14-1.58,41-9.68,42.88-2.72.63-7.08-3.04-14.32-17.04-10.62,24.11-21.86,43.88-31.75,59.35-23.73,37.15-30.99,36.02-32.75,35.49-8.95-2.74-9.62-31.54-11-31.33-.7.1.79,7.31-2.83,9.83-1.72,1.2-4.5,1.26-5.84.01-1.11-1.03-.88-2.62-.99-4.68,0,0-.09-1.7-2.67-9.33-4.41-13.06-34-34-34-34s-6.09-4.31-35.33-33.67c-26.47-26.58-27.45-66.91-32.67-143.67-2.07-30.39-5.49-76.5-11-134.42.09,1.37,1.06,18.26-2.17,24.92-.56,1.15-1.7,3.51-4.08,4.33,0,0-1.71.59-3.75,0-7.21-2.09-7.75-29.75-7.75-29.75-.52-26.42-13-36.07-24.08-69.42-6.59-19.83-25.24-76.26-1.5-125,10.23-20.99,25.46-34.34,35.33-41.67Z"/>
      <line class="cls-7" x1="4.96" y1="237.33" x2="15.43" y2="233.37"/>
      <line class="cls-7" x1="17.42" y1="257.08" x2="25.39" y2="255.87"/>
      <line class="cls-7" x1="58.04" y1="208.45" x2="55.34" y2="218.64"/>
      <line class="cls-7" x1="37.83" y1="201.29" x2="36.25" y2="212.89"/>
      <path class="cls-8" d="m211.17,242.19c-1.9,1.45-4.93,3.82-6.5,7.93-2.48,6.47.39,12.68,2,17.25,6.83,19.33-2.52,27.18,3.5,40.5,2.86,6.33,9.33,14.2,25.5,20,6.14,11.52,12.28,23.03,18.41,34.55,17.06,1.25,23.94-3.47,27.09-7.3,16.27-19.79-14.54-79.68-16.5-83.5-3.81-7.41-9.51-15.19-8.25-24.25.22-1.59.85-4.6-.85-6.92-2.14-2.92-6.64-2.92-11.41-2.83-26.85.47-30.78,2.88-32.99,4.57Z"/>
      <path class="cls-6" d="m242.79,572.28c7.79,6.98,15.59,13.95,23.38,20.93,1.76-1.02,4.67-2.42,8.5-3,4.82-.73,8.73.18,10.83.83-.46-3.76-1.76-10.23-6-17-5.76-9.19-13.62-13.61-17.17-15.33,8.38-14.83,10.35-27.32,10.83-34.83.32-5.08.66-10.42-1.33-11.17-3.91-1.47-14.38,15.55-20.29,29.04-5.2,11.88-7.58,22.63-8.75,30.53Z"/>
      <path class="cls-6" d="m339.17,368.12c10.03-.92,21.38,19.27,21.25,37.25-.08,11.26-4.7,26.52-11.84,27.38-11.22,1.35-23.45-33.44-25.54-39.52.77-3.1,6.25-24.2,16.13-25.11Z"/>
      <path class="cls-8" d="m294.38,298.37c.39,7.48,2.17,22.01,11.29,37.25,11.54,19.3,27.98,28.27,34.75,31.5-1.26,12.83-8.31,23.58-17.38,26.11-12.73,3.55-31.65-8.49-34.54-31.03,1.96-21.28,3.92-42.56,5.88-63.83Z"/>
      <path class="cls-10" d="m254.67,345.62c.33,4.63,2.69,48.56-32.75,78.75-38.27,32.6-85.47,19.24-88.75,18.25,6.38,20.32,18.95,51.62,44.25,83.5,22.7,28.6,47.09,46.88,64.25,57.75.21-6.58,2.16-46.35,35.75-75.5,36.03-31.26,79.28-24.97,85.25-24-1.7-15.71-6.51-40-21.25-65.5-27.62-47.76-71.33-67.22-86.75-73.25Z"/>
      <path class="cls-11" d="m282.64,478.71l-37.55,35.37c-1.43,1.34-3.69,1.28-5.04-.15-1.34-1.43-1.28-3.69.15-5.04l37.55-35.37c1.43-1.34,3.69-1.28,5.04.15,1.34,1.43,1.28,3.69-.15,5.04Z"/>
      <path class="cls-12" d="m167.5,93.37c8.59,9.59,21.36,21.84,39,33,16.59,10.49,32.14,16.64,44,20.33.03,6.66-.65,16.86-4.67,28.33-4.18,11.92-8.59,15.58-10.67,24-1.95,7.91-1.89,20.18,9,38-.46,24.93-5.86,41.91-14,43.33-4.48.78-8.89-3.3-10-4.33-7.84-7.27-4.18-16.67-8.67-32.67-1.75-6.25-4.61-16.44-12.67-24.33-9.01-8.83-14.96-5.43-30.67-14.33-5.77-3.27-17.58-10.14-26-23.33-8.22-12.88-9.66-26.24-9.67-34.67,5.38-2.97,15-9.22,23-20.67,9.28-13.27,11.4-26.42,12-32.67Z"/>
      <rect class="cls-11" x="221.56" y="462.89" width="58.71" height="7.12" rx="3.56" ry="3.56" transform="translate(-251.56 298.95) rotate(-43.29)"/>
      <path class="cls-12" d="m253.93,239.87c-1.35,9.35-1.45,22.83,6.48,33.25,3.88,5.1,10.88,11.03,12.75,9.75.49-.34.54-1.12,0-5.67-.43-3.58-1.33-10.36-1.5-10.33-.31.05,3.08,21.05,4.35,32.21,4.44,39.11-4.6,71.74-15.51,113.46-8.52,32.58-14.67,50.83-14.67,50.83-3.33,9.9-5.63,20.12-8.72,30.1-5.13,16.52-8.21,24.6-4.11,29.23,2.78,3.14,8.23,3.97,12,2.33,5.63-2.45,6.92-10.17,8.5-18.33,2.36-12.25,6.81-24.11,8.33-36.5,2.73-22.16,7.37-24.19,16.17-57.83,7.5-28.68,9.83-49.03,13.67-82.5,5.07-44.27,2.88-54.42-2.33-63.33-9.13-15.6-24.92-23.05-35.4-26.67Z"/>
      <path class="cls-14" d="m224.75,419.61c-.62.92-1.32,1.84-2.08,2.76-3.7,4.44-7.9,7.34-11.42,9.24-10.46-11.06-20.9-22.12-31.34-33.18-7.06-7.46-14.1-14.92-21.14-22.38-5.64-5.96-11.28-11.92-16.92-17.9-.2-.2-.38-.42-.58-.62-2.5-2.64-5-5.28-7.48-7.92-8.48-8.96-16.96-17.94-25.44-26.92,2.16-.28,3.94-1.64,4.7-3.56,1.12-2.88-.4-6.3-1.88-6.52-1.96-.26-3.36,5.18-5.78,6.96-1.58-1.68-3.18-3.36-4.76-5.06.88-1.78,3.04-3.5,4.16-7.14.3-.98,1.82-5.9-.5-8.38-2.28-2.44-7.66-1.84-10.88.5-1.36,1-2.42,2.38-3.18,4.02-11.86-12.54-23.7-25.1-35.56-37.64-9.5-2.74-19-5.5-28.5-8.26-5.5-12.4-11-24.82-16.5-37.24,3.58-4.08,7.16-8.16,10.74-12.24,13.84,4.16,27.68,8.32,41.52,12.48,1.4,10.7,2.82,21.4,4.24,32.1,35.5,37.38,71,74.74,106.5,112.1,5.82,6.12,11.64,12.24,17.46,18.36,11.54,12.16,23.08,24.3,34.62,36.44Z"/>
      <path class="cls-14" d="m104.79,307.37c-1.12,3.64-3.28,5.36-4.16,7.14-3.48-3.66-6.94-7.32-10.4-11,.76-1.64,1.82-3.02,3.18-4.02,3.22-2.34,8.6-2.94,10.88-.5,2.32,2.48.8,7.4.5,8.38Z"/>
      <path class="cls-14" d="m113.05,319.13c-.76,1.92-2.54,3.28-4.7,3.56-.98-1.04-1.96-2.08-2.96-3.12,2.42-1.78,3.82-7.22,5.78-6.96,1.48.22,3,3.64,1.88,6.52Z"/>
      <path class="cls-13" d="m73.17,250.12c-.67-9.58-1.33-19.17-2-28.75-3.08-.25-6.17-.5-9.25-.75,1.33,10.42,2.67,20.83,4,31.25,53.17,56.11,106.33,112.22,159.5,168.33,1.89-2.47,3.78-4.94,5.67-7.42-52.64-54.22-105.28-108.44-157.92-162.67Z"/>
      <path class="cls-12" d="m158.77,376.05c7.04,7.46,14.08,14.92,21.14,22.38-2.3,1.96-4.86,3.32-7.74,3.94-12.56,2.7-25.08-9.96-35.76-20.76-17.88-18.08-26.32-38.12-30.48-51.36-1.7-.26-9.7-1.66-14.14-8.64-3.44-5.4-3.98-12.96-1.56-18.1.76-1.64,1.82-3.02,3.18-4.02,3.22-2.34,8.6-2.94,10.88-.5,2.32,2.48.8,7.4.5,8.38-1.12,3.64-3.28,5.36-4.16,7.14-.36.7-.52,1.4-.34,2.24.36,1.66,1.94,3.32,3.5,3.38.58.02,1.1-.2,1.6-.56,2.42-1.78,3.82-7.22,5.78-6.96,1.48.22,3,3.64,1.88,6.52-.76,1.92-2.54,3.28-4.7,3.56h-.02c8.48,8.96,16.96,17.94,25.46,26.92,2.48,2.64,4.98,5.28,7.48,7.92.2.2.38.42.58.62,5.6,6,11.22,11.98,16.82,17.98.04-.02.06-.06.1-.08Z"/>
      <path class="cls-12" d="m210.17,307.87c-1.16,11.92-3.78,28.94-10.24,48.5-3.32,10.08-6.38,19.3-9.8,26.8-5.82-6.12-11.64-12.24-17.46-18.36.04-.03,3.28-2.65,3.32-2.68,1.63-1.32,3.32-2.68,3.32-2.68,10.25-8.28,12.2-51.79,12.2-51.79.55-12.31,3.04-30.08,12.2-51.79,6.34,15.8,6.6,24.83,5.41,30.25-.28,1.27-1.26,5.21-1.06,10.55.18,4.76,1.23,8.63,2.11,11.2Z"/>
      <path class="cls-6" d="m312.87,488.46c-1.82,7.39-3.75,17.42-4.45,29.41-1.06,18-1.67,28.3,3.5,31.25,8.58,4.9,32.03-9.97,38.25-31,2.32-7.85,1.78-14.99.87-19.93-1.99,1.16-5.22,2.7-9.46,3.43-3.75.64-6.93.41-9.08.08-.81,2.81-1.61,5.61-2.42,8.42-.58,1.97-1.17,3.94-1.75,5.92,2.75-10.78,5.5-21.57,8.25-32.35"/>
      <path class="cls-5" d="m266.17,593.2c19.72,11.28,39.44,22.56,59.17,33.83-1.32,20.9.92,26.47,3.5,27.21,1.87.54,4.17-1.41,4.46-1.67,3.04-2.64,2.93-7.08,2.88-12.54-.04-4.04-.08-10.39,0-19,4.33.84,5.73.25,6.17-.5,2.63-4.48-22.01-26.77-51.17-40.25-4.34-2.01-8.03-3.47-10.6-4.44.25,2.18.75,4.88,1.76,7.85.86,2.52,1.88,4.63,2.83,6.33-2.42-.38-6.12-.67-10.5.17-3.65.7-6.52,1.95-8.5,3Z"/>
      <path class="cls-5" d="m333.92,494.12c3.05-1.88,8.62-5.5,14.87-10.9,26.29-22.72,37.01-53.1,48.88-52.48,1.11.06,4.88.26,5.62,2.25.75,2.01-2.01,4.66-2.5,5.12,1.89.7,4.48,1.97,6.75,4.38,3.33,3.52,3.93,7.6,5.13,15.75.84,5.69.45,7.99-1,9.5-.15.16-1.43,1.45-2.88,1.5-5.22.18-9.38-15.71-9.62-16.63-16.42,22.12-32.85,44.25-49.27,66.37-.58-6.32-1.15-12.64-1.73-18.96-1.75.69-4.28,1.45-7.39,1.71-3.42.28-6.27-.17-8.2-.62.44-2.33.89-4.67,1.33-7Z"/>
      <circle class="cls-2" cx="152.92" cy="153.45" r="4.42"/>
      <path class="cls-2" d="m214.58,142.95c0,2.44-1.98,4.42-4.42,4.42s-4.42-1.98-4.42-4.42,1.98-4.42,4.42-4.42,4.42,1.98,4.42,4.42Z"/>
      <path class="cls-9" d="m182.03,161.54c6.1.21,8.8-9.01,13.26-8.17,2.79.52,4.88,4.73,4.75,8.12-.27,7.16-10.49,13.8-19.37,12.75-7.12-.84-14.48-6.75-13.75-11.38.39-2.44,3.07-4.74,5.76-5.1,4.03-.55,5.3,3.63,9.36,3.77Z"/>
      <path class="cls-1" d="m229.75,218.41c0,1.22-.99,2.21-2.21,2.21s-2.21-.99-2.21-2.21.99-2.21,2.21-2.21,2.21.99,2.21,2.21Z"/>
      <circle class="cls-1" cx="232.67" cy="230.37" r="2.21"/>
      <circle class="cls-11" cx="292.17" cy="457.66" r="2.21"/>
      <circle class="cls-11" cx="296.59" cy="431.62" r="2.21"/>
      <path class="cls-11" d="m205.32,441.23h51.59c1.97,0,3.56,1.6,3.56,3.56h0c0,1.97-1.6,3.56-3.56,3.56h-51.59c-1.97,0-3.56-1.6-3.56-3.56h0c0-1.97,1.6-3.56,3.56-3.56Z" transform="translate(-242.1 279.48) rotate(-43.29)"/>
      <path class="cls-7" d="m265.92,154.37c16.1,50.29,28.13,81.85,32.75,80.75,3.48-.83,2.24-20.13,4.5-20.25,2.37-.12,4.34,21.06,7,21,1.97-.04,3.46-11.71,4-19.75,1.18-17.47-.27-45.38-14.5-86.5"/>
      <line class="cls-7" x1="50.67" y1="232.37" x2="49.67" y2="259.37"/>
      <line class="cls-7" x1="34.5" y1="247.87" x2="59.5" y2="250.2"/>
      <ellipse class="cls-3" cx="37.83" cy="201.29" rx="4.67" ry="3.92"/>
      <ellipse class="cls-3" cx="57.42" cy="208.45" rx="3.75" ry="3.25"/>
      <circle class="cls-3" cx="16.87" cy="257.08" r="3.71"/>
      <circle class="cls-3" cx="4.96" cy="237.33" r="3.96"/>
    </g>
  </g>
</svg>