<?xml version="1.0" encoding="UTF-8"?>
<svg id="Capa_2" data-name="Capa 2" xmlns="http://www.w3.org/2000/svg" viewBox="0 0 295.72 345.5">
  <defs>
    <style>
      .cls-1 {
        stroke-width: 4px;
      }

      .cls-1, .cls-2, .cls-3, .cls-4, .cls-5, .cls-6 {
        stroke: #1d1d1b;
        stroke-miterlimit: 10;
      }

      .cls-1, .cls-7, .cls-3, .cls-5 {
        fill: #fff;
      }

      .cls-2 {
        fill: #3d5986;
      }

      .cls-2, .cls-3, .cls-4, .cls-6 {
        stroke-width: 2px;
      }

      .cls-7, .cls-8 {
        stroke-width: 0px;
      }

      .cls-4 {
        fill: #d41b28;
      }

      .cls-6 {
        fill: #eaeaea;
      }

      .cls-8 {
        fill: #1d1d1b;
      }
    </style>
  </defs>
  <g id="Capa_1_copia_17" data-name="Capa 1 copia 17">
    <g>
      <g>
        <path class="cls-2" d="m270.28,214.22c-13.84,19.92-31.8,35.46-49.08,45.02-24.36,13.5-51.02,17.14-59.32,18.1-10.06,1.14-34.36,3.9-55.52-2.9,8.92,1.9,18.18,2.9,27.68,2.9,51.18,0,95.6-28.96,117.78-71.38l18.46,8.26Z"/>
        <path class="cls-6" d="m294.72,139.16c.02,28.62-9.96,54.24-24.44,75.06l-18.46-8.26c-22.18,42.42-66.6,71.38-117.78,71.38-9.5,0-18.76-1-27.68-2.9-36.24-11.64-55.78-48.96-66.16-81.48-8.8-27.56-10.98-51.68-11.16-53.8-4.68-57.58,19.12-93.74,27-100.82,4.66-4.22,9.76-7.76,10.38-8.2.02-.02.04-.04.06-.04,2.06-1.4,7.44-4.98,19.72-10.6,3.26-1.5,12.6-5.74,22-8.92,22.74-7.68,46.88-9.5,53.68-9.58,40.46-.52,132.8,51,132.84,138.16Z"/>
        <g>
          <path class="cls-2" d="m251.82,205.96c-22.18,42.42-66.6,71.38-117.78,71.38-9.5,0-18.76-1-27.68-2.9-44.68-9.46-81.04-41.38-96.76-83.36,10.2.62,20.4,1.26,30.6,1.88,70.54,4.34,141.08,8.66,211.62,13Z"/>
          <path class="cls-3" d="m266.86,144.5c0,22.18-5.44,43.08-15.04,61.46-80.74-4.96-161.48-9.92-242.22-14.88-5.44-14.5-8.4-30.2-8.4-46.58C1.2,71.14,60.68,11.66,134.04,11.66s132.82,59.48,132.82,132.84Z"/>
        </g>
      </g>
      <path class="cls-4" d="m67.7,28.84c3.74,4.65,7.5,7.55,10.17,9.3,3.73,2.45,6.74,4.37,9.17,3.28,1.21-.54,2.38-1.86,3.67-8.42.74-3.76,1.46-8.97,1.42-15.33-8.14,3.72-16.28,7.44-24.42,11.17Z"/>
      <path class="cls-3" d="m100.76,208.11c-.76,2.31-.33,4.4,0,5.73,2.41,9.87,8.53,18.61,13.69,24.67,3.45-4.65,9.36-13.36,12.08-22.83.79-2.73,1.35-5.67.17-8.75-1.67-4.35-5.76-6.23-6.39-6.5-7.25-3.19-17.43,1.28-19.55,7.69Z"/>
      <circle class="cls-1" cx="65.87" cy="141.34" r="5.67"/>
      <path class="cls-1" d="m173.22,141.34c0,3.13-2.54,5.67-5.67,5.67s-5.67-2.54-5.67-5.67,2.54-5.67,5.67-5.67,5.67,2.54,5.67,5.67Z"/>
      <g>
        <path class="cls-7" d="m101.2,142.75c.23.43,4.11,7.27,12,7.75,5.63.34,11.03-2.68,13.81-7.75"/>
        <path class="cls-8" d="m99.05,144.02c2.22,4.04,6.4,7.32,10.85,8.48,7.56,1.98,15.49-1.77,19.28-8.48,1.59-2.8-2.73-5.33-4.32-2.52-2.83,5-8.68,7.76-14.28,5.99-2.19-.69-3.84-1.91-5.34-3.5-.32-.34-.62-.69-.92-1.06-.33-.4.25.36-.06-.07-.09-.13-.19-.26-.28-.39-.22-.32-.43-.64-.61-.97-1.55-2.82-5.87-.3-4.32,2.52h0Z"/>
      </g>
      <path class="cls-4" d="m99.83,182.63c4.82-.13,8.04,7.6,8.34,8.34.94,2.34,3.14,7.79,0,12.43-2,2.96-6.14,5.55-9.34,4.49-6.32-2.09-8.49-18.32-2.62-23.62.43-.39,1.78-1.57,3.62-1.62Z"/>
      <path class="cls-4" d="m130.17,182.63c-4.82-.13-8.04,7.6-8.34,8.34-.94,2.34-3.14,7.79,0,12.43,2,2.96,6.14,5.55,9.34,4.49,6.32-2.09,8.49-18.32,2.63-23.62-.43-.39-1.78-1.57-3.62-1.63Z"/>
      <path class="cls-4" d="m121.2,197.13c0,3.61-2.93,6.54-6.54,6.54s-6.54-2.93-6.54-6.54,2.93-6.54,6.54-6.54,6.54,2.93,6.54,6.54Z"/>
      <path class="cls-8" d="m115.77,210.54c0,.95-.77,1.72-1.72,1.72s-1.72-.77-1.72-1.72.77-1.72,1.72-1.72,1.72.77,1.72,1.72Z"/>
      <path class="cls-8" d="m115.77,219.94c0,.95-.77,1.72-1.72,1.72s-1.72-.77-1.72-1.72.77-1.72,1.72-1.72,1.72.77,1.72,1.72Z"/>
      <path class="cls-4" d="m198.57,28.37c7.56-2.38,15.12-4.75,22.68-7.13,8.79,6.52,17.57,13.05,26.36,19.57-4.71,1.46-12.05,4-20.57,8.19-15.21,7.46-21.1,13.72-26,11.17-5.43-2.83-5.24-14.04-5.17-18.25.1-5.88,1.54-10.58,2.7-13.55Z"/>
      <path class="cls-4" d="m255.04,87.84c-11.19,8.37-15.54,17.37-17.33,22.17-2.04,5.45-1.5,7.44-1.08,8.42,2.4,5.59,13.58,7.39,28.56,4.81,8.31-5.09,16.63-10.18,24.94-15.27-3.54-9.03-7.08-18.06-10.62-27.08-8.15,2.32-16.31,4.64-24.46,6.96Z"/>
      <path class="cls-4" d="m266.58,158c-4.47,1.33-9.82,3.02-15.46,5.04-1.39.5-3.43,1.26-4.17,3.09-.78,1.93.24,4.15,1.56,6.26,4.36,6.97,11.04,11.09,12.31,11.85,4.79,2.89,11.93,6.59,21.4,9.44,2.96-8.96,5.91-17.91,8.87-26.87-8.17-2.94-16.34-5.88-24.51-8.82Z"/>
      <path class="cls-4" d="m1.37,156c2.36,1.03,18.29,8.03,23.05,12.06,1.84,1.56,2.05,2.7,2.03,3.36-.06,1.83-2.01,3.11-2.67,3.5-5.55,3-11.09,5.99-16.64,8.99-1.93-9.3-3.85-18.6-5.78-27.9Z"/>
      <path class="cls-4" d="m9.84,97.29c4.1,3.49,11.48,9.95,17.28,16.22,1.14,1.23,3.15,3.46,2.58,5.58-.49,1.83-2.69,2.83-5.08,3.58-3.38,1.06-10.29,2.6-21.85,1.38,2.36-8.92,4.71-17.84,7.07-26.76Z"/>
      <path class="cls-4" d="m42.51,48.24c7.73,8.73,10.58,17.63,7.44,21.77-1.79,2.36-5.25,2.79-8.25,3.17-8.03,1-14.43-2.03-17.32-3.66,6.04-7.09,12.09-14.19,18.13-21.28Z"/>
      <path class="cls-2" d="m157.2,277.85c9.31,8.91,19.1,19.05,29,30.53,9.14,10.59,17.17,20.91,24.2,30.68,2.74-5.25,5.48-10.5,8.22-15.75-14.39-16.02-28.78-32.05-43.16-48.07-6.09.87-12.17,1.74-18.26,2.61Z"/>
      <path class="cls-4" d="m243.64,244.19c.42-4.1,3.74-8.48,7.19-8.38,4.07.13,7.35,6.5,6.63,11.69-.46,3.25-2.68,7.43-5.81,7.75-4,.41-8.56-5.56-8-11.06Z"/>
      <path class="cls-4" d="m63.62,228.88c-1.19-2-.93-4.08-.42-8.12.5-3.93.74-5.9,2.25-7.25,3.16-2.84,10.4-1.74,13.17,2.42,1.99,3,1.06,6.72.29,9.79-.68,2.7-1.22,4.87-3.13,6.2-3.55,2.47-9.92.75-12.16-3.03Z"/>
      <path class="cls-3" d="m235.72,249.45c1.98-4.47,7.64-5.23,7.92-5.26.42,1.48,1.2,3.56,2.69,5.75,1.82,2.68,3.91,4.36,5.31,5.31-3.35,2.42-6.71,4.83-10.06,7.25-5.54-2.74-7.76-8.76-5.86-13.05Z"/>
      <path class="cls-3" d="m59.31,233.36c.42-2.45,2.62-4.05,3.81-4.77.9.87,2.68,2.34,5.33,3.17,3.76,1.17,6.96.31,8.17-.08.82,5.52-2.23,10.36-6.17,11.4-5.58,1.48-11.97-4.89-11.15-9.71Z"/>
      <path class="cls-2" d="m26.37,217.34c3.03,11.87,11.82,19.92,21,20.17,5.39.14,9.65-2.44,11.94-4.14.79,1.59,2.04,3.57,4.06,5.31,3.75,3.23,7.05,2.97,7.17,4,.3,2.6-19.24,15.64-34.5,5.5-9.43-6.27-13.62-19-9.67-30.83Z"/>
      <path class="cls-2" d="m217.87,228.84c.54,2.57,2.26,8.97,8,14.33,3.64,3.41,7.46,5.04,9.83,5.83.03,1.59.3,4.31,1.67,7.33,1.4,3.08,3.31,5.09,4.5,6.17-3.11,1.27-6.99,2.21-11.33,1.83-10.6-.92-20.01-9.32-24.83-21.33"/>
      <circle class="cls-5" cx="63.2" cy="233.75" r=".91"/>
      <circle class="cls-5" cx="240.96" cy="249.3" r=".91"/>
      <path class="cls-2" d="m83.83,267.52c-12.71,10.43-18.45,26.32-14.59,40.48,3.31,12.15,12.54,18.8,15.64,20.84,4.94-1.28,9.89-2.56,14.83-3.83-.81-.38-15.11-7.36-16.83-22.83-1.33-11.93,5.38-23.78,16.8-29.33-5.28-1.78-10.56-3.55-15.84-5.33Z"/>
      <path class="cls-4" d="m83.2,328.5c-5.57,2.03-10.34,3.77-10.5,6.62-.18,3.24,5.67,6.39,10.25,7.25,5.9,1.1,13.35-.89,17-6.62.21-.32,3.84-6.17,1.62-9.12-2.84-3.78-13.16-.02-18.37,1.88Z"/>
      <path class="cls-4" d="m210.52,339.57c-.29-1.01-.41-2.42.69-5.44.59-1.63,3.15-8.16,10.87-13.62,2.77-1.96,4.31-3.01,5.88-2.5,2.64.87,3.78,5.68,3.25,9.38-.38,2.65-3.05,5.74-8.38,11.81-3.89,4.44-5.04,5.34-6.62,5.31-2.51-.04-4.96-2.39-5.69-4.94Z"/>
    </g>
  </g>
</svg>