<?xml version="1.0" encoding="UTF-8"?>
<svg id="Capa_2" data-name="Capa 2" xmlns="http://www.w3.org/2000/svg" viewBox="0 0 507.68 647.87">
  <defs>
    <style>
      .cls-1 {
        fill: #f0f0e2;
      }

      .cls-1, .cls-2, .cls-3, .cls-4 {
        stroke: #1d1d1b;
        stroke-miterlimit: 10;
        stroke-width: 2px;
      }

      .cls-2 {
        fill: #7bb564;
      }

      .cls-5 {
        fill: #3b2726;
      }

      .cls-5, .cls-6, .cls-7, .cls-8 {
        stroke-width: 0px;
      }

      .cls-3 {
        fill: #ed6d7a;
      }

      .cls-6 {
        fill: #bc6922;
      }

      .cls-7 {
        fill: #1d1d1b;
      }

      .cls-4 {
        fill: #884522;
      }

      .cls-8 {
        fill: #f2ba8a;
      }
    </style>
  </defs>
  <g id="Capa_1_copia_4" data-name="Capa 1 copia 4">
    <g>
      <g>
        <path class="cls-6" d="m161.94,30.26c7.16-5.24,18.22-12.05,33-16.67,18.35-5.74,34.28-5.54,43.98-4.66,5.35,12.15,13.71,26.21,25.25,26.93,1.76.11,2.02-.32,4.39-.39,19.78-.52,31.12,12.02,51,23,21.95,12.13,24.29,5.81,48,16.5,12.09,5.45,52.57,23.7,72,66,5.82,12.66,15.55,33.85,10.5,56.5-1.24,5.54-3.36,11.19-3.82,20.7-.84,17.58,4.87,30.79,6.47,34.85,7.97,20.31,4.86,45.99-.15,87.45-7.19,59.52-11.37,104.82-43.11,140.53-7.3,8.21-16.37,16.32-22.92,22.17-29.71,26.55-42.55,28.08-61,44.42-2.67,2.36-6.19,5.68-11.96,7.46-7.67,2.37-10.74-.61-19.04,1.96-2.98.92-1.08.84-12.58,6.42-3.63,1.76-7.83,3.71-13.33,5.42-3.23,1-4.94,1.31-5.58,1.42-4.44.75-8.16.47-10.78.13-13.29-1.76-24.71-8.85-41.2-9.41-21.85-.74-22.41,6.96-44,6-20.07-.89-34.84-8.22-47.5-14.5-10.19-5.06-32.93-15.27-39.84-27.67-.73-1.31-3.13-5.95-7.91-10.83-3.32-3.39-6.16-5.23-9.14-7.24-3.92-2.64-14.76-9.99-24.05-18.15-8.57-7.53-10.77-11.31-11.67-13-.68-1.28-.7-1.51-4.33-12.67-4.84-14.86-5.37-16.18-6.67-18.33-2.77-4.61-4.3-5.18-4.67-8.33-.51-4.39,2.11-6.2,2.33-11.67.14-3.47-.82-5.09-2-9.33-2.23-7.96-1.09-10.29-2.33-17.67-2.31-13.75-7.57-13.52-8-23-.38-8.36,3.65-9.88,6.33-21.33,2.53-10.82.43-15.84.33-27-.05-6.3,2.63-17.51,8-39.67,6.76-27.89,10.22-41.96,14-48,6.4-10.21,11.79-13.5,12.33-22.67.5-8.54-3.79-12.15-4.67-24-.49-6.58.37-11.8,2.33-20.33,5.42-23.59,8.12-35.39,14.75-50.08,6.08-13.48,19.87-43.08,51.75-66.25,19.44-14.12,39.34-21.31,55.5-25Z"/>
        <path class="cls-7" d="m162.57,31.34c22.02-16.03,49.22-23.55,76.35-21.15l-1.08-.62c4.68,10.52,12.08,25.51,24.93,27.4,2.98.44,5.99-.34,9-.2,3.87.18,7.68.95,11.34,2.2,6.95,2.37,13.18,6.41,19.3,10.38,11.65,7.57,23.52,15.41,37.26,18.51,4.83,1.09,9.71,1.9,14.46,3.33,5.36,1.61,10.51,3.8,15.59,6.14,18.18,8.37,35.13,19.61,48.74,34.39,9.51,10.33,16.59,22.07,22.27,34.86,6.34,14.29,11.04,29.83,8.99,45.62-.87,6.72-3.24,13.12-4.16,19.84-1.05,7.68-.79,15.49.55,23.12,1.74,9.94,6.44,18.84,8.46,28.66,2.42,11.8,1.98,24.08,1.1,36.03-1.19,16.2-3.36,32.32-5.3,48.45-3.47,28.97-6.4,58.63-15.9,86.39-4.17,12.19-9.8,23.88-17.2,34.45-8.92,12.74-20.48,23.25-32.04,33.54-10.49,9.33-21.63,17.72-33.53,25.15-8.41,5.25-16.88,10.33-24.5,16.7-5.54,4.64-10.66,9.56-18.29,10.2-5.43.46-10.66-.64-15.91,1.51-2.73,1.12-5.25,2.91-7.88,4.24-6.73,3.41-13.69,6.71-21.11,8.33-13.93,3.04-27.37-4.54-40.65-7.47-7.48-1.65-15.29-2.14-22.91-1.21-5.11.63-9.9,2.23-14.82,3.63-26.94,7.67-53.92-6.09-77.24-18.22-10.63-5.53-22.17-11.88-28.28-22.6-3.43-6.01-8.11-11.17-13.74-15.18-4.94-3.51-10.02-6.81-14.89-10.43-6.56-4.88-13.1-10.04-18.69-16.04-1.93-2.07-3.9-4.33-5.08-6.95-1.59-3.54-2.65-7.93-3.89-11.74-1.66-5.11-3.19-10.31-5.19-15.31-1.22-3.06-3.21-5.5-4.99-8.26-1.63-2.54-1.23-5.15-.27-7.87,1.05-2.96,1.78-5.89,1.38-9.06-.43-3.42-1.92-6.66-2.65-10.02-.68-3.16-.75-6.34-.99-9.55-.45-6.14-1.82-12.16-4.84-17.56-2.46-4.41-4.3-8.33-3.65-13.58s4.23-10.48,5.69-15.82c1.95-7.12,1.85-13.99,1.27-21.27-.4-4.97-.56-9.79.23-14.72,2.2-13.78,6.04-27.37,9.34-40.9,2.76-11.32,5.16-22.99,9.27-33.92,3.72-9.89,13.81-16.79,14.99-27.61.63-5.76-1.44-10.76-2.96-16.18-2.02-7.18-2.13-14.55-.82-21.86,1.43-7.96,3.46-15.86,5.37-23.72,1.51-6.25,3.12-12.49,5.11-18.6,3.06-9.42,7.16-18.52,11.75-27.28,13.5-25.73,33.57-47.57,58.92-62,12.96-7.37,26.97-12.68,41.48-16.03,1.57-.36.9-2.77-.66-2.41-30.99,7.16-59.38,23.56-80.37,47.56-14.51,16.6-25.78,36.66-32.89,57.53-4.73,13.9-8.09,28.57-10.88,42.97-1.34,6.89-1.69,13.8-.34,20.72,1.11,5.7,3.99,11.1,3.92,16.99-.08,7.27-4.49,12.26-8.57,17.81-2.67,3.65-4.9,7.23-6.48,11.44-4.23,11.25-6.68,23.26-9.51,34.91-3.29,13.5-7.2,27.09-9.24,40.86-.74,4.98-.54,9.85-.14,14.87.62,7.7.54,14.94-1.87,22.38-1.64,5.06-4.82,9.64-5.2,15.05-.35,4.95,1.15,8.99,3.56,13.19,3.37,5.85,4.73,12.19,5.1,18.9.17,3.02.4,5.99,1.08,8.95.79,3.49,2.51,6.96,2.58,10.57.1,5.57-4.37,10.66-1.17,16.1,1.71,2.91,3.94,5.34,5.18,8.51,2.15,5.51,3.83,11.23,5.66,16.86,1.12,3.44,1.99,7.14,3.53,10.43,1.2,2.57,3.09,4.83,4.99,6.91,5.29,5.81,11.54,10.78,17.79,15.52,5.01,3.8,10.19,7.34,15.38,10.89,6.2,4.23,10.98,9.6,14.69,16.09,5.95,10.43,17.75,16.89,28.05,22.29,10.9,5.71,22.09,11.53,33.72,15.6,13.52,4.74,29.1,7.28,43.24,3.95,5.01-1.18,9.81-3.09,14.9-3.97,8.01-1.39,16.45-.95,24.36.8,13.5,2.97,26.71,10.24,40.89,7.68,6.62-1.19,12.97-4.01,18.99-6.92,3.71-1.8,7.23-4.03,10.94-5.79,5.06-2.4,10.46-1.02,15.77-1.53,6.66-.64,12.02-4.2,16.9-8.51,7.93-7,16.78-12.51,25.74-18.07,11.37-7.06,22.12-14.9,32.23-23.68,11.9-10.34,23.82-21.05,33.26-33.75,16.08-21.63,23.74-47.74,28.43-73.95,2.7-15.14,4.56-30.41,6.4-45.67,2-16.63,4.23-33.26,5.63-49.95,1.04-12.32,1.67-24.88-.29-37.15-1.55-9.73-6.08-18.43-8.26-27.98-1.85-8.08-2.43-16.51-1.47-24.75.81-6.98,3.27-13.59,4.25-20.53,2.15-15.29-1.79-30.42-7.71-44.43-5.4-12.78-12.02-24.73-21.05-35.32-7.9-9.26-17.17-17.31-27.21-24.17-15.66-10.7-33.47-19.31-52.1-23.06-13.63-2.74-25.21-9.21-36.8-16.73s-25.24-16.96-40.25-15.14c-14.02,1.7-22.24-15.43-26.96-26.05-.18-.41-.67-.58-1.08-.62-27.51-2.43-55.27,5.24-77.61,21.5-1.29.94-.04,3.11,1.26,2.16Z"/>
      </g>
      <path class="cls-4" d="m428.32,457.51c6.96,23.94,12.3,27.2,15.25,27.12,7.19-.17,19.01-20.61,23.12-37.88.65-2.72,1.69-7.84,5.88-10.5,2.38-1.52,5.13-1.76,5.88-1.82,1.28-.1,4.34-.3,7.39,1.51.43.26,1.88,1.12,2.85,2.44,2.74,3.73.58,9.74-.12,11.75-4.78,13.74-21.48,61.76-46,58.5-16.13-2.15-25.44-25.12-27.58-30.75,4.44-6.79,8.88-13.59,13.33-20.38Z"/>
      <g>
        <path class="cls-8" d="m223.94,11.26c26.15-6.96,37.92,4.43,74-5.5,10.32-2.84,12.31-4.33,19-4.5,19.78-.52,31.12,12.02,51,23,21.95,12.13,24.29,5.81,48,16.5,12.09,5.45,52.57,23.7,72,66,5.82,12.66,15.55,33.85,10.5,56.5-1.24,5.54-3.36,11.19-3.82,20.7-.84,17.58,4.87,30.79,6.47,34.85,9.41,23.97,4.3,57.86-.15,87.45-7.04,46.78-26.03,77.52-64,139-26.2,42.41-44.68,62.64-65,67.5-4.31,1.03-15.13,2.91-30,8.5-19.99,7.52-20.15,11.55-31,14-19.65,4.43-24.42-7.58-51.5-8.5-21.85-.74-22.41,6.96-44,6-20.07-.89-34.84-8.22-47.5-14.5-10.19-5.06-32.93-15.27-39.84-27.67-.73-1.31-3.13-5.95-7.91-10.83-3.92-4-7.38-6.06-9.14-7.24-14.85-9.93-20.94-32.18-22.31-37.16-1.95-7.12-1.66-10.17-4.8-18.6-3.43-9.21-4.87-8.52-5.88-13.85-1.28-6.7.98-7.87,1.61-24.18.1-2.63.17-5.97-.23-10.22-.48-5.03-1.37-8.69-1.52-9.31-4.91-21.2,2.52-57.44,2.52-57.44,13.02-63.57,25.32-68.91,27-107.5,1.29-29.65-5.46-38.11,3.5-53.5,11.91-20.45,29.86-15.86,45-38,14.24-20.83,3.11-31.86,17-54.5,16.84-27.44,48.61-36.36,51-37Z"/>
        <path class="cls-7" d="m224.27,12.47c11.72-3.06,23.14-2.18,35.06-1.45,14.82.9,29.12-1.03,43.33-5.31,5.68-1.71,10.86-3.38,16.88-3.18,7.84.26,15.11,2.99,21.88,6.81,13.6,7.67,25.85,17.9,40.91,22.76,4.78,1.54,9.73,2.29,14.61,3.41,6.59,1.51,12.89,3.87,19.05,6.65,7.18,3.24,14.2,6.83,20.91,10.96,10.43,6.42,20.12,14.04,28.56,22.92,10.07,10.59,17.59,22.72,23.51,36.03,6.68,14.99,11.61,31.43,8.82,47.97-1.14,6.77-3.43,13.22-4.14,20.08-.85,8.18-.24,16.51,1.56,24.53,1.1,4.9,2.74,9.59,4.56,14.26,2.74,7,4.19,14.41,4.86,21.88,1.53,17.3-.54,34.8-2.96,51.92-1.92,13.59-4,27.11-7.83,40.31-3.46,11.95-8.1,23.52-13.49,34.73-6.16,12.82-13.2,25.21-20.45,37.45-9.16,15.47-18.55,30.83-28.18,46.02-8.39,13.24-17.21,26.41-27.71,38.1-6.95,7.74-14.84,15.05-24.37,19.46-3.74,1.73-7.63,2.71-11.63,3.58-6.53,1.43-12.99,3.11-19.34,5.21-7.4,2.44-14.74,5.27-21.63,8.92-3.72,1.97-7.25,4.42-11.17,5.99-4.88,1.95-10.38,2.86-15.62,2.43-4.96-.41-9.62-2.23-14.25-3.92-12.71-4.64-26.48-7-39.96-4.65-5.15.9-10,2.84-15.08,4.01-7.5,1.74-15.4,1.53-22.99.54-14.87-1.94-28.12-8.17-41.43-14.68-11.48-5.61-23.94-11.29-33-20.56-4.02-4.11-6.23-9.47-9.88-13.88-2.56-3.1-5.54-5.83-8.8-8.17-2.49-1.79-5.08-3.35-7.33-5.46-8.51-7.95-13.52-19.31-16.79-30.3-1.46-4.9-2.22-9.93-3.51-14.87-.97-3.73-2.29-7.39-3.87-10.9-.92-2.05-2.15-3.93-3.06-5.97-1.52-3.38-1.56-7.14-1.04-10.74.87-5.98,1.54-11.94,1.7-17.99.18-6.73-.77-13.17-2.11-19.73s-1.49-13.36-1.31-20.03c.63-23.65,5.91-47.15,12.43-69.79,5.38-18.68,13.74-36.76,16.95-56.01,2.07-12.4,2.33-25.1,1.51-37.63-.66-9.98-2.5-20.31,1.96-29.71,2.96-6.24,7.43-11.61,13.12-15.54,5.1-3.52,10.82-6,16.12-9.19,12.36-7.44,22.22-19.74,25-34.1,1.18-6.07,1.16-12.29,2.25-18.37,1.41-7.91,4.78-15.17,9.35-21.74,7.68-11.04,18.49-19.62,30.33-25.84,5.61-2.95,11.56-5.56,17.71-7.2,1.55-.42.89-2.83-.66-2.41-18.98,5.08-37.36,17.3-48.84,33.21-4.6,6.37-8.2,13.52-9.89,21.23-1.36,6.2-1.37,12.57-2.38,18.82-2.54,15.7-13.19,28.2-26.8,35.79-5.38,3-10.99,5.6-15.86,9.43-5.22,4.11-9.39,9.57-12.06,15.65-4.14,9.4-2.58,19.39-1.9,29.3.88,12.84.69,25.91-1.54,38.62-1.53,8.74-4.22,17.16-7.12,25.52-7.72,22.24-14.72,44.75-18.77,68-2.02,11.63-3.42,23.47-3.46,35.29-.02,6.3.39,12.62,1.76,18.78,1.69,7.57,1.95,15.16,1.47,22.88-.53,8.47-3.82,17.75.42,25.76,3.18,6.01,5.61,12.18,7,18.86.96,4.62,1.97,9.18,3.42,13.67,3.61,11.17,9.09,22.78,18.28,30.44,2.32,1.93,4.93,3.41,7.32,5.24,3.67,2.81,6.9,6.22,9.52,10.02,1.38,1.99,2.43,4.17,3.77,6.19,1.68,2.53,3.79,4.75,6.05,6.77,9.63,8.6,21.63,14.06,33.1,19.72,13.46,6.65,27.03,12.55,42.11,14.28,7.35.84,14.9.92,22.15-.71,5.28-1.19,10.32-3.24,15.68-4.13,14.2-2.36,27.86.95,41.11,5.73,9.69,3.5,19.6,4.23,29.28.1,3.98-1.7,7.59-4.16,11.41-6.15,7.5-3.9,15.5-6.87,23.57-9.37,9.74-3.02,20.36-4.04,29.57-8.57,9.64-4.74,17.68-12.37,24.72-20.36,10.46-11.86,19.32-25.11,27.74-38.45,9.72-15.39,19.24-30.94,28.5-46.62,13.63-23.09,26.49-46.94,33.77-72.89,3.86-13.75,5.91-27.87,7.83-42,2.32-16.97,4.25-34.36,2.39-51.47-.78-7.19-2.3-14.22-4.95-20.95-2-5.08-3.68-10.24-4.74-15.6-1.74-8.74-2.01-17.89-.4-26.67,1.31-7.16,3.68-13.95,4.14-21.27.98-15.69-4.14-30.77-10.52-44.87s-13.97-25.51-24.22-36.06c-14.03-14.43-31.17-25.21-49.44-33.43-6.29-2.83-12.73-5.23-19.46-6.75-4.99-1.13-10.04-1.91-14.91-3.54-15.77-5.27-28.24-16.59-42.88-24.01C333.03,2.19,326.03.09,318.69,0c-5.77-.07-10.85,1.52-16.31,3.17-14.68,4.45-29.28,6.26-44.56,5.24-11.63-.77-22.8-1.34-34.21,1.64-1.56.41-.9,2.82.66,2.41Z"/>
      </g>
      <path class="cls-5" d="m274.1,260.14c1.31,14.3-9.07,28.75-23.04,32.09,1.79,1.27,7.81,5.89,10.28,14.56,2.47,8.67-.22,15.76-1.07,17.79.39-1.16,1.72-4.63,5.08-6.15,3.25-1.47,6.49-.16,8.38.42,11.3,3.47,20.05,14.06,21.34,25.8,2.76-3.03,7.15-4.47,11.16-3.67,4.01.8,7.51,3.82,8.89,7.68,1.74-.97,10.69-5.72,21.89-2.66,11.21,3.06,16.49,11.7,17.5,13.42-.49-.61-5.18-6.61-3.03-11.33,1.65-3.61,6.31-5.15,12.07-5.45,4.57-.23,9.18.48,13.71-.14-5.64-.36-9.99-6.09-9.92-11.75.07-5.65,3.79-10.81,8.58-13.82,4.79-3.01,10.51-4.16,16.14-4.65-3.4-4.29-4.35-10.4-2.42-15.52,1.94-5.12,6.7-9.07,12.09-10.02-7.21,3.52-15.27,6.11-23.19,4.8-7.92-1.31-15.45-7.45-16.17-15.44-9.39,5.27-21.5,5.34-30.95.19-1.98-1.08-3.91-2.45-4.96-4.44-1.04-2-.91-4.75.81-6.2-5.73,9.44-17.15,15.09-28.13,13.94-11.26-1.19-20.88-8.79-24.62-19.49"/>
      <path class="cls-3" d="m288.24,294.16c8.37,5.12,22.86,14.21,35.18,32.93,4.66,7.08,7.62,13.44,9.4,17.74-2.02-.15-4.36-.19-6.96.02-3.61.3-6.7,1-9.17,1.75-.77-.9-4.6-5.18-11-5.67-4.58-.35-8.01,1.44-9.3,2.21-.38-2.87-1.87-11.07-8.78-17.88-1.41-1.39-8.71-8.58-19-8.5-1.54.01-2.81.18-3.67.33-.58-2.92-1.44-6.22-2.75-9.75-2.31-6.25-5.27-11.21-7.88-14.88,1.9-2.01,4.95-4.62,9.25-5.83,3.56-1,9.82-1.56,24.68,7.52Z"/>
      <path class="cls-7" d="m478.49,434.77c-.94,2.12-1.87,4.24-2.81,6.36-.26.6-.19,1.37.45,1.71.54.29,1.43.19,1.71-.45.94-2.12,1.87-4.24,2.81-6.36.26-.6.19-1.37-.45-1.71-.54-.29-1.43-.19-1.71.45h0Z"/>
      <path class="cls-7" d="m485.07,436.56c-.81,2.21-1.61,4.42-2.42,6.63-.22.62.25,1.4.87,1.54.71.16,1.3-.21,1.54-.87.81-2.21,1.61-4.42,2.42-6.63.22-.62-.25-1.4-.87-1.54-.71-.16-1.3.21-1.54.87h0Z"/>
      <path class="cls-1" d="m309.61,278.8c1.84-2.62,3.94-2.02,8.33-4.83,3.79-2.43,4.95-4.61,6.67-4.08.99.31,1,1.16,2.58,2.92,2.09,2.32,3.76,2.68,4.49,3.49,3.7,4.12-9.38,27.86-17.32,26.01-4.48-1.05-7.21-11.08-6.25-18.5.36-2.8.91-4.16,1.5-5Z"/>
      <path class="cls-1" d="m326.11,295.17c1.3,6.2,3.93,7.45,4.75,7.75,5.27,1.95,12.26-6.69,16.25-11.62,2.33-2.88,7.02-8.68,5.38-11.12-.94-1.39-3.31-.79-8.25-1-4.86-.2-8.82-1.04-11.5-1.75-.21,2.52-.77,6.01-2.3,9.89-1.32,3.36-2.95,5.98-4.33,7.86Z"/>
      <path class="cls-1" d="m360.73,278.84c-.91,1.72-7.74,15.01-1.65,24.34.7,1.08,3.4,5.21,7.4,5.33,4.49.13,8.01-4.89,9.33-8.42,1.2-3.2.93-6.11.67-7.67-1.65-.29-3.66-.86-5.75-1.95-6.47-3.38-9.15-9.43-10-11.63Z"/>
      <path class="cls-1" d="m272.15,275.17c2.49-4.52,2.67-9.2,2.46-12.38,1.61,2.59,4.28,6.28,8.42,9.79,3.93,3.33,5.68,3.56,6.56,5.71,2.36,5.78-4.53,18.15-13.43,17.71-5.88-.29-11.54-6.2-11.17-10.92.29-3.69,4.19-4.5,7.17-9.92Z"/>
      <path class="cls-7" d="m223.08,317.64c-.66,4.54-.73,9.1-.12,13.65s1.92,8.66,3.54,12.84,3.21,8.55,5.01,12.74c1.52,3.52,3.55,6.98,6.87,9.07,3.06,1.93,6.94,2.49,10.19.7,1.72-.95,3.16-2.6,5.09-3.11.68-.18,1.53-.27,2.19.05.99.48,1.07,1.69,1.17,2.65.84,8.08,2.31,16.73,8.59,22.5,3.03,2.78,6.97,4.69,11.14,4.62s8.42-2.14,11.05-5.51c.98-1.25-.78-3.04-1.77-1.77-2.28,2.92-5.73,4.78-9.47,4.78-3.51,0-6.8-1.66-9.32-4.02-2.79-2.61-4.6-5.99-5.74-9.61-1.25-3.97-1.51-8.02-2.11-12.11-.51-3.5-3.63-5-6.87-3.84-1.76.63-3.12,1.92-4.68,2.9s-3.16,1.3-4.92.96c-3.75-.73-6.32-3.7-8.03-6.93-1.94-3.66-3.24-7.68-4.74-11.53-1.74-4.48-3.54-8.91-4.41-13.66-.89-4.83-.97-9.83-.26-14.69.23-1.57-2.18-2.25-2.41-.66h0Z"/>
      <path class="cls-7" d="m441.91,296.36c-1.72,10.02,2.13,19.9.92,29.91-.51,4.2-2.07,8.53-5.26,11.44-2.87,2.63-7.38,4.11-11.12,2.52s-5.82-5.97-4.26-9.69h-2.41c1.56,6.94.79,14.36-2.08,20.86-1.43,3.24-3.35,6.28-5.74,8.91-2.1,2.31-5.56,5.38-8.99,4.44-3.69-1.02-3.81-5.88-3.82-8.97,0-1.62-2.41-1.6-2.5,0-.97,18.23-9.75,35.68-23.38,47.75-3.83,3.39-8.05,6.31-12.56,8.73-1.42.76-.16,2.92,1.26,2.16,16.65-8.92,29.2-24.82,34.51-42.91,1.5-5.11,2.39-10.4,2.68-15.72h-2.5c.01,3.45.27,7.62,3.11,10.02,3.24,2.74,7.63,1.48,10.74-.79,6.56-4.78,10.69-13.25,12.02-21.1.79-4.67.7-9.41-.34-14.04-.3-1.34-1.98-1.02-2.41,0-1.57,3.74-.09,8.14,2.83,10.78,3.29,2.98,8.05,3.35,12.08,1.73,10.22-4.11,11.48-16.27,10.52-25.8-.66-6.48-2.01-13.06-.89-19.57.27-1.57-2.14-2.25-2.41-.66h0Z"/>
      <path class="cls-7" d="m480.37,270.23c-11.84,7.31-9.44,23.12-9.68,34.89-.28,13.68-2.55,27.3-6.7,40.34-1.99,6.26-4.26,12.64-7.41,18.42-1.28,2.34-2.79,4.6-4.81,6.36-2.23,1.94-4.79,2.67-7.71,2.62s-5.81-.09-8.63,1.14c-2.37,1.03-4.43,2.7-6.12,4.64-3.73,4.31-5.62,9.63-6.86,15.11-1.52,6.71-2.25,14.31-6.5,19.98-3.4,4.54-9.79,8.44-15.47,5.78-.71-.33-1.62-.09-1.84.75-1.96,7.6-5.82,14.64-11.19,20.36-2.68,2.85-5.75,5.59-9.19,7.51-1.76.98-4.14,1.89-6.08.86-1.28-.68-2.5-2.32-1.77-3.79.56-1.11-.57-2.33-1.71-1.71-5.07,2.75-10.14,5.49-15.21,8.24-4.5,2.44-9.14,4.73-13.46,7.5-3.78,2.42-7.33,5.4-9.52,9.39-2.39,4.35-3.06,9.35-3.43,14.22-.66,8.63-.72,21.02-10.69,24.43-3.47,1.19-7.1.34-9.27-2.69-1.61-2.25-2.41-5.03-2.85-7.74-.99-6.06,1.43-12.26,5.8-16.59,1.15-1.14-.59-2.86-1.77-1.77-1.37,1.27-2.59,2.72-3.57,4.32s-1.49,3.37-2.27,5.05-1.92,3.35-3.26,4.71c-.64.65-2.1,2.21-3.16,1.82-.94-.34-1.41-2.05-1.67-2.87-.48-1.55-.75-3.17-.88-4.79-.32-4.23.44-8.56.83-12.76.51-5.63,1.03-11.26,1.54-16.88l-2.46.33c.67,4.29-1.75,8.86-5.78,10.56s-8.79.51-11.61-2.84c-5.31-6.33-2.57-15.05-4.16-22.41-1.17-5.41-3.33-10.6-5.19-15.79-.54-1.5-2.96-.86-2.41.66,1.86,5.19,4.02,10.39,5.19,15.79.94,4.33.19,8.8.76,13.18s1.95,8.71,5.31,11.62c3.72,3.22,9.1,3.95,13.56,1.86,4.98-2.33,7.56-7.98,6.73-13.3-.23-1.49-2.34-.96-2.46.33-.51,5.55-1.01,11.09-1.52,16.64-.42,4.61-1.28,9.37-.76,14,.31,2.78.89,7.09,3.54,8.74,3.03,1.88,6.4-1.94,8.01-4.07,1.39-1.85,2.23-3.84,3.08-5.97.96-2.37,2.49-4.43,4.36-6.16l-1.77-1.77c-4.45,4.41-7.31,10.77-6.7,17.1.53,5.53,2.71,12.38,8.56,14.27,4.29,1.38,8.87-.39,12.11-3.25,3.69-3.26,5.47-7.99,6.28-12.73.89-5.24.72-10.58,1.56-15.83s2.84-9.83,6.84-13.41c4.3-3.85,9.73-6.36,14.76-9.09,6.09-3.3,12.17-6.59,18.25-9.89l-1.71-1.71c-1.42,2.83.24,6.04,2.95,7.36,3.64,1.77,7.71-.43,10.67-2.53,5.99-4.25,11-9.85,14.56-16.28,2.02-3.64,3.57-7.54,4.61-11.57l-1.84.75c5.02,2.35,10.51.86,14.74-2.41,4.79-3.7,7.21-9.1,8.71-14.83,1.6-6.14,2.15-12.71,4.91-18.49,2.24-4.69,5.92-9.3,11.26-10.4,3.21-.66,6.51.3,9.7-.65,2.49-.74,4.65-2.31,6.39-4.22,4.03-4.43,6.27-10.36,8.42-15.86,5.06-12.95,8.21-26.64,9.38-40.49.32-3.82.49-7.65.51-11.48.02-4.13-.23-8.27-.02-12.4.34-6.75,2.31-14.25,8.43-18.04,1.37-.84.11-3.01-1.26-2.16h0Z"/>
      <path class="cls-7" d="m203.08,338.92c3.22,6.54,8.19,12.11,14.27,16.13,1.35.89,2.6-1.27,1.26-2.16-5.73-3.79-10.33-9.08-13.37-15.24-.71-1.44-2.87-.18-2.16,1.26h0Z"/>
      <path class="cls-7" d="m155.51,232.95c-4.21,12.42-5.38,25.67-3.55,38.64.22,1.59,2.63.91,2.41-.66-1.77-12.52-.51-25.35,3.55-37.31.52-1.53-1.9-2.18-2.41-.66h0Z"/>
      <path class="cls-7" d="m176.9,174.79c-4.33,6.42-7.37,14.01-8.16,21.74-.37,3.66.11,7.53,2.45,10.49,1.95,2.47,5.19,4.18,8.37,3.36,3.38-.87,5.91-4.32,5.03-7.8-.27-1.05-1.75-1.21-2.28-.3-7.05,11.95-10.82,25.68-10.85,39.55,0,1.61,2.5,1.61,2.5,0,.03-13.45,3.68-26.71,10.51-38.29l-2.28-.3c.86,3.39-3.24,5.57-6.06,4.5-3.7-1.41-5.03-5.58-5-9.2.04-3.97,1.13-8.01,2.45-11.73s3.23-7.42,5.49-10.77c.9-1.34-1.26-2.59-2.16-1.26h0Z"/>
      <path class="cls-7" d="m266.02,138.88c11.21,5.29,25.06,3.21,34.11-5.31,2.35-2.21-1.19-5.74-3.54-3.54-7.32,6.89-18.93,8.84-28.05,4.53-1.22-.58-2.7-.34-3.42.9-.64,1.09-.33,2.84.9,3.42h0Z"/>
      <path class="cls-7" d="m410.02,171.83c.62,10.67,7.86,20.2,17.96,23.69,1.28.44,2.73-.5,3.08-1.75.38-1.37-.47-2.63-1.75-3.08-7.9-2.73-13.8-10.63-14.28-18.87-.08-1.35-1.09-2.5-2.5-2.5-1.29,0-2.58,1.15-2.5,2.5h0Z"/>
      <path class="cls-7" d="m413.1,92.99c8.77,3.53,17.58,7.1,25.74,11.9s15.66,10.64,20.5,18.64c2.68,4.43,4.32,9.39,4.1,14.61-.07,1.61,2.43,1.61,2.5,0,.41-9.69-5.08-18.49-11.84-24.99-7.16-6.88-15.87-11.88-24.84-16.02-5.09-2.35-10.29-4.45-15.49-6.54-1.49-.6-2.14,1.82-.66,2.41h0Z"/>
      <path class="cls-7" d="m271.18,54.82c19-11.92,42.9-15.19,64.53-9.43,6.1,1.62,11.98,3.96,17.51,7,1.41.77,2.67-1.38,1.26-2.16-20.29-11.13-45.17-13.06-67.09-5.78-6.13,2.04-12.01,4.79-17.48,8.22-1.36.85-.11,3.02,1.26,2.16h0Z"/>
      <path class="cls-7" d="m232.02,119.95c-2.02-5.95-1.22-12.53,1.75-18.03,3.26-6.06,8.58-9.9,15.21-11.53,3.99-.98,8.12-1.45,11.97-2.94s7.09-3.93,10.4-6.32c6.36-4.59,13.4-7.89,21.08-9.57,8.52-1.87,17.42-1.7,25.85.53,1.56.41,2.22-2,.66-2.41-15.6-4.14-32.89-1.41-46.35,7.54-3.65,2.43-7.01,5.36-10.99,7.25s-8.26,2.36-12.42,3.31c-3.68.84-7.21,2.12-10.27,4.39-2.62,1.95-4.83,4.4-6.55,7.18-3.87,6.28-5.13,14.21-2.75,21.26.51,1.52,2.93.87,2.41-.66h0Z"/>
      <path class="cls-7" d="m90.2,102.83c4.58-7.91,13.08-13.23,22.22-13.81,1.6-.1,1.61-2.6,0-2.5-10.01.63-19.34,6.35-24.37,15.05-.81,1.4,1.35,2.66,2.16,1.26h0Z"/>
      <path class="cls-7" d="m107.64,76.44c4.25-5.91,10.7-10.01,17.81-11.49,1.57-.33.91-2.74-.66-2.41-7.77,1.63-14.68,6.22-19.3,12.64-.94,1.31,1.23,2.56,2.16,1.26h0Z"/>
      <g>
        <path class="cls-7" d="m254.76,193.56c3.49-.74,6.14-3.78,7.39-7.13,1.25-3.35,1.35-7,1.43-10.57.28,1.14.57,2.31,1.18,3.32.61,1.01,1.6,1.86,2.77,2,1.47.18,2.82-.74,4.01-1.61,2.41-1.77,4.83-3.55,7.24-5.32-.57,1.89-1.15,3.79-1.72,5.68-.25.82-.5,1.67-.43,2.53.15,1.74,1.67,3.12,3.33,3.66,1.66.54,3.46.42,5.2.29-2.45.56-4.59,2.11-6.26,3.99-1.68,1.88-2.95,4.07-4.2,6.25-2.28,3.96-4.63,8.17-4.54,12.73-1.44-7.28-7.52-13.43-14.79-14.94"/>
        <path class="cls-7" d="m255.09,194.76c3.44-.81,6.13-3.42,7.64-6.55,1.85-3.84,2-8.17,2.1-12.35l-2.46.33c.78,3.14,2.69,7.1,6.66,6.12,1.8-.45,3.29-1.78,4.75-2.85,1.88-1.38,3.76-2.76,5.63-4.14l-1.84-1.41c-.61,2.03-1.27,4.05-1.84,6.1-.45,1.59-.53,3.23.39,4.68,1.96,3.1,5.78,3.21,9.05,2.97l-.33-2.46c-4.98,1.24-8.08,5.46-10.55,9.66-2.62,4.47-5.4,9.18-5.38,14.52l2.46-.33c-1.61-7.74-7.94-14.12-15.66-15.82-1.57-.34-2.24,2.07-.66,2.41,6.93,1.52,12.46,7.12,13.91,14.07.29,1.4,2.46,1.06,2.46-.33-.02-4.73,2.5-8.91,4.81-12.87,2.19-3.76,4.79-7.78,9.28-8.9,1.34-.33,1.1-2.56-.33-2.46-2.3.16-5.83.49-7.06-2.03-.58-1.2.09-2.65.45-3.82.48-1.58.96-3.16,1.43-4.74.3-.98-.94-2.07-1.84-1.41-2.63,1.93-5.21,3.97-7.91,5.8-1.07.73-2.36,1.43-3.54.55s-1.57-2.58-1.91-3.98-2.42-1.06-2.46.33c-.14,5.99-.69,14.79-7.9,16.49-1.57.37-.9,2.78.66,2.41h0Z"/>
      </g>
      <ellipse class="cls-2" cx="269.19" cy="190.29" rx="9.92" ry="6.86" transform="translate(-40.72 302.66) rotate(-55.19)"/>
      <g>
        <path class="cls-7" d="m394.25,234.21c3.24-1.51,5.12-5.08,5.58-8.62.46-3.54-.27-7.12-1-10.62.53,1.05,1.08,2.12,1.9,2.96.82.85,1.98,1.45,3.15,1.32,1.47-.16,2.58-1.36,3.54-2.48,1.95-2.27,3.9-4.55,5.85-6.82-.13,1.97-.26,3.95-.39,5.92-.06.86-.11,1.74.16,2.56.54,1.66,2.33,2.66,4.07,2.81s3.46-.37,5.13-.89c-2.26,1.1-3.99,3.1-5.2,5.31s-1.95,4.63-2.68,7.04c-1.32,4.37-2.66,9.01-1.53,13.43-3.05-6.77-10.37-11.37-17.79-11.2"/>
        <path class="cls-7" d="m394.88,235.29c3.09-1.53,5.08-4.61,5.88-7.9,1.02-4.22.14-8.58-.73-12.74l-2.28.96c1.51,2.96,4.29,6.27,7.96,4.36,1.61-.84,2.74-2.47,3.9-3.82,1.52-1.77,3.03-3.54,4.55-5.31l-2.13-.88c-.14,2.12-.33,4.24-.41,6.36-.07,1.61.21,3.11,1.34,4.32,2.55,2.72,6.49,1.9,9.63.93l-.96-2.28c-4.41,2.26-6.5,6.89-7.92,11.39-1.61,5.08-3.31,10.45-2.05,15.8l2.28-.96c-3.33-7.19-10.96-11.92-18.87-11.82-1.61.02-1.61,2.52,0,2.5,7.1-.09,13.73,4.16,16.71,10.58.62,1.33,2.6.36,2.28-.96-1.11-4.73.52-9.55,1.92-14.04,1.26-4.04,2.93-8.29,6.91-10.33,1.26-.65.39-2.7-.96-2.28-2.2.68-5.79,1.84-7.41-.57-.73-1.09-.37-2.72-.29-3.94.1-1.56.2-3.13.31-4.69.07-1.05-1.44-1.69-2.13-.88-2.15,2.51-4.21,5.12-6.47,7.53-.95,1.02-2.06,1.86-3.46,1.11-1.27-.69-1.92-2.13-2.55-3.36-.67-1.32-2.56-.36-2.28.96,1.22,5.89,2.64,14.53-4.01,17.82-1.44.71-.18,2.87,1.26,2.16h0Z"/>
      </g>
      <ellipse class="cls-2" cx="407.55" cy="227.76" rx="9.92" ry="6.86" transform="translate(45.19 522.15) rotate(-68.29)"/>
      <path class="cls-7" d="m272.42,259.78c1.17,13.86-8.59,27.56-22.12,30.88-1.13.28-1.12,1.7-.3,2.28,9.68,6.92,13.2,20,8.63,30.93l2.41.66c.84-2.45,2.52-4.8,5.09-5.61,3.12-.98,7.06.62,9.91,1.91,5.91,2.67,10.82,7.32,13.95,12.99,1.78,3.23,2.97,6.79,3.39,10.46.12,1,1.32,1.75,2.13.88,2.55-2.71,6.43-4.11,10.12-3.31s6.56,3.37,7.84,6.77c.28.76,1.08,1.17,1.84.75,4.77-2.65,10.37-3.83,15.8-3.43,7.13.52,13.77,3.95,18.54,9.22,1.26,1.39,2.39,2.9,3.34,4.52l1.96-1.51c-.18-.23.03.14-.1-.13-.07-.14-.2-.27-.28-.39-.28-.39-.54-.79-.79-1.2-.7-1.14-1.3-2.35-1.67-3.63-.8-2.72-.21-5.39,2.23-7.01,2.67-1.77,6.14-2.17,9.27-2.29,4.41-.17,8.82.44,13.22-.12,1.58-.2,1.64-2.36,0-2.5-3.52-.3-6.37-2.93-7.75-6.07-1.54-3.51-.98-7.45.86-10.73,4.33-7.74,13.47-10.17,21.7-10.91.82-.07,1.72-1.05,1.08-1.88-3.24-4.19-4.23-9.95-2.16-14.89,1.93-4.6,6.23-7.89,11.08-8.81l-.96-2.28c-7.42,3.6-16.23,6.5-24.48,4.17-6.3-1.78-12.3-6.9-13-13.73-.1-.93-.99-1.57-1.88-1.08-6.31,3.48-13.83,4.65-20.91,3.29-3.44-.66-6.83-1.86-9.82-3.7-2.49-1.53-5.85-5.32-2.86-8.08l-1.96-1.51c-4.47,7.24-12.32,12.18-20.76,13.26s-16.33-1.73-22.26-7.22c-3.36-3.1-5.91-6.98-7.44-11.28-.54-1.5-2.95-.86-2.41.66,2.98,8.36,9.34,15.06,17.58,18.39,8.58,3.47,18.36,2.6,26.39-1.93,4.51-2.55,8.35-6.2,11.07-10.61.77-1.24-.94-2.46-1.96-1.51-2.97,2.74-1.97,7.24.59,9.86,2.88,2.94,7.31,4.65,11.22,5.66,8.3,2.13,17.29,1.04,24.8-3.1l-1.88-1.08c.61,5.93,4.38,10.85,9.44,13.83,5.98,3.52,13.08,3.81,19.72,2.32,4.2-.94,8.21-2.57,12.07-4.44,1.35-.65.35-2.53-.96-2.28-5.58,1.06-10.47,4.98-12.68,10.22-2.37,5.6-1.45,12.35,2.27,17.15l1.08-1.88c-7.68.7-15.84,2.6-21.24,8.54-4.62,5.09-6.5,12.67-2.47,18.69,2.05,3.07,5.19,5.17,8.9,5.48v-2.5c-4.97.62-9.98-.21-14.96.22-3.5.3-7.28,1.05-9.99,3.44-4.83,4.27-2.06,11.15,1.31,15.38.9,1.13,2.66-.32,1.96-1.51-6.8-11.61-20.84-17.41-33.87-14.07-2.51.64-4.97,1.59-7.23,2.85l1.84.75c-1.58-4.19-5.15-7.55-9.59-8.52s-9.38.58-12.55,3.95l2.13.88c-.87-7.49-4.41-14.46-9.87-19.66-2.68-2.56-5.8-4.69-9.21-6.16s-7.45-3.01-11.12-2-5.91,4.06-7.05,7.42c-.53,1.56,1.81,2.1,2.41.66,5.02-12.02.75-26.23-9.78-33.76l-.3,2.28c14.53-3.57,25.22-18.37,23.95-33.29-.13-1.59-2.64-1.61-2.5,0h0Z"/>
      <path class="cls-7" d="m133.48,364.67c.4,10.49,1.01,21.13,3.12,31.44.97,4.71,2.21,10.16,5.47,13.89.92,1.05,2.1,1.92,3.45,2.3,3.52.98,6.49-1.67,8.94-3.82,2.66-2.34,5.82-5.16,9.63-3.84,3.28,1.14,5.61,4.41,7.35,7.23,3.12,5.04,5.29,10.66,7.19,16.25,2.33,6.85,4.2,13.85,5.89,20.89.38,1.56,2.79.9,2.41-.66-2.78-11.6-5.88-23.51-11.33-34.18-2.98-5.83-8.73-14.81-16.6-11.81-3.75,1.43-6.08,4.79-9.43,6.82-1.12.68-2.25,1.02-3.53.67-.12-.03-.25-.08-.36-.13.36.14-.06-.03-.14-.08-.27-.15-.54-.31-.79-.5.27.2-.12-.11-.17-.15-.12-.11-.24-.22-.35-.33-.12-.12-.24-.25-.35-.37-.07-.07-.42-.51-.29-.34-.56-.73-1.03-1.54-1.44-2.36-1.15-2.29-1.88-4.8-2.5-7.29-2.7-10.92-3.25-22.42-3.67-33.61-.06-1.6-2.56-1.61-2.5,0h0Z"/>
      <path class="cls-7" d="m150.15,449.8c3.87,7.22,8.35,14.65,14.59,20.08,5.03,4.38,11.58,7.11,18.11,4.43,4.99-2.05,9.64-7.76,15.27-6.85,3.46.56,6.21,3.04,8.39,5.71,5.07,6.25,8,14.29,10.51,21.82.51,1.52,2.92.87,2.41-.66-2.38-7.13-5.13-14.43-9.44-20.65-2.34-3.38-5.29-6.63-9.23-8.1-1.84-.69-3.83-.87-5.77-.54-2.97.5-5.49,2.29-7.93,3.95-2.62,1.8-5.39,3.6-8.64,3.88s-6.39-.87-9.11-2.63c-3.61-2.34-6.58-5.66-9.14-9.08-2.98-3.97-5.53-8.26-7.87-12.63-.76-1.42-2.92-.16-2.16,1.26h0Z"/>
      <path class="cls-7" d="m276.89,555.91c5.56-1.5,11.93-3.89,12.77-10.42l-2.46.33c1.39,4.46,5.72,6.69,10.07,7.36,5.12.79,10.4.49,15.47-.51,1.58-.31.91-2.72-.66-2.41-4.32.85-8.77,1.1-13.15.63-3.72-.4-8.08-1.78-9.31-5.74-.45-1.43-2.28-1.01-2.46.33-.66,5.17-6.73,6.87-10.93,8.01-1.55.42-.89,2.83.66,2.41h0Z"/>
      <path class="cls-4" d="m283.21,552.34c9.53,11.41,20.51,26.74,30.15,46.21,6.95,14.03,11.7,27.16,15,38.5.72,1.79,3.73,8.81,9.38,9.75,1.89.31,4.24-.03,14-8.12,14.58-12.09,15.59-16.5,15.88-18.25.65-4.02.04-9.95-2.88-11.12-5.11-2.06-11.49,12.84-18.75,11.75-6.94-1.05-8.1-15.71-15-32.38-6.12-14.79-14.87-26.57-23.87-35.88-2.21.02-5-.16-8.13-.87-4.54-1.04-8.06-2.81-10.42-4.25-1.79,1.56-3.57,3.11-5.36,4.67Z"/>
      <path class="cls-4" d="m88.96,262.66c2.17,9.74,6.58,24.61,16.28,40.51,5.67,9.29,21.04,34.49,33.03,31.73,10.76-2.48,20.8-28.12,23.12-37.88.65-2.72,1.69-7.84,5.88-10.5,2.38-1.52,5.13-1.76,5.88-1.82,1.28-.1,4.34-.3,7.39,1.51.43.26,1.88,1.12,2.85,2.44,2.74,3.73.58,9.74-.12,11.75-20.18,58.02-46,58.5-46,58.5-18.33.45-32.02-17.17-38.28-25.23-14.19-18.27-16.25-37.97-16.63-46.26,2.2-8.25,4.4-16.5,6.6-24.75Z"/>
      <path class="cls-7" d="m173.18,285.03c-.94,2.12-1.87,4.24-2.81,6.36-.26.6-.19,1.37.45,1.71.54.29,1.43.19,1.71-.45.94-2.12,1.87-4.24,2.81-6.36.26-.6.19-1.37-.45-1.71-.54-.29-1.43-.19-1.71.45h0Z"/>
      <path class="cls-7" d="m179.76,286.82c-.81,2.21-1.61,4.42-2.42,6.63-.22.62.25,1.4.87,1.54.71.16,1.3-.21,1.54-.87.81-2.21,1.61-4.42,2.42-6.63.22-.62-.25-1.4-.87-1.54-.71-.16-1.3.21-1.54.87h0Z"/>
      <path class="cls-7" d="m86.01,520.47c5.27,1.49,12.19,2.86,16.11-2.16l-2.09-1.22c-1.16,4.87,1.82,9.1,5.48,11.98,3.88,3.04,8.3,5.35,12.93,7,1.52.54,2.17-1.87.66-2.41-3.95-1.41-7.68-3.36-11.08-5.81-3.19-2.3-6.61-5.8-5.59-10.1.26-1.1-1.27-2.27-2.09-1.22-3.35,4.27-9.23,2.77-13.68,1.51-1.55-.44-2.21,1.97-.66,2.41h0Z"/>
      <path class="cls-4" d="m93.27,520.64c2.33,14.68,3.9,33.47,2.2,55.13-1.22,15.61-3.88,29.32-6.86,40.75-.3,1.91-1.31,9.48,3.05,13.18,1.46,1.24,3.65,2.15,16.19.2,18.72-2.91,21.85-6.18,22.99-7.53,2.62-3.12,5.14-8.52,3.23-11.03-3.33-4.39-16.45,5.14-22.12.48-5.42-4.46,1.1-17.64,3.72-35.49,2.32-15.84.85-30.43-2.11-43.04-1.91-1.11-4.21-2.7-6.53-4.92-3.37-3.22-5.48-6.54-6.77-8.99-2.33.42-4.66.84-6.99,1.26Z"/>
      <path class="cls-7" d="m48.51,261.44c-16.65,7.59-22.35,28.18-20.69,45.06,2.2,22.5,14.23,43.06,14.23,65.89,0,10.85-2.75,21.99-10.4,30.03-1.11,1.16.66,2.94,1.77,1.77,14.21-14.92,12.45-37.64,7.49-56.02-5.48-20.32-15-41.3-8.71-62.57,2.76-9.35,8.52-17.86,17.59-22,1.46-.67.19-2.82-1.26-2.16h0Z"/>
      <path class="cls-7" d="m60.3,336.46c-4.02,16.47-.3,33.3,2.89,49.56,2.98,15.14,5.54,31.05.48,46.05-2.42,7.17-6.56,13.7-12.58,18.38-1.27.99.51,2.74,1.77,1.77,10.85-8.43,15.6-22.5,16.16-35.83.71-17.1-4.61-33.63-6.94-50.41-1.33-9.57-1.67-19.4.63-28.85.38-1.56-2.03-2.23-2.41-.66h0Z"/>
    </g>
  </g>
</svg>