<?xml version="1.0" encoding="UTF-8"?>
<svg id="Capa_2" data-name="Capa 2" xmlns="http://www.w3.org/2000/svg" xmlns:xlink="http://www.w3.org/1999/xlink" viewBox="0 0 289.07 866.41">
  <defs>
    <style>
      .cls-1 {
        fill: #c1946c;
      }

      .cls-1, .cls-2, .cls-3, .cls-4, .cls-5, .cls-6 {
        stroke-width: 0px;
      }

      .cls-2 {
        fill: #cc6749;
      }

      .cls-7, .cls-3 {
        fill: #f6a122;
      }

      .cls-7, .cls-8, .cls-9, .cls-10, .cls-11, .cls-12, .cls-13 {
        stroke-miterlimit: 10;
        stroke-width: 2px;
      }

      .cls-7, .cls-8, .cls-10, .cls-11, .cls-12, .cls-13 {
        stroke: #1d1d1b;
      }

      .cls-8 {
        fill: #e8443c;
      }

      .cls-9 {
        fill: #d85b2f;
        stroke: #bb5531;
      }

      .cls-4 {
        fill: #ef7f67;
      }

      .cls-10 {
        fill: url(#Degradado_sin_nombre_18);
      }

      .cls-11 {
        fill: none;
      }

      .cls-12 {
        fill: #ea4d64;
      }

      .cls-13 {
        fill: #ed6e3c;
      }

      .cls-5 {
        fill: #d08476;
      }

      .cls-6 {
        fill: #1d1d1b;
      }
    </style>
    <linearGradient id="Degradado_sin_nombre_18" data-name="Degradado sin nombre 18" x1="147.02" y1="838.21" x2="187.99" y2="544.36" gradientUnits="userSpaceOnUse">
      <stop offset=".15" stop-color="#e84827"/>
      <stop offset=".61" stop-color="#ed6e3c"/>
    </linearGradient>
  </defs>
  <g id="Capa_1_copia_7" data-name="Capa 1 copia 7">
    <g>
      <path class="cls-9" d="m224.82,374.6c12.55-17.4,32.86-50.57,40.32-96.83,3.68-22.8,11.54-75.3-15.24-122.69-17.53-31.02-32.53-28.92-73.26-77.47-19.23-22.93-32.85-43.62-41.5-57.83,2.43,9.11,3.09,13.89,2,14.33-1.81.74-8.48-10.49-20-33.67,3.89,8.04,8.99,20.5,11.67,36.33,4.35,25.76.15,47.81-4.67,72-5.58,28.03-10.44,34.81-10,55,.31,14.42,3.13,26.2,5.5,34-1.54-3.25-3.9-8.08-7-13.83-3.95-7.32-9.34-16.57-10.17-16.17-.66.32,2.58,6.42,4.17,16.5.63,3.98.8,7.34.83,9.67-9.93-26.41-13.45-32.19-14.67-31.83-2.94.87,13.23,35.68,1.33,73.17-6.16,19.42-12.12,16.3-17,35.5-10.05,39.56,10.47,73.77,12.17,76.5,3.74,6.03,7.48,10.52,10,13.33"/>
      <path class="cls-9" d="m139.64,261.95c-4.54,2.47-11.73,6.86-19.16,13.82-27.75,26.02-22.29,53.9-48.55,103.99-15.9,30.32-27.15,37.74-36.4,41.05-12.97,4.64-25.53,2.46-33.56.14,2.32,4.41,6.4,10.44,13.33,13.67,25,11.65,60.54-25.4,62.67-27.67,6.72-7.15,17.83-21.1,24.33-43.5"/>
      <path class="cls-9" d="m201.64,267.78c13.82,43.09,31.22,71.6,45,90,8.23,10.99,21.82,27.26,25,51.83,2.45,18.88-2.45,33.42-4,37.67-8.24,22.54-24.62,34.73-31,39,4.73-8.08,10.59-20.73,12.33-37,4.1-38.24-17.78-66.48-23.27-73.18"/>
      <path class="cls-7" d="m83.57,498.44c-5.46,8.18-12.18,17.28-20.94,27-13.4,14.88-19.42,17.78-25,17-6.1-.84-11.9-6.08-14.18-12.16-2.32-6.28-.46-12.26,1.28-16.82,7.08-18.44,19.1-31.1,25.56-38.18,7.96-8.74,18.86-21.5,31-38.5"/>
      <g>
        <path class="cls-11" d="m82.92,498.44c-5.46,8.18-12.18,17.28-20.94,27-13.4,14.88-19.42,17.78-25,17-6.1-.84-11.9-6.08-14.18-12.16-2.32-6.28-.46-12.26,1.28-16.82,7.08-18.44,19.1-31.1,25.56-38.18,7.96-8.74,18.86-21.5,31-38.5"/>
        <path class="cls-7" d="m187.31,508.61c11.9,28.01,27.91,59.75,49.58,92.92,12.6,19.28,25.43,36.45,37.87,51.62.48,1.26,1.37,3.17,3,5.12,1.22,1.46,2.09,2.51,3.38,2.75,2.54.48,5.27-2.46,6.12-3.88,4.1-6.8-8.74-22.14-11.5-25.5-25.79-31.41-39.53-74.72-42-82.5-8.55-26.95-2.91-32.74-15.12-71.12-4.04-12.7-8.11-22.93-11-29.75-4.39,5.55-9.83,13.71-14,24.5-5.65,14.63-6.47,27.64-6.33,35.83Z"/>
        <path class="cls-13" d="m199.84,437.1c-2.72-3.85-5.46-7.71-8.2-11.54-16.78,11.02-33.56,22.07-50.34,33.09-4.46-1.47-8.94-2.94-13.42-4.41-8.08-12.09-16.16-24.21-24.24-36.3-6.16,2.88-10.84,6.16-14.4,9.33-4.52,4.03-7.26,7.96-8.94,10.86-4.62,8-6.62,17.56-6.06,27.92,10.36-9.35,17.78-14.86,23.12-17.97,7.72-4.53,11.1-4.09,12.78-3.16,6.1,3.38,6.16,7.29,6.16,7.45-.04,3.48-4.28,6-5.5,6.77-2.38,1.53-4.56,3.61-6.72,6.2-3.08,3.75-6.12,8.56-9.6,14.26-.11,0-.22,0-.32,0-.22.69-.5,1.37-.88,2.01-.04.05-.07.09-.11.14-.3.6-.64,1.19-1.06,1.72-2.69,4.39-5.66,9.19-9.19,14.39,6.28,13.09,15.92,26.24,28.72,38.23l41,2.66c11.56-10.27,23.12-20.54,34.66-30.78.04-8.58,1.16-21.73,7-36.42,4.02-10.07,9.06-17.89,13.34-23.49-2.6-3.65-5.2-7.31-7.8-10.96Z"/>
        <path class="cls-11" d="m97.36,448.3c-2.72-7-5.42-13.98-8.12-20.96"/>
        <path class="cls-11" d="m104.08,465.68c1.8,4.64,3.6,9.28,5.4,13.94-5,.14-10,.26-15,.42"/>
        <path class="cls-11" d="m93.28,482.02c12.24,11.68,24.46,23.4,36.7,35.1,14.78-13.18,29.54-26.34,44.32-39.5-7.16,1.1-14.32,2.22-21.5,3.32,15.68-14.56,31.36-29.14,47.04-43.7"/>
        <path class="cls-3" d="m116.3,452.62c-.04,3.5-4.28,6.04-5.5,6.82-2.38,1.54-4.56,3.64-6.72,6.24-3.08,3.78-6.12,8.62-9.6,14.36-1.06.02-2.12.04-3.18.08.66.64,1.32,1.26,1.98,1.9-2.98,4.92-6.32,10.42-10.36,16.42-5.24-10.96-8.18-21.9-8.68-32.04,10.36-9.42,17.78-14.96,23.12-18.1,7.72-4.56,11.1-4.12,12.78-3.18,6.1,3.4,6.16,7.34,6.16,7.5Z"/>
        <path class="cls-11" d="m74.24,466.4c-9.36,8.48-21.12,20.14-35.94,36.04"/>
        <path class="cls-11" d="m94.48,480.04c-.38.64-.78,1.3-1.2,1.98"/>
        <path class="cls-7" d="m226.48,377.44c-2.12,3.82-11.46,19.76-31.5,26.34-15.7,5.16-29.12,1.68-34,.16-.34,3.96-.68,7.9-1,11.84,10.54,3.28,21.1,6.56,31.66,9.84-16.78,11.1-33.56,22.22-50.34,33.32-4.46-1.48-8.94-2.96-13.42-4.44-8.08-12.18-16.16-24.38-24.24-36.56,3.78-1.96,10.48-4.76,19.16-5,4.74-.12,8.78.56,11.84,1.34,1.92-4,3.84-8,5.76-12-3.48-2.06-7.1-4.5-10.76-7.34-13.28-10.3-21.86-22.1-27.34-31.5,4.8-8.26,10.46-17.02,17.18-26,14.2-19,29.12-33.7,42.32-44.82,6.76,19.62,16.1,31.56,23.34,38.82,8.94,8.96,18,14.12,29.5,28.5,5.62,7.04,9.48,13.36,11.84,17.5Z"/>
        <path class="cls-11" d="m73.35,467.21c8.58-7.06,15.66-12.68,20.79-16.94,2.1-1.74,5.88-4.93,11.42-5.53,1.53-.17,2.81-.09,3.67,0,3.64,1.69,7.64,4.19,7.75,7.38.1,3.06-3.45,5.06-7.67,8.75-3.01,2.64-6.2,6.92-12.58,15.5-3.85,5.18-8.92,12.65-14.09,22.5"/>
      </g>
      <path class="cls-10" d="m98.14,524.78c-17.27,33.54-42.27,92.71-47.5,170.5-4.59,68.28,7.89,123.64,18.5,158,19.1,4.44,68.36,14.77,118,11.5,31.23-2.06,49.86-8.66,65-18.5,5.47-3.55,9.67-7.01,12.5-9.5,6.12-48.38,13.54-164.78-58.96-262.16-12.48-16.76-25.94-31.09-39.54-43.34"/>
      <path class="cls-12" d="m130.14,577.28c10.92,38.49,34.24,98.73,86.5,153.5,17.48,18.31,35.22,32.91,51.65,44.5-.26-7.41-.53-14.82-.79-22.22-11.89-9.69-23.96-20.64-35.86-33.02-59.11-61.49-87.57-130.53-102-181-6.8,29.29-18.36,65.91-38.75,105.25-12.95,24.99-26.9,46.12-40,63.5v25.75c14.55-15.81,32.19-38.14,47.75-67.5,18.13-34.2,26.95-65.73,31.5-88.75Z"/>
      <g>
        <path class="cls-4" d="m130.29,462.29c.99-4.04,1.99-8.09,2.98-12.14,5.74,7.17,11.47,14.34,17.21,21.51-4.35-.03-8.7-.06-13.05-.1-2.38-3.09-4.76-6.19-7.14-9.28Z"/>
        <path class="cls-2" d="m137.42,471.57c-2.88,2.4-5.76,4.8-8.64,7.19-.27,3.72-.55,7.44-.82,11.16,7.74-6.08,15.48-12.17,23.22-18.25-4.59-.03-9.17-.07-13.76-.1Z"/>
        <path class="cls-5" d="m121.3,469.77c2.39,2.87,4.79,5.75,7.18,8.62-.53,3.83-1.06,7.67-1.59,11.5-5.39-6.6-10.78-13.19-16.17-19.79,3.53-.11,7.05-.22,10.58-.34Z"/>
        <path class="cls-1" d="m121.95,469.23c2.59-2.16,5.18-4.33,7.77-6.49.96-4.03,1.92-8.06,2.88-12.08-7.16,5.98-14.33,11.97-21.49,17.95,3.61.21,7.23.41,10.84.62Z"/>
        <rect class="cls-8" x="123.69" y="464.68" width="11.7" height="11.7" transform="translate(408.17 69.86) rotate(50.21)"/>
        <rect class="cls-11" x="116.57" y="455.45" width="28" height="30.33" transform="translate(408.62 69.09) rotate(50.21)"/>
      </g>
      <line class="cls-11" x1="133.27" y1="450.15" x2="130.29" y2="462.29"/>
      <line class="cls-11" x1="151.19" y1="471.67" x2="137.42" y2="471.57"/>
      <line class="cls-11" x1="128.79" y1="478.76" x2="127.88" y2="491.08"/>
      <line class="cls-11" x1="121.3" y1="469.77" x2="109.96" y2="469.57"/>
      <circle class="cls-6" cx="128.72" cy="350.2" r="3.75"/>
      <circle class="cls-6" cx="185.47" cy="359.11" r="3.75"/>
      <path class="cls-6" d="m147.44,363.28c.77,4.09,3.89,7.54,7.95,8.57,4.46,1.14,9.03-.75,11.67-4.44.94-1.31-1.23-2.56-2.16-1.26-2.03,2.84-5.71,4.19-9.08,3.23-3.16-.9-5.37-3.58-5.97-6.77-.3-1.58-2.71-.91-2.41.66h0Z"/>
      <path class="cls-11" d="m83.11,458.67c-9.53,8.6-21.5,20.42-36.59,36.53"/>
    </g>
  </g>
</svg>