<?xml version="1.0" encoding="UTF-8"?>
<svg id="Capa_2" data-name="Capa 2" xmlns="http://www.w3.org/2000/svg" viewBox="0 0 451.14 708.19">
  <defs>
    <style>
      .cls-1 {
        fill: #a35555;
      }

      .cls-1, .cls-2, .cls-3, .cls-4, .cls-5, .cls-6, .cls-7, .cls-8 {
        stroke-width: 0px;
      }

      .cls-2 {
        fill: #4e4f4c;
      }

      .cls-9 {
        fill: #fbbc2e;
      }

      .cls-9, .cls-10, .cls-11, .cls-12, .cls-13, .cls-14, .cls-15 {
        stroke-miterlimit: 10;
      }

      .cls-9, .cls-10, .cls-11, .cls-12, .cls-13, .cls-15 {
        stroke-width: 2px;
      }

      .cls-9, .cls-11, .cls-12, .cls-13, .cls-14, .cls-15 {
        stroke: #1d1d1b;
      }

      .cls-3 {
        fill: #e83a48;
      }

      .cls-10 {
        stroke: #fff;
      }

      .cls-10, .cls-13 {
        fill: none;
      }

      .cls-4, .cls-11, .cls-14 {
        fill: #fff;
      }

      .cls-12 {
        fill: #b0dbf4;
      }

      .cls-5 {
        fill: #fbdad4;
      }

      .cls-6 {
        fill: #bbe3fa;
      }

      .cls-15 {
        fill: #0a72b9;
      }

      .cls-7 {
        fill: #1d1d1b;
      }

      .cls-8 {
        fill: #d05859;
      }
    </style>
  </defs>
  <g id="Capa_1_copia_3" data-name="Capa 1 copia 3">
    <g>
      <path class="cls-7" d="m222.32,217.65c1.45,2.89,4.24,5.23,7.3,6.21,3.96,1.26,8.39.2,11.54-2.45,1.23-1.04-.54-2.8-1.77-1.77-.06.05-.12.1-.18.15-.19.15.22-.16-.03.02s-.49.35-.74.51c-.64.4-1.32.75-2.03,1-2.06.73-4.26.78-6.34.06-2.42-.83-4.47-2.76-5.58-4.98-.72-1.44-2.88-.17-2.16,1.26h0Z"/>
      <path class="cls-15" d="m276.09,700.22c-95.48,3.8-184.02-31.24-220.28-47.08-1.64-9.68-3.96-24.14-6.18-41.74-3.48-32.4-5.22-59.64-6.16-79.64,0,0-2.28-48.26,1.28-103.46.08-1.22.18-2.44.26-3.66.78-10,1.62-19.18,2.4-27.52.02-.24.06-.46.08-.7,2.08-19.3,5.04-38.5,9.2-55.94.02-.06.04-.14.06-.2,2.5-9.42,5.68-19.3,9.84-29.66,2.74-6.82,5.5-12.94,8.08-18.24.04-.04.06-.08.08-.12.32-.54,1.68-2.7,3.18-5.92.36-.76.68-1.52,1-2.28.76-1.44,1.5-2.8,2.18-4.04-.02.26-.04.5-.06.74-2.82,25-4.94,46.72-6.52,64.5-1.9,21.1-2.34,28.8-2.58,33.14v.02c-.28,2.96-.56,5.84-.82,8.66-.06.66-.12,1.32-.18,1.98,0,.04-.02.06-.02.08-1.12,8.54-2.32,15.54-1.78,26,.36,6.78.8,15.52,4.62,25.76,1.24,3.3,2.42,5.7,3.6,7.78,3.16,6.74,6.3,11.08,9,17.74,2.16,6.24,3.04,11.18,4.02,16.72,1.14,6.34,1.7,11.8,2.04,16.34.02.06.02.14.02.22.34,8.96.08,15.1,2.1,15.96.08.06.16.08.26.1,2.32.52,6.18-5.66,8.54-11.68.16-.38.3-.76.44-1.14.2-.56.4-1.1.56-1.62,1.76-5.4,1.98-9.78,2.28-11.08.4.1.96,2.78,1.22,6.72.02.28.02.58.04.88v.22c.08,1.86.08,3.98,0,6.26,0,.22,0,.44-.02.66-.5,9.12-2.76,14.7.18,17.06,0,0-.02.02.02.02.16.2.36.38.6.52.06.04,1.04.58,2.14.3,3.4-.48,5.9-7.16,6.66-16.76.02.22.02.44.02.64-.34,10.18.42,25.92,6.74,43.68.08.22.14.42.22.64.56,1.52,1.12,3,1.7,4.42,7.56-3.92,18.38-7.42,29-15.36,10.02-7.48,22.74-21.08,31-47.76,1.84-.34,9.32-1.54,16.5,3,10.26,6.52,10.5,18.86,10.5,19.76-12.82,18.92-43.12,61.36-67.34,71.78-.12.06-.24.1-.36.16,7.76,8.68,16.96,15.58,32.22,26.9,1.88,1.42,3.76,2.82,5.64,4.2.62.46,1.24.9,1.84,1.36,8.98,6.64,14.72,10.72,22.2,15.34.02.02.04.02.04.02,3.84,2.5,7.22,4.6,9.92,6.18.06.04.14.08.22.12.02.02.04.04.06.04,5.76,3.76,12.04,8.32,16.46,13.12.06.06.14.14.2.22.3.36.62.7.92,1.04.1.14.22.26.32.4,5.08,6.22,7.62,9.32,8.44,12.32.16.86.46,2.84,1.4,4.1.02.04.04.06.06.08.32.5.72.86,1.22.94.84.3,1.9.14,2.56-.44.84-.74.96-2.08.8-3.46v-.02c0-5.68-1.28-7.47-2.2-13.64-.54-3.61-.64-6.6-.64-8.54v-.02c.04-.7.08-1.34.14-1.9.04-.56.12-1.08.2-1.5.02-.18.06-.34.08-.48.02-.02.02-.04.02-.08.04-.16.08-.32.12-.44,0-.02.02-.04.02-.04.04-.12.06-.22.1-.28,0-.02.02-.02.02-.04.02-.04.04-.08.08-.12.02-.04.04-.06.06-.08.02-.02.06-.04.08-.04h.04s.06,0,.1.02c.08.04.16.1.26.2.08.08.16.18.26.3.02.02.04.06.06.08.06.06.1.12.14.2.06.08.12.16.16.24.02.04.04.08.08.12.1.16.22.34.32.54.08.12.14.24.22.38.06.12.14.28.22.42.06.1.1.2.18.32.14.32.32.66.48,1.02.02.04.04.08.06.12.16.34.32.7.48,1.08.1.22.18.44.28.66.04.1.08.18.1.28,1.02,2.66,2.06,5.8,2.84,8.64.93,3.4,1.4,6.2,2.09,10.13.99,5.63.77,5.61,1.43,8.37,1.26,5.31,2.1,8.65,4.96,10.36.52.31,2.7,1.6,5,.76,1.1-.4,2-1.32,2.74-2.56.64,5.82,2.26,11.62,5.54,16.2Z"/>
      <g>
        <g>
          <path class="cls-6" d="m250.41,318.44c12.38,28.48,25.78,53.5,38.82,75-30.74-27.32-49.32-53.88-60-71.66-.2-.34-.4-.68-.6-1.02-3.18-5.32-6.62-11.12-10.14-18.06-2.48-4.82-4.96-10.18-7.42-16.26-.24-.58-.48-1.16-.7-1.74-.2-.52-.4-1.04-.58-1.54-.14-.36-.28-.72-.4-1.06-.06-.14-.12-.28-.16-.42-4.32-11.5-6.8-21.6-16.54-51-.26-.76-.58-1.74-.96-2.98-.5.06-1,.12-1.5.18-7.5,10.68-15,21.34-22.5,32-3.68-8.08-7.34-16.16-11-24.24-12.26,20.08-24.5,40.16-36.76,60.24-1.3-38.26-2.62-76.54-3.92-114.82-3.56.9-7.12,1.82-10.66,2.72.06-.12.14-.22.22-.34,1.84-3,3.88-5.88,6.12-8.66,35.76-44.26,104.94-36.42,145.68-10.34,10.9,6.98,22.32,16.92,31.86,28.46-6.36-3.42-13.82-6.72-22.52-9.56.04.12.1.26.14.38-.08-.04-.14-.06-.22-.08,8.54,23.66,17.08,47.34,25.62,71.02.06.16.12.32.18.48-11.02-7.76-22.06-15.5-33.08-23.26-2.22,6.18-4.44,12.34-6.66,18.5-11.5-8.62-23.02-17.24-34.52-25.88,4.56,17.82,10.28,36.96,17.56,57.1,2.32,6.4,4.78,12.88,7.4,19.46,1.72,4.3,3.5,8.64,5.36,13,.62,1.46,1.24,2.92,1.88,4.38Z"/>
          <path class="cls-11" d="m289.77,193.5c-6.42-3.5-14.02-6.88-22.88-9.78-.04-.12-.1-.26-.14-.38,8.7,2.84,16.16,6.14,22.52,9.56.18.2.34.4.5.6Z"/>
          <path class="cls-11" d="m427.31,368.34c-3.86,3.8-27.26-13.36-27.76-12.62-.22.3,3.98,3.64,7.38,9.04.46.74,1.52,2.48,1.5,4.78-.02.68-.04,2.84-1.38,3.8-1.04.74-2.54.5-3.68.12l-.02-.02c-9.78-5.12-15.14-7.6-17.66-8.36-.02,0-.06-.02-.08-.02-1.3-.6-2.14-.9-2.3-.72-.12.14.18.58.74,1.22.28.38.7.84,1.14,1.32,2.16,2.38,5.46,5.86,6.18,8.28v.02c0,.3-.04.56-.16.84-.46,1.18-1.84,1.64-2.38,1.8-5.18-.08-14.16-7.94-15.94-9.5-.02-.06-.06-.08-.08-.1,4.76,10.38,7.88,19.18,9.84,25.26,7.66,23.64,10.08,44.32,10.74,58.38-1.84,13.96-2.88,27.12-3.4,39.28-23.38-63.72-33.02-81.32-36.5-80.34-2.6.74-.4,11.36-8,20-4.9,5.58-11.74,7.96-17.68,9,19.38,24.46,31.3,46.12,38.68,61.68,2.4,5.04,4.52,9.92,6.52,14.3.82,1.78,1.6,3.5,2.38,5.12.26.54.52,1.06.78,1.58.1.2.2.42.32.62.24.52.5,1,.74,1.48,1.06,2.02,2.1,3.82,3.16,5.34.26.38.54.76.78,1.1.18.24.36.46.54.68-3.72,12.14-7.5,21.44-10.16,27.88-3.76,9.14-14.92,35.08-35.74,66-24.38,36.18-33.04,36.22-37.76,56.5-1.14,4.94-2.2,11.7-4.1,16.96-1.52,4.18-3.58,7.42-6.64,8.04-3.98.82-7.9-3.12-9-4.24-.8-.82-1.54-1.7-2.22-2.62-3.28-4.58-4.9-10.38-5.54-16.2-.74,1.24-1.64,2.16-2.74,2.56-2.16.82-4.52-.5-5-.76-3.22-1.8-4.26-5.62-4.96-10.36-.36-2.42-.62-5.1-1.04-7.88-1.22-7.78-3.4-14.66-5.32-19.26-.02-.1-.06-.18-.1-.28-.08-.2-.16-.4-.24-.6-.04-.1-.08-.22-.14-.32-1.1-2.7-2.14-4.66-2.82-4.76-.04-.02-.06-.02-.1-.02h-.04s-.06.02-.08.04c-.58.28-.84,2.3-.84,4.96v.02c-.24,4.8.14,12.24,1.98,18.48.22.78.7,2.26.86,3.7v.02c-.12.98-.44,1.82-1.06,2.58-.22.26-1.22,1.5-2.3,1.32-.5-.18-.9-.52-1.22-.94-.02-.02-.04-.04-.06-.08-.72-1.16-1.1-3-1.4-4.1-.64-3.18-3.26-6.36-8.44-12.32-.1-.14-.22-.26-.32-.4-.3-.34-.62-.68-.92-1.04-.06-.08-.14-.16-.2-.22-6.42-7.28-13.6-11.44-16.46-13.12-.02,0-.04-.02-.06-.04-3.86-2.52-7.46-4.66-10.14-6.3,0,0-.02,0-.04-.02-6.46-4.22-14.2-9.54-22.2-15.34-.6-.46-1.22-.9-1.84-1.36-1.88-1.38-3.76-2.78-5.64-4.2-12.06-9.1-23.9-18.84-31.86-27.06,24.22-10.42,54.52-52.86,67.34-71.78,0-.9-.24-13.24-10.5-19.76-7.18-4.54-14.66-3.34-16.5-3-8.26,26.68-20.98,40.28-31,47.76-10.62,7.94-21.44,11.44-29,15.36-.58-1.42-1.14-2.9-1.7-4.42-.08-.22-.14-.42-.22-.64-3.76-11.62-6.36-25.94-6.74-43.68.02-.64.06-1.26.08-1.86-.02.42-.06.82-.1,1.22v-.36c-.56,1.76-1.26,4.02-2.04,6.7-1.96,6.76-2.54,9.86-4.62,10.42-1.42.2-2.62-.72-2.74-.82-.04,0-.02-.02-.02-.02-1.82-2.1-.84-7.5-.38-13.58.1-1.2.16-2.36.2-3.48.02-.22.02-.44.02-.66.12-2.24.1-4.36,0-6.26v-.22c-.02-.3-.02-.6-.04-.88-.2-4.36-.72-7.1-1.04-7.12-.08,0-.14.12-.18.38h-.02c-.52,0-.32,4.96-2.26,11.1-.16.52-.36,1.06-.56,1.62-.14.38-.28.76-.44,1.14-.4.98-.86,2-1.38,3-1.24,2.42-4.66,9.16-7.16,8.68-.1-.02-.18-.04-.26-.1-1.78-.88-1.42-6.34-2.1-15.96,0-.08,0-.16-.02-.22-.24-6.22-.8-13.78-2.62-21.9-1.02-4.52-2.18-8.1-3.44-11.16-.06-.22-.14-.44-.22-.66-3.18-9-5.96-12.12-8.78-17.08-.92-1.96-1.84-4.12-2.74-6.6-6.78-18.52-5.46-34.28-3.7-52.94,0-.02.02-.04.02-.08.74-5.54.8-6.78,1-10.64v-.02c2.56-27.26,5.46-59.94,9.1-97.64.02-.24.06-.5.08-.76,0,0,0,.02-.02.02.12-1.14.24-2.28.34-3.44-.64,2.42-1.46,4.94-2.52,7.48-1.3,2.46-2.72,5.18-4.18,8.2-.02.04-.04.08-.08.12-7.62,12.56-13.46,29.22-17.92,47.9-.02.06-.04.14-.06.2-5.46,20.62-7.62,39.12-9.2,55.94-.02.24-.06.46-.08.7-.98,9.22-1.78,18.44-2.4,27.52-.08,1.22-.18,2.44-.26,3.66-3.3,44.42-5.08,104.74,4.88,183.1.06.56.12,1.12.18,1.68-11.76-16.28-28.98-43.78-39.5-81-24.36-86.1,4.02-164.18,28.5-231.5,10.16-27.98,26.98-68.2,54.5-114,4.1-1.04,8.2-2.1,12.3-3.14-.08.12-.16.22-.22.34,3.54-.9,7.1-1.82,10.66-2.72,1.3,38.28,2.62,76.56,3.92,114.82,12.26-20.08,24.5-40.16,36.76-60.24,3.66,8.08,7.32,16.16,11,24.24,7.5-10.66,15-21.32,22.5-32,.5-.06,1-.12,1.5-.18.38,1.24.7,2.22.96,2.98,9.74,29.4,12.22,39.5,16.54,51,.04.14.1.28.16.42-.06,0-.12.02-.18.02-.12-.2-.22-.34-.32-.44-10.24-.22-17.94-.32-23.08-.28-.36.02-.72.02-1.1.02-1.26,0-3.74-.1-8.06-.62-2.48-.42-4.7-.98-6.62-1.56-.04-.02-.06-.04-.1-.04-3.04-1.16-8.24-2.86-12.06-.42-3.64,2.3-5.46,7.94-4.14,11.92,2.16,6.42,12.54,8.42,26.5,10.12,4.8.58,19.34,2.26,38.26,1.88,3.52,6.94,6.96,12.74,10.14,18.06.2.34.4.68.6,1.02,10.68,17.78,29.26,44.34,60,71.66-13.04-21.5-26.44-46.52-38.82-75-.64-1.46-1.26-2.92-1.88-4.38-1.86-4.36-3.64-8.7-5.36-13,8.86-1.02,18.08-2.62,27.32-4.98,5.78-1.48,14.68-4.08,17.52-11.22,1.22-3.08,1.66-7.88-.82-10.42-4.16-4.26-13.84.68-25.7,4-7.62,2.12-15.16,2.9-25.72,3.16-7.28-20.14-13-39.28-17.56-57.1,11.5,8.64,23.02,17.26,34.52,25.88,2.22-6.16,4.44-12.32,6.66-18.5,11.02,7.76,22.06,15.5,33.08,23.26-.06-.16-.12-.32-.18-.48.08.06.18.12.26.18-8.56-23.72-17.1-47.42-25.66-71.12,8.86,2.9,16.46,6.28,22.88,9.78-.16-.2-.32-.4-.5-.6,8.94,4.8,15.72,9.84,20.78,14.18,26.34,22.56,33.58,49.36,68.34,102.68,9.66,14.8,12.68,18.24,15.92,21.32,16.3,15.62,26.18,25.08,30.84,28.76.5.38,2.14,1.66,2.72,3.8.42,1.58.32,3.82-.56,4.7Z"/>
          <path class="cls-11" d="m211.07,286.44c2.46,6.08,4.94,11.44,7.42,16.26-18.92.38-33.46-1.3-38.26-1.88-13.96-1.7-24.34-3.7-26.5-10.12-1.32-3.98.5-9.62,4.14-11.92,3.82-2.44,9.02-.74,12.06.42.04,0,.06.02.1.04,1.92.58,4.14,1.14,6.62,1.56,3.74.45,6.1.59,7.49.61.19,0,.39,0,.57,0,.38,0,.74,0,1.1-.02,5.14-.04,12.84.06,23.08.28.1.1.2.24.32.44.06,0,.12-.02.18-.02.12.34.26.7.4,1.06.18.5.38,1.02.58,1.54.22.58.46,1.16.7,1.74Z"/>
          <path class="cls-11" d="m287.19,274.44c2.48,2.54,2.04,7.34.82,10.42-2.84,7.14-11.74,9.74-17.52,11.22-9.24,2.36-18.46,3.96-27.32,4.98-2.62-6.58-5.08-13.06-7.4-19.46,10.56-.26,18.1-1.04,25.72-3.16,11.86-3.32,21.54-8.26,25.7-4Z"/>
          <path class="cls-11" d="m266.89,183.72c-.04-.12-.1-.26-.14-.38,8.7,2.84,16.16,6.14,22.52,9.56.18.2.34.4.5.6-6.42-3.5-14.02-6.88-22.88-9.78Z"/>
        </g>
        <g>
          <path class="cls-2" d="m218.49,302.7c-18.92.38-33.46-1.3-38.26-1.88-13.96-1.7-24.34-3.7-26.5-10.12-1.32-3.98.5-9.62,4.14-11.92,3.82-2.44,9.02-.74,12.06.42.04,0,.06.02.1.04.38.14.7.26,1,.38,1.36.52,3.2.9,5.62,1.18,3.74.45,6.1.59,7.49.61.19,0,.39,0,.57,0,.38,0,.74,0,1.1-.02,5.14-.04,12.84.06,23.08.28.1.1.2.24.32.44l.04.04c.24.36.4.68.54,1,.22.48.36.96.58,1.54.22.58.46,1.16.7,1.74,2.46,6.08,4.94,11.44,7.42,16.26Z"/>
          <path class="cls-2" d="m288.01,284.86c-2.84,7.14-11.74,9.74-17.52,11.22-9.24,2.36-18.46,3.96-27.32,4.98-2.62-6.58-5.08-13.06-7.4-19.46,10.56-.26,18.1-1.04,25.72-3.16,11.86-3.32,21.54-8.26,25.7-4,2.48,2.54,2.04,7.34.82,10.42Z"/>
          <g>
            <path class="cls-4" d="m185.81,281.4c-.36,6.8-4.94,11.34-8.44,11.24-3.82-.12-8.58-5.76-7.44-13.44.04,0,.06.02.1.04,1.92.58,4.14,1.14,6.62,1.56,2.98.48,5.72.64,8.06.62.38,0,.74,0,1.1-.02Z"/>
            <path class="cls-13" d="m185.81,281.4c-.36,6.8-4.94,11.34-8.44,11.24-3.82-.12-8.58-5.76-7.44-13.44.04,0,.06.02.1.04,1.92.58,4.14,1.14,6.62,1.56,2.98.48,5.72.64,8.06.62.38,0,.74,0,1.1-.02Z"/>
          </g>
          <g>
            <path class="cls-4" d="m210.37,284.7c-.56,5.26-3.82,9-6.78,9.32-3.8.42-9.32-4.5-9.2-12.28,2.04.32,4.34.56,6.86.66,2.92.1,5.6-.04,7.96-.28.06,0,.12-.02.18-.02.12.34.26.7.4,1.06.18.5.38,1.02.58,1.54Z"/>
            <path class="cls-13" d="m210.37,284.7c-.56,5.26-3.82,9-6.78,9.32-3.8.42-9.32-4.5-9.2-12.28,2.04.32,4.34.56,6.86.66,2.92.1,5.6-.04,7.96-.28.06,0,.12-.02.18-.02.12.34.26.7.4,1.06.18.5.38,1.02.58,1.54Z"/>
          </g>
          <g>
            <path class="cls-4" d="m257.41,279.54c.97,7.31-3.96,12.52-7.79,12.52-3.49,0-7.85-4.34-8.13-10.65,2.67.04,5.76-.08,9.17-.55,2.49-.34,4.75-.81,6.75-1.32Z"/>
            <path class="cls-13" d="m257.41,279.54c.97,7.31-3.96,12.52-7.79,12.52-3.49,0-7.85-4.34-8.13-10.65,2.67.04,5.76-.08,9.17-.55,2.49-.34,4.75-.81,6.75-1.32Z"/>
          </g>
          <g>
            <path class="cls-4" d="m278.42,273.55c2.13,6.49-1.86,12.35-6,12.95-3.59.52-8.22-2.77-9.37-8.28,2.83-.69,5.79-1.51,8.87-2.47,2.27-.71,4.43-1.45,6.5-2.2Z"/>
            <path class="cls-13" d="m278.42,273.55c2.13,6.49-1.86,12.35-6,12.95-3.59.52-8.22-2.77-9.37-8.28,2.83-.69,5.79-1.51,8.87-2.47,2.27-.71,4.43-1.45,6.5-2.2Z"/>
          </g>
        </g>
      </g>
      <path class="cls-11" d="m43.47,531.76c.94,20,2.68,47.24,6.16,79.64-9.96-78.36-8.18-138.68-4.88-183.1-3.56,55.2-1.28,103.46-1.28,103.46Z"/>
      <path class="cls-11" d="m47.49,396.42c1.58-16.82,3.74-35.32,9.2-55.94-4.16,17.44-7.12,36.64-9.2,55.94Z"/>
      <path class="cls-11" d="m71.13,387.08c.26-2.82.54-5.7.82-8.66-.2,3.86-.26,5.1-1,10.64.06-.66.12-1.32.18-1.98Z"/>
      <path class="cls-11" d="m77.93,286.34c-1.5,3.22-2.86,5.38-3.18,5.92,1.46-3.02,2.88-5.74,4.18-8.2-.32.76-.64,1.52-1,2.28Z"/>
      <path class="cls-11" d="m81.13,280c-.02.26-.06.52-.08.76.02-.24.04-.48.06-.74.02,0,.02-.02.02-.02Z"/>
      <path class="cls-11" d="m86.15,465.76c.08.22.16.44.22.66-2.7-6.66-5.84-11-9-17.74,2.82,4.96,5.6,8.08,8.78,17.08Z"/>
      <path class="cls-11" d="m94.55,515.66c-2.02-.86-1.76-7-2.1-15.96.68,9.62.32,15.08,2.1,15.96Z"/>
      <path class="cls-11" d="m106.61,490.22h.02v.02c-.3,1.3-.52,5.68-2.28,11.08,1.94-6.14,1.74-11.1,2.26-11.1Z"/>
      <path class="cls-11" d="m107.89,498.06c.1,1.9.12,4.02,0,6.26.08-2.28.08-4.4,0-6.26Z"/>
      <path class="cls-11" d="m108.07,522.06c.12.1,1.32,1.02,2.74.82-1.1.28-2.08-.26-2.14-.3-.24-.14-.44-.32-.6-.52Z"/>
      <path class="cls-11" d="m117.47,506.12c.04-.4.08-.8.1-1.22-.02.6-.06,1.22-.08,1.86,0-.2,0-.42-.02-.64Z"/>
      <path class="cls-11" d="m207.39,634.9c2.68,1.64,6.28,3.78,10.14,6.3-.08-.04-.16-.08-.22-.12-2.7-1.58-6.08-3.68-9.92-6.18Z"/>
      <path class="cls-11" d="m243.93,668.34c.3,1.1.68,2.94,1.4,4.1-.94-1.26-1.24-3.24-1.4-4.1Z"/>
      <path class="cls-11" d="m249.97,669.56c.16,1.38.04,2.72-.8,3.46-.66.58-1.72.74-2.56.44,1.08.18,2.08-1.06,2.3-1.32.62-.76.94-1.6,1.06-2.58Z"/>
      <path class="cls-11" d="m251.01,647.12c.06.1.1.22.14.32-.02-.02-.02-.04-.04-.06-.04-.08-.06-.16-.1-.26Z"/>
      <path class="cls-7" d="m413.93,449.38c-2.91,17.55-5.96,35.09-9.45,52.53-1.12,5.57-2.27,11.14-3.6,16.67-.73,3.03-1.32,6.36-2.78,9.14s-3.5,4.94-6.13,6.12c-3.44,1.54-7.23-.08-9.17-2.77-.93-1.29-3.1-.05-2.16,1.26,1.77,2.46,4.41,4.27,7.47,4.61s5.99-1.03,8.24-3c3.48-3.04,4.97-7.04,6.1-11.35,3.33-12.66,5.61-25.64,7.97-38.51,2.08-11.33,4.04-22.68,5.92-34.04.26-1.57-2.15-2.25-2.41-.66h0Z"/>
      <path class="cls-12" d="m214.78,444.64c-1.91-.97-12.37,13.13-19.12,29.25-3.07,7.32-4.85,13.69-5.9,18.11,2.29-.06,6.54.16,11.04,2.51,8.11,4.25,10.75,12.16,11.29,13.93.84-.84,10.11-10.19,13.54-17.4.31-.65,1.89-4.08,1.41-7.91-.13-1-.37-1.85-1-2.56-1.43-1.62-3.88-1.47-4.42-1.44-.65.04-1.32.17-5.42,2.21-2.29,1.14-3.44,1.71-3.42,1.75.04.09,2.37-.6,4.58-2.25,1.41-1.05,2.46-1.85,2.75-3.25.41-1.97-1.14-3.71-1.38-3.96-1.32-1.43-3.04-1.7-3.88-1.83-5.65-.89-11.23,5.05-11.21,5.08,0,.01.93-.65,5.42-3.98.08-.68.22-1.72.42-2.98.92-5.74,2.13-9.22,3.17-13.08,1.83-6.79,3.15-11.69,2.12-12.21Z"/>
      <path class="cls-12" d="m353.49,410.8c-.06,2.66-.6,10.02-5.88,17.16-4.86,6.58-11.06,9.3-13.58,10.26-1-1.92-2.6-4.64-5-7.58-8.82-10.8-19.8-13.78-19.26-15.5.76-2.42,22.42,3.22,23.26.76.78-2.36-18.24-9.54-17.38-12.26.52-1.64,8.28-1.62,15,1,4.74,1.84,7.32,4.34,7.74,3.88,1.14-1.2-16.18-17.16-14.36-19.5,1.14-1.5,9.78,2.76,16.24,7.62,6.52,4.9,10.72,10.34,13.22,14.16Z"/>
      <path class="cls-9" d="m184.15,3.14c18.33,46,36.67,92,55,138,5.33-27,10.67-54,16-81,11,43.67,22,87.33,33,131-23.35-7.78-58.03-16.42-100.67-16.83-40.01-.39-72.99,6.62-95.83,13.33,3.33-42.17,6.67-84.33,10-126.5,14.83,26.83,29.67,53.67,44.5,80.5,12.67-46.17,25.33-92.33,38-138.5Z"/>
      <path class="cls-11" d="m120.4,196.58c-2.11-2.12,21.29-31.22,28.06-27.75,2.06,1.05.96,4.29,3.56,5.69,4.11,2.21,9.2-4.59,20.5-5.62,5.72-.52,6.76,1,7,1.44.77,1.41-.36,3.39-.63,3.87-2.8,4.93-9.31,3.54-18.56,7.01-10.39,3.9-14.19,10.17-18.19,8.19-2.08-1.03-2.89-3.65-3.25-5.56-13.84,11.47-17.79,13.46-18.5,12.75Z"/>
      <g>
        <path class="cls-3" d="m106.4,129.14l15.04,15.04c-3.81.54-7.63,1.09-11.44,1.63-3.14-3.14-6.27-6.27-9.41-9.41,1.94-2.42,3.87-4.84,5.81-7.26Z"/>
        <path class="cls-8" d="m100.54,155.28c1.66,2.02,3.33,4.05,4.99,6.07,5.33-5.33,10.65-10.65,15.98-15.98-3.83.3-7.65.6-11.48.9-3.16,3-6.32,6.01-9.49,9.01Z"/>
        <path class="cls-8" d="m100.74,137.06l8.33,8.58c-3,3.37-6,6.74-9,10.11-2.74-2.74-5.47-5.47-8.21-8.21,2.96-3.49,5.92-6.99,8.87-10.48Z"/>
      </g>
      <path class="cls-11" d="m211.82,164.81c.64-1.59,5.09-1.18,6.82-1.02,15.32,1.41,43.68,14.29,42.18,18.11-.77,1.96-8.76-.47-9.58,1.83-1.2,3.36,14.84,11.33,13.76,13.67-.12.27-.59.7-3.43.42-6.57-.66-11.32-3.69-13-4.75-10.9-6.89-19.19-8.15-18.75-9.83.38-1.49,6.75-.64,6.92-1.75.23-1.52-11.78-3.53-21.58-11.92-2.53-2.17-3.74-3.75-3.33-4.75Z"/>
      <path class="cls-10" d="m106.4,129.14l15.67,15.67c-5.51,5.51-11.03,11.03-16.54,16.54l-13.67-13.67c4.85-6.18,9.69-12.36,14.54-18.54Z"/>
      <g>
        <path class="cls-8" d="m257.9,145.14c3.87-.03,7.74-.06,11.62-.08,3.1-3.48,6.2-6.96,9.3-10.44-2.08-2.03-4.15-4.07-6.23-6.1-4.9,5.54-9.79,11.08-14.69,16.62Z"/>
        <path class="cls-8" d="m258.4,146.08c3.83-.22,7.65-.44,11.48-.66l9.28,9.28c-1.73,2.46-3.46,4.92-5.19,7.38-5.19-5.33-10.38-10.67-15.56-16Z"/>
        <path class="cls-1" d="m279.27,135.1c2.96,3.15,5.92,6.3,8.88,9.44-2.74,3.36-5.47,6.72-8.21,10.07-3.24-3.05-6.49-6.11-9.73-9.16,3.02-3.45,6.04-6.9,9.06-10.36Z"/>
      </g>
      <path class="cls-10" d="m256.96,145.64l17,17,14.56-17.88c-5.27-5.6-10.54-11.21-15.81-16.81-5.25,5.9-10.5,11.79-15.75,17.69Z"/>
      <path class="cls-10" d="m269.52,145.06c3.35,3.35,6.69,6.69,10.04,10.04,2.87-3.52,5.73-7.04,8.6-10.55-3.11-3.31-6.22-6.62-9.33-9.93-3.1,3.48-6.2,6.96-9.3,10.44Z"/>
      <path class="cls-10" d="m256.96,145.64c4.18-.19,8.37-.39,12.55-.58"/>
      <path class="cls-10" d="m100.6,136.4c3.14,3.14,6.27,6.27,9.41,9.41-3.31,3.31-6.62,6.62-9.93,9.93-2.74-2.74-5.47-5.47-8.21-8.21,2.91-3.71,5.82-7.42,8.73-11.14Z"/>
      <path class="cls-10" d="m110.01,145.81c4.02-.34,8.04-.67,12.06-1.01"/>
      <g>
        <path class="cls-3" d="m181.36,101.62c3.53-3.53,7.06-7.06,10.58-10.58,3.54,3.54,7.08,7.08,10.62,10.62v38.42c-2.72,2.72-5.45,5.45-8.17,8.17-3.9-2.82-7.8-5.64-11.7-8.45-.44-12.72-.89-25.44-1.33-38.17Z"/>
        <path class="cls-5" d="m173.82,95.99c2.51,1.87,5.03,3.73,7.54,5.6,3.54-3.41,7.08-6.82,10.63-10.22-.96-3.68-1.92-7.36-2.88-11.04-5.1,5.22-10.19,10.44-15.29,15.67Z"/>
        <path class="cls-1" d="m190.36,80.78c6.53,5.39,13.05,10.78,19.58,16.17-2.4,1.67-4.8,3.33-7.21,5-3.39-3.43-6.77-6.85-10.16-10.28-.74-3.63-1.48-7.26-2.22-10.89Z"/>
        <path class="cls-8" d="m172.94,96.2c2.81,1.81,5.61,3.61,8.42,5.42.63,12.67,1.25,25.33,1.88,38-3.04,3.18-6.08,6.36-9.13,9.54-.39-17.65-.78-35.3-1.17-52.96Z"/>
        <path class="cls-8" d="m183.51,140.38c-2.9,2.94-5.8,5.88-8.7,8.82,6.56,4.81,13.11,9.61,19.67,14.42,5.42-6.19,10.83-12.39,16.25-18.58-2.73-1.66-5.45-3.31-8.18-4.97-2.64,2.6-5.27,5.2-7.91,7.8-3.71-2.5-7.42-4.99-11.14-7.49Z"/>
        <path class="cls-8" d="m202.86,102.43c2.24-1.57,4.47-3.15,6.71-4.72.44,15.51.89,31.03,1.33,46.54-2.78-1.65-5.56-3.31-8.34-4.96.1-12.29.2-24.57.3-36.86Z"/>
      </g>
      <g>
        <path class="cls-10" d="m172.9,95.39c5.55-5.55,11.11-11.11,16.66-16.66,6.78,5.8,13.56,11.61,20.34,17.41.5,16.08,1,32.17,1.5,48.25-5.58,6.25-11.17,12.5-16.75,18.75-7.08-4.75-14.17-9.5-21.25-14.25-.17-17.83-.33-35.67-.5-53.5Z"/>
        <path class="cls-10" d="m181.32,100.81c3.53-3.53,7.06-7.06,10.58-10.58,3.54,3.54,7.08,7.08,10.62,10.62v38.42l-8.17,8.17c-3.9-2.82-7.8-5.64-11.7-8.45-.44-12.72-.89-25.44-1.33-38.17Z"/>
        <path class="cls-10" d="m183.08,139.29c-3.3,3.31-6.59,6.62-9.89,9.94"/>
        <path class="cls-10" d="m202.52,139.26c2.99,1.82,5.98,3.65,8.97,5.47"/>
        <path class="cls-10" d="m172.9,95.37c2.81,1.81,5.61,3.61,8.42,5.42"/>
        <path class="cls-10" d="m202.82,101.62c2.36-1.83,4.72-3.67,7.08-5.5"/>
        <path class="cls-10" d="m189.58,78.73c.78,3.83,1.56,7.66,2.34,11.5"/>
      </g>
      <g>
        <circle class="cls-14" cx="131.03" cy="220.89" r="5.12"/>
        <circle class="cls-14" cx="231.08" cy="210.64" r="5.12"/>
        <path class="cls-7" d="m124.02,231.47c3.76,2.8,9.04,3.3,13.29,1.4,3.33-1.49,6.03-4.56,7.18-8.02.51-1.53-1.91-2.19-2.41-.66-.04.11-.08.22-.12.33-.02.06-.17.4-.04.11-.04.1-.09.2-.14.3-.3.63-.64,1.25-1.03,1.83-1.11,1.66-2.65,3.01-4.47,3.85-3.54,1.64-7.89,1.02-11-1.29-1.29-.96-2.54,1.21-1.26,2.16h0Z"/>
        <path class="cls-7" d="m222.32,217.65c1.45,2.89,4.24,5.23,7.3,6.21,3.96,1.26,8.39.2,11.54-2.45,1.23-1.04-.54-2.8-1.77-1.77-.06.05-.12.1-.18.15-.19.15.22-.16-.03.02s-.49.35-.74.51c-.64.4-1.32.75-2.03,1-2.06.73-4.26.78-6.34.06-2.42-.83-4.47-2.76-5.58-4.98-.72-1.44-2.88-.17-2.16,1.26h0Z"/>
      </g>
      <path class="cls-15" d="m450.14,641.61c-12.08,10.36-27.7,21.72-47.14,31.72-42.7,21.96-82.86,26.52-107.72,27.18,1.9-5.26,2.96-12.02,4.1-16.96,4.72-20.28,13.38-20.32,37.76-56.5,20.82-30.92,31.98-56.86,35.74-66,2.66-6.44,6.44-15.74,10.16-27.88-.18-.22-.36-.44-.54-.68-.24-.34-.52-.72-.78-1.1-1.06-1.52-2.1-3.32-3.16-5.34-.24-.48-.5-.96-.74-1.48-.12-.2-.22-.42-.32-.62-.26-.52-.52-1.04-.78-1.58-.78-1.62-1.56-3.34-2.38-5.12-2-4.38-4.12-9.26-6.52-14.3-7.38-15.56-19.3-37.22-38.68-61.68,5.94-1.04,12.78-3.42,17.68-9,7.6-8.64,5.4-19.26,8-20,3.48-.98,13.12,16.62,36.5,80.34.52-12.16,1.56-25.32,3.4-39.28-.66-14.06-3.08-34.74-10.74-58.38-1.96-6.08-5.08-14.88-9.84-25.26.02.02.06.04.08.1,1.78,1.56,10.76,9.42,15.94,9.5.54-.16,1.92-.62,2.38-1.8.12-.28.16-.54.16-.84v-.02c-.72-2.42-4.02-5.9-6.18-8.28-.44-.48-.86-.94-1.14-1.32-.56-.64-.86-1.08-.74-1.22.16-.18,1,.12,2.3.72.02,0,.06.02.08.02,2.52.76,7.88,3.24,17.66,8.36l.02.02c11.58,32.78,22.74,71.2,31.12,114.68,11.06,57.48,14.4,109.12,14.32,152Z"/>
    </g>
  </g>
</svg>