<?xml version="1.0" encoding="UTF-8"?>
<svg id="Capa_2" data-name="Capa 2" xmlns="http://www.w3.org/2000/svg" viewBox="0 0 414.78 801.34">
  <defs>
    <style>
      .cls-1 {
        fill: #120907;
      }

      .cls-1, .cls-2 {
        stroke-width: 0px;
      }

      .cls-3 {
        fill: #02a7d4;
      }

      .cls-3, .cls-4, .cls-5, .cls-6, .cls-7, .cls-8, .cls-9 {
        stroke: #1d1d1b;
        stroke-miterlimit: 10;
        stroke-width: 2px;
      }

      .cls-2 {
        fill: #010101;
      }

      .cls-4 {
        fill: #2961ab;
      }

      .cls-5 {
        fill: #fffffd;
      }

      .cls-6 {
        fill: #f09ca0;
      }

      .cls-7 {
        fill: #fff;
      }

      .cls-8 {
        fill: #f9dbcb;
      }

      .cls-9 {
        fill: #4c140d;
      }
    </style>
  </defs>
  <g id="Capa_24" data-name="Capa 24">
    <g>
      <path class="cls-1" d="m276.72,59.57c.99-.56,6.72-3.72,13.84-1.64,7.23,2.11,10.37,8.03,10.88,9.02,1.37.24,7.81,1.51,12.15,7.52,5.25,7.27,3.07,15.41,2.78,16.43.99,1.08,6.19,6.94,5.67,15.62-.65,10.88-9.71,16.52-10.53,17.01,3.11,4.83,2.74,10.98-.69,14.93-4.11,4.72-11.89,5.45-17.37,1.04-5.57-26.64-11.14-53.28-16.71-79.92Z"/>
      <path class="cls-8" d="m177.4,219.96c-9.81-.48-25.47-2.47-42.69-10.41-5.1-2.35-22.51-10.38-34.36-24.47-21.6-25.7-20.73-66.81-8.85-94.76C113.65,38.19,184.49,7.39,238.84,30.97c4.19,1.82,48.13,21.74,56.75,67.68,8.13,43.3-18.59,91.18-67.68,113.5,1.1,10.57,2.2,21.13,3.3,31.7-2.48,2.43-10.64,9.85-23.6,11.34-15.12,1.74-25.99-5.82-28.46-7.64-.58-9.2-1.16-18.4-1.74-27.59Z"/>
      <path class="cls-3" d="m276.33,253.81c9.29,21.99,18.55,47.95,26.03,77.58,9.81,38.83,14.06,73.93,15.62,103.09-25.39,12.91-64.45,28.56-114.02,32.8-23.41,2-44.35,1.05-61.96-1.04,1.6-8.7,3.35-21.95,2.6-38.01-1.1-23.56-6.89-38.1-13.36-62.91-3.75-14.39-8.54-35.3-12.15-61.53-15.97,8.33-31.93,16.66-47.9,24.99-2.54-4.01-5.09-8.02-7.63-12.02-3.18-5.02-6.37-10.03-9.55-15.05,20.05-14.06,45.71-29.32,77.06-42.17,17.02-6.98,33.15-12.2,47.9-16.14,1.54,1.37,4.01,3.31,7.41,4.92,11.35,5.36,22.45,1.99,30.71-.52,9.8-2.98,11.7-6.08,12.38-7.52,1.48-3.12,1.01-6.36.52-8.33,34.5-8.68,69-17.35,103.49-26.03,0,3.49.4,8.58,2.31,14.35,2.21,6.66,5.52,11.45,7.87,14.35-22.45,6.4-44.89,12.8-67.34,19.21Z"/>
      <path class="cls-8" d="m41.23,503.37c-.27.09,2.99,5.95,5.44,14.46.32,1.1.92,3.3,2.55,3.82,1.18.37,2.67-.21,3.47-1.16,1.48-1.74.54-4.61-.69-8.56-3.49-11.18-4.02-13.93-4.17-13.88-.21.06,2.24,4.99,4.17,13.88.72,3.31,1.17,6.3,3.12,6.94,1.09.36,2.47-.08,3.24-.93,1.23-1.36.72-3.64.46-4.74-2.6-11.01-3.9-16.52-4.4-17.47-4.08-7.89-38.71-87.42-17.07-133.63,4.32-9.21,13.23-22.13,33.84-33.32-5.73-9.02-11.45-18.05-17.18-27.07-11.2,6.56-28.24,18.78-40.09,39.57-21.6,37.89-11.5,78.83-2.78,114.2,9.66,39.16,27.24,70.99,32.28,69.65.49-.13,1.82-.83,2.6-2.14,1.29-2.14.45-4.79-1.04-9.11-2.42-7.03-3.64-10.54-3.76-10.5Z"/>
      <path class="cls-8" d="m333.48,205.91c10.45-1.77,26.88-6.33,38.64-19.78,15.18-17.37,14.14-39.93,12.5-75.49-1.21-26.17-7.73-84.95-8.85-92.15-.26-1.69-.26-2.63-.26-4.51,0-3.71.54-5.27,1.18-6.41.46-.82,1.16-2.05,2.38-2.27,1.38-.25,2.63.92,3.04,1.3,2.22,2.09,2.29,5.01,3.12,14.23,0,0,.48,5.31.61,5.29.06,0-4.25-22.94.93-24.97,1.3-.51,2.85.48,3.4.84,1.24.8,3,2.6,3.92,13.01.4,4.45.5,8.85.41,8.86-.09,0-.31-4.79-.39-8.24-.2-7.75.24-9.79,1.7-11.2.32-.31,1.84-1.7,3.38-1.3.41.11,1.85.69,2.6,4.77,29.46,159.79-4.69,195.94-4.69,195.94-8.69,9.2-24.89,22.83-53.45,30.78-2.24-2.76-5.36-7.26-7.56-13.46-2.21-6.21-2.62-11.67-2.62-15.23Z"/>
      <path class="cls-4" d="m142,466.23c1.48,17.59,1.41,40.61-4.17,66.64-2.56,11.93-5.87,22.61-9.37,31.93,9.48,4.14,27.78,10.81,36.79,2.78,3.82-3.41,4.51-8.16,5.32-12.5,2.01-10.77,6.06-26.1,15.16-45.47,12.33.26,26.94-.35,43.16-2.89,21.58-3.38,39.69-9.18,53.68-14.81,4.56,40.29,5.73,55.1,5.39,57.96-.02.21-.12.93.16,1.74.75,2.13,3.56,3.32,9.83,4.28,0,0,13.85,2.13,23.28-1.98.42-.18,1.28-.57,1.82-1.46.4-.66.41-1.25.53-2.47.19-2.01.33-2.26.4-3.24.95-12.38-.03-22.3-.03-22.3-1-10.12-.82-20.32-1.59-30.46-1.29-17.09-2.7-36.28-4.4-59.53-19.37,9.95-47.31,21.7-82.52,28.43-38.21,7.3-70.87,6-93.46,3.33Z"/>
      <path class="cls-8" d="m128.46,564.81c-6.88,33.09-13.05,68.42-18.05,105.87-3.3,24.71-5.86,48.63-7.81,71.68,7.93-.23,15.85-.46,23.78-.69,2.92-22.34,6.26-45.21,10.07-68.55,5.75-35.3,12.16-69.26,19.04-101.82-9.01-2.16-18.02-4.32-27.03-6.48Z"/>
      <path class="cls-8" d="m297.96,555.9c.63,15.77,1.06,31.81,1.27,48.13.6,46.39-.63,90.81-3.24,133.05,3.46-.07,7.09-.06,10.88.06,4.3.14,8.39.4,12.26.75,3.17-35.05,5.19-72.71,5.44-112.69.16-25.24-.4-49.52-1.51-72.74-8.37,1.14-16.73,2.29-25.1,3.43Z"/>
      <path class="cls-5" d="m296.81,728.46c-.81-.01-8.83.01-12.84,6.07-2.77,4.19-2.6,9.73-.69,13.36,6.34,12.06,37.23,13.39,47.02.34.6-.8,4.87-6.49,2.79-12.14-1.66-4.51-6.83-7.57-13.19-7.98-.46,2.72-.93,5.44-1.39,8.16-7.1-.21-14.19-.41-21.29-.62-.14-2.4-.27-4.79-.41-7.19Z"/>
      <path class="cls-2" d="m292.66,755.17c.32,3.18.64,8.02.32,13.9-.47,8.68-1.79,9.93-1.04,12.84.97,3.77,4.72,7.66,30.72,14.4,27.8,7.22,33.49,5.36,36.76,2.39.45-.41,4.23-3.94,4.37-8.99.17-6.01-4.89-10.42-6.07-11.45-6.95-6.05-19.09-8.34-31.3-10.64-.82-.16-2.53-.47-3.7-1.85-2.6-3.06-.52-8.9.86-12.05-10.3.48-20.61.97-30.91,1.45Z"/>
      <path class="cls-5" d="m126.91,732.15c.81.04,8.81.6,12.41,6.92,2.49,4.37,1.95,9.88-.2,13.38-7.13,11.61-38.05,10.87-46.93-2.81-.54-.84-4.42-6.8-1.97-12.3,1.95-4.39,7.32-7.1,13.69-7.08.28,2.74.56,5.49.84,8.23,7.09.27,14.19.54,21.28.81.3-2.38.59-4.76.89-7.15Z"/>
      <path class="cls-2" d="m129.25,759.07c-.53,3.16-1.17,7.96-1.25,13.85-.12,8.69,1.12,10.03.18,12.88-1.22,3.7-5.22,7.32-31.61,12.32-28.22,5.34-33.77,3.11-36.84-.07-.42-.44-3.96-4.21-3.76-9.26.23-6.01,5.57-10.07,6.83-11.02,7.34-5.57,19.6-7.05,31.94-8.53.83-.1,2.55-.3,3.82-1.6,2.8-2.88,1.12-8.84-.05-12.08,10.25,1.17,20.5,2.34,30.75,3.51Z"/>
      <path class="cls-1" d="m89.59,93.21c-1.8.04-9.92.4-16.66,6.94-6.52,6.33-7.28,14.11-7.4,15.97-1.13.56-9.13,4.71-11.34,14.12-2.66,11.33,5.56,19.68,6.02,20.13-.53,2.61-1.51,9.39,1.85,16.66,1.08,2.34,3.57,7.53,9.49,10.88,4.33,2.44,8.48,2.77,10.64,2.78,4.89,4.34,11.82,5.42,17.59,2.78,8.03-3.68,9.2-12.48,9.26-12.96.94-.65,4.23-3.11,5.32-7.64,1.61-6.7-3.09-11.86-3.47-12.26.83-1.02,4.28-5.45,3.7-11.57-.57-6.02-4.81-11.31-10.88-13.65-.13-2.31-.78-8.46-5.32-14.35-4.03-5.22-8.98-7.47-11.18-8.31.8-3.17,1.59-6.34,2.39-9.5Z"/>
      <path class="cls-1" d="m167.69,136.49c.17,1.78,1.43,12.26,8.85,15.62,5.61,2.54,11.62-.42,12.15-.69,4.71-2.41,6.44-6.53,9.55-12.67,8-15.82,12.01-23.73,17.35-24.64,3.94-.68,7.72,2.38,15.27,8.5,9.74,7.89,9.86,11.79,16.17,14.05,5.7,2.05,14,1.89,18.19-2.95,4.61-5.33,2.16-13.94,1.74-15.45-4.6-16.18-28.12-28.94-49.81-27.25-27.49,2.15-51.19,27.48-49.46,45.47Z"/>
      <path class="cls-9" d="m190.29,150.45c.3,9.28,15.58,18.1,28.76,17.11,17.7-1.34,32.84-20.46,29.5-30.02-.61-1.74-1.69-2.77-2.81-3.81-10.38-9.66-33.21-7.52-47.1,4.2-3.69,3.11-8.53,7.19-8.36,12.53Z"/>
      <path class="cls-6" d="m200.45,163.2c7.09-6.77,16.43-9.52,24.34-6.79,4.18,1.45,7.03,4.1,8.73,6.09-2.44,1.58-9.14,5.43-18.35,5.07-7.01-.28-12.2-2.88-14.73-4.37Z"/>
      <path class="cls-7" d="m198.1,138.38c.74-.64,1.53-1.28,2.39-1.92,2.35-1.75,4.65-3.08,6.74-4.09,3.14,3.94,2.2,8.79-.03,10.19-2.19,1.37-6.84.17-9.1-4.18Z"/>
      <path class="cls-7" d="m214.39,129.57c1.18-.35,2.47-.69,3.86-.98,1.9-.4,3.68-.65,5.3-.79.78,3.24-1.52,6.17-4.12,6.36-2.27.17-4.68-1.76-5.03-4.59Z"/>
      <path class="cls-7" d="m226.78,127.63c1.63-.03,3.05.05,4.19.17.36.04,1.57.16,3.14.45.73.14,1.47.27,2.43.54.89.25,1.63.51,2.17.72-.49,3.28-3.03,5.64-5.66,5.77-3.31.16-6.74-3.25-6.28-7.64Z"/>
      <circle class="cls-1" cx="153.19" cy="96.68" r="5.81"/>
      <circle class="cls-1" cx="253.59" cy="76.96" r="6.07"/>
    </g>
  </g>
</svg>