<?xml version="1.0" encoding="UTF-8"?>
<svg id="Capa_2" data-name="Capa 2" xmlns="http://www.w3.org/2000/svg" viewBox="0 0 499 732.57">
  <defs>
    <style>
      .cls-1 {
        fill: #00abd4;
      }

      .cls-1, .cls-2, .cls-3, .cls-4, .cls-5 {
        stroke: #1d1d1b;
      }

      .cls-1, .cls-2, .cls-3, .cls-4, .cls-5, .cls-6 {
        stroke-miterlimit: 10;
        stroke-width: 2px;
      }

      .cls-2 {
        fill: #2a62ac;
      }

      .cls-7 {
        fill: #010101;
      }

      .cls-7, .cls-8, .cls-9, .cls-10 {
        stroke-width: 0px;
      }

      .cls-9 {
        fill: #c7a517;
      }

      .cls-10, .cls-3 {
        fill: #fff;
      }

      .cls-4 {
        fill: none;
      }

      .cls-5 {
        fill: #fcdacd;
      }

      .cls-6 {
        fill: #e8d14e;
        stroke: #c7a517;
      }
    </style>
  </defs>
  <g id="Capa_27" data-name="Capa 27">
    <g>
      <path class="cls-5" d="m192.53,37.28c-6.3,3.92-15.26,9.67-20.25,20.75-11.26,25,8.62,52.96,9.75,54.5,22.01,30.05,69.62,36.28,102.75,20.75,6.93-3.25,35.3-16.55,38.5-43,3.12-25.79-19.98-45.1-25.25-49.5-31.44-26.28-78.12-20.57-105.5-3.5Z"/>
      <path class="cls-7" d="m194.3,662.01c.95,31.92,1.16,55.19.74,58.5-.36,2.87-1.6,5.18-1.6,5.18s-.74,1.37-1.79,2.57c-3.65,4.17-53.34,10.67-60.68-10.62-1.95-5.67-.82-13.05,2.47-18.29,5.02-8,12.49-6.3,16-13.33,4.8-9.61-4.18-18.55-.67-24.67,2.81-4.89,13.36-7.51,45.52.65Z"/>
      <path class="cls-7" d="m415.93,600.9c24.03,21.03,41.22,36.73,43.36,39.28,1.86,2.21,2.7,4.7,2.7,4.7s.5,1.47.67,3.06c.57,5.51-28.5,46.33-49.09,37.22-5.48-2.43-10.12-8.28-11.71-14.26-2.44-9.13,3.89-13.43,1.13-20.8-3.77-10.06-16.44-9.57-18.52-16.3-1.67-5.39,3.6-14.9,31.47-32.9Z"/>
      <path class="cls-10" d="m150.01,639.23c10.2-6.37,28.63-12.01,42.14-2.48,2.31,1.63,9.27,6.54,9.3,13.28.03,10.9-18.09,21.33-34,20.67-13.81-.58-29.27-9.67-29-18.67.17-5.69,6.58-9.69,11.57-12.8Z"/>
      <path class="cls-10" d="m369.09,617.83c2.28-11.81,10.7-29.15,26.87-32.55,2.77-.58,11.1-2.34,16.06,2.23,8.01,7.4,3.31,27.78-8.01,38.97-9.83,9.72-27.01,14.86-33.42,8.53-4.05-4-2.62-11.41-1.5-17.19Z"/>
      <path class="cls-5" d="m294.78,473.03c3.67,10,7.33,20,11,30-.54,6.39-.55,16.76,3.5,28.5,6.62,19.18,19.95,29.99,25.5,34,4.84,11.26,9.66,20.33,13.5,27,5.88,10.22,9.15,14.24,14,17.5,1.98,1.33,7.79,5.23,15,5.5,11.09.42,22.09-7.89,28.5-20.5-3.42-9.91-7.75-17.79-12-24-9.48-13.85-15.53-14.95-21-27-4.9-10.78-2.02-14.23-7-25-4.65-10.07-11.68-16.82-17-21-.33-10.17-.67-20.33-1-30.5-17.67,1.83-35.33,3.67-53,5.5Z"/>
      <path class="cls-5" d="m151.28,464.03c-2.32,3.65-.61,12.77,0,16,.96,5.13,2.63,9.2,4,12-3.07,9.76-5.96,22.15-7.05,36.66-1.74,23.34,1.91,42.73,5.55,55.84-2.81,5.17-7.79,15.97-8,30.5-.22,15.03,4.76,26.27,7.5,31.5,2.67,1.79,7.8,4.67,14.83,5.5,10.47,1.23,18.41-2.9,21.17-4.5,2.92-9.36,5.96-22.75,6-39,.03-13.06-1.89-24.14-4-32.5,3.04-9.7,6.13-22.8,7-38.5.84-15.21-.65-28.21-2.5-38,4.33-8.17,8.67-16.33,13-24.5-4.62-1.94-51.02-21.2-57.5-11Z"/>
      <path class="cls-5" d="m373.81,369.66c1.49-1.95,6.85-1.61,8.49.81,2.91,4.29-5.65,15.34-7.69,14.56-1.05-.4.53-3.62-.67-10.79-.42-2.48-.86-3.63-.14-4.58Z"/>
      <path class="cls-5" d="m361.15,369.63c.36-2.16,2.27-4.24,4.31-4.58,3.96-.66,8.27,5.23,9.44,10.38,1,4.41.35,11.09-3.51,12.67-1.8.74-4.38.4-5.8-1.08-2-2.09.15-4.56-1.21-9.44-1.22-4.37-3.71-5.15-3.24-7.96Z"/>
      <path class="cls-2" d="m152.69,321.86c-11.43,76.14-19.43,132.01-19.37,136.03.05,3.48,1.79,5.3,1.79,5.3.88.92,1.88,1.33,2.47,1.54,18.95,6.57,37.45,6.8,37.45,6.8,16.28.2,12.23,4.99,38.25,9,5.45.84,26.07,3.77,53.25,1.25,15.21-1.41,12.39-2.67,23.5-3.25,28.16-1.47,36.1,7.13,53.25.75,2.99-1.11,15.7-5.84,19.5-16.75,1.13-3.25,1.11-6.02,1.09-7.27-.29-18.12-7.57-99.35-8.09-105.23-67.7-9.39-135.39-18.78-203.09-28.17Z"/>
      <path class="cls-3" d="m155.11,127.36c-2.84-37.52-6.64-117.08,15.74-124.76,1.35-.46,11.61-3.99,17.47,1.21,6.42,5.7,3.14,17.97,2.79,19.22,19.78-2.67,43.82-4.21,71-2.33,17.11,1.18,32.64,3.52,46.33,6.33.06-1.49.6-11.62,8.67-17.33,6.25-4.43,15.03-4.79,20.67-1.67,9.78,5.43,9.84,21.26,9.33,61.33-.34,27.27-.74,49.13-1,62.67-6.24,5.53-16.28,13.05-23.67,10-15.34-6.34,2.57-49.29-19.17-79.5-17.29-24.03-52.96-30.7-78.93-25.68-3.72.72-41.86,8.54-49.07,32.56-3.13,10.43,1.72,16.76-2.38,30.88-3.69,12.73-11.72,21.63-17.79,27.08Z"/>
      <path class="cls-8" d="m188.44,81.03c.28.65,3.92-1.34,8.74-.79,4.63.53,7.64,3.09,8.1,2.46.17-.24-.02-.93-2.17-3.17.18-.76.36-1.89.25-3.25-.1-1.26-.27-3.31-1.58-4.58-1.99-1.93-6.4-1.88-8.59.75-1.86,2.24-1.17,5.2-1.07,5.58-3.19,1.96-3.8,2.7-3.67,3Z"/>
      <path class="cls-8" d="m277.57,89.32c.28.65,3.92-1.34,8.74-.79,4.63.53,7.64,3.09,8.1,2.46.17-.24-.02-.93-2.17-3.17.18-.76.36-1.89.25-3.25-.1-1.26-.27-3.31-1.58-4.58-1.99-1.93-6.4-1.88-8.59.75-1.86,2.24-1.17,5.2-1.07,5.58-3.19,1.96-3.8,2.7-3.67,3Z"/>
      <path class="cls-4" d="m193.78,62.03c.73-.46,4.57-2.8,9.5-1.67,4.06.94,6.35,3.66,7,4.5"/>
      <path class="cls-4" d="m279.61,70.36c1.32-.85,4.93-2.92,9.83-2.67,3.21.17,5.65,1.26,7,2"/>
      <path class="cls-6" d="m220.44,37.32c9.35,8.97,30.17,27.65,40.5,24,.72-.25,6.19-2.19,6-4-.11-1.02-1.93-1.37-4.13-2.38-5.88-2.7-9.04-7.59-8.87-7.78.28-.31,9.28,11.43,24,14.5,5.02,1.05,10.47,1.04,10.67.17.14-.62-2.47-1.35-6.29-3.82-4.55-2.94-7.19-6-7.04-6.18.29-.35,10.28,11.82,21,10.33,3.14-.43,7.44-2.19,7.83-4.83.82-5.45-15.35-12.09-20-14-12.08-4.96-32.76-10.51-63.67-6Z"/>
      <path class="cls-5" d="m139.11,371.36c-.47.16-11.29,3.74-18.67-2.33-3.36-2.76-6.6-8.01-5.33-13,.73-2.87,3.1-6.28,5.33-6,2.08.26,4.04,3.73,4,8.67.69-1.01,1.39-2.03,2.08-3.04-.84-.54-2.11-1.5-3.27-3,0,0-2.01-2.62-2.61-6.37-1.29-8.09,4.95-21.91,5.38-21.75.27.11-.83,6.48-5.2,9.03-.7.41-1.84.93-3.55,1.09-37.24,3.65-81-15.62-81-15.62-19.54-8.61-25.44-13.56-29.5-20.25-5.24-8.64-5.61-17.24-5.75-21.75-.85-27.04,18.32-48.07,31.25-62.25,6.58-7.22,17.01-17.37,32-27.25,5.15-12.28,15.69-31.87,36.5-43.5,19.18-10.71,38.2-9.7,48.36-9.22,58.58,2.81,176.1,5.11,238.64,23.88,6.95,2.09,19.29,6.2,30.33,17,8.13,7.95,12.7,16.74,15.33,23.33,11.67,6.39,29.59,18.39,44,39.33,8.04,11.68,27.88,40.53,17.73,63.17-3.64,8.13-10,12.89-35.73,25.5-17.22,8.44-40.73,19.23-69.67,30.33-4.11-2.28-8.22-4.56-12.33-6.83,2.53,1.39,4.72,2.61,6.49,3.59,5.37,3,6.25,3.57,6.68,4.74,1.13,3.08-2.03,7.16-4.5,9.17-4.63,3.77-11.5,4.07-15.83,1.33-.89-.56-2.46-1.59-2.86-3.36-.67-2.96,2.26-6.49,5.36-7.3,2.69-.7,5.33.7,5.33.67,0-.03-1.8-1.07-4.02-.81-2.9.34-4.9,2.71-7.25,5.47-1.3,1.54-1.86,2.52-3.57,4-1.29,1.12-2.82,2.45-3.63,2.03-1.12-.59.75-3.7-.24-7.03-1.5-4.99-8.38-6.88-8.25-7.12.08-.16,3.01.52,5.33,2.95.17.17,4.04,4.33,2.83,8.53-.71,2.49-2.45,2.38-3.42,5.14-1.25,3.6.49,7.25.5,7.25,0,0-.53-1.71-.5-4.25.03-2.31.05-4.34,1.32-5.19,1.6-1.08,4.22.37,4.56.56,3.13,1.74,4.7,5.63,4.75,8.88.09,5.45-4.07,11.11-8.5,11.75-6.57.94-13.77-9.17-16-17.5-3-11.19,2.08-22.4,14.75-40.75,9.95-14.41,25.17-34.06,47.33-55.25-28.49-23.47-42.73-35.23-42.71-35.25,0,0,2.25,1.82,6.72,5.48-.19,7.6-1.66,20.91-10.1,33.77,0,0-7.86,11.98-22.62,20.5-22.73,13.12-94.96,11.66-188.96-8.83-.5-2.83-1-5.67-1.5-8.5-3.84-1.94-9.68-5.52-14.5-11.83-7.76-10.17-8.32-21.46-9-40-.64-17.55,1.1-32.69,1.52-32.67.28.02.25,7.05-1.24,39.24-2.66,4.7-6.41,10.28-11.61,15.93-8.36,9.07-17.13,14.66-23.5,18-5.44-2-10.89-4-16.33-6,9.1,2.56,16.13,5.58,20.83,7.83,23.99,11.51,28.09,22.84,47.5,33.67,1.98,1.1,7.11,3.88,11.83,9.5.27.32,4.37,5.27,6.33,10.67,5.17,14.22-2.68,36.64-17.67,41.83Z"/>
      <path class="cls-1" d="m137.78,314.53c-10.27-26.55,61.5-79.2,128-128,33.06-24.26,61.34-42.63,80.33-54.5.73-.18,3.99-.89,7.33,1,3.75,2.12,4.69,5.88,4.83,6.5.78-.41,7.21-3.66,14.17-.5,5.83,2.65,7.94,7.94,8.33,9,3.47-1.22,7.33-.45,10,2,2.87,2.63,3.91,6.77,2.64,10.51-10.27,13.44-24.81,35.15-35.64,64.49-16.94,45.94-5.97,59.68-22,80-28.12,35.63-91.15,30.52-134.5,27-36.64-2.97-58.57-4.75-63.5-17.5Z"/>
      <path class="cls-1" d="m214.86,337.6c3.07,12.69,34.43,21.7,44.54,9.42,5.74-6.97,4.44-20.58-3-27.75-10.69-10.31-30.56-3.95-38.17,7-1.43,2.06-4.53,6.52-3.37,11.32Z"/>
      <path class="cls-1" d="m232.91,341.11c-5.16-4.92-13.28-4.1-15.89-3.84-1.55.16-6.74.83-12,4.5-8.26,5.77-15.45,18.08-11.25,26.75,2.47,5.11,8.03,7.16,9,7.5,3.13,1.09,8.26,1.74,9.25-.25.97-1.95-2.48-5.48-3-6,.46,1.25,1.61,3.81,4.25,5.5,2.22,1.42,4.27,1.45,7.75,1.5,4.27.06,8.68.13,11.25-2.75,1.37-1.54,1.69-3.32,1.87-4.41,2.59-15.75,3.88-23.63-1.24-28.51Z"/>
      <path class="cls-1" d="m261.31,336.39c-.61-2.16-1.99-4.8-.65-6.05,1.85-1.73,7.76.24,11.47,2.94,3.94,2.86,7.01,7.69,7.03,13.12.03,8.85-8.05,14.23-10.33,15.75-6.95,4.62-17.64,7-19.84,4.12-3.33-4.37,16.02-16.86,12.33-29.89Z"/>
      <path class="cls-1" d="m272.78,333.28c3.75-3.17,9.59-7.69,17.33-12.08,17.22-9.78,27.64-9.13,40.89-15.7,8.17-4.05,18.83-11.5,28.86-26.44.55.64,7.17,8.69,4.26,19.14-2.8,10.06-12.01,13.63-12.92,13.96,2.42-1.54,4.84-3.09,7.26-4.63.84,1.64,2.07,4.67,1.83,8.5-.54,8.54-7.95,13.29-8.83,13.83,1.81-1.56,3.61-3.11,5.42-4.67,1.06,1.15,2.12,2.29,3.18,3.44-5.13,8.33-10.26,16.66-15.39,24.99-8.14,1.06-16.81,1.9-25.96,2.41-15.42.86-29.69.64-42.57-.19.6-.8,4.33-5.9,2.99-12.73-1.17-5.93-5.36-9.13-6.33-9.83Z"/>
      <path class="cls-1" d="m193.33,357.72c-21.12,2.69-30.2-1.61-34.55-6.2-1.8-1.9-5.11-6.29-8.67-5.67-3.11.54-4.79,4.61-5.5,6.33-4.06,9.81.57,20.65,2.83,25.17-.38.23-9.3,5.69-8.17,11.17.65,3.16,4.35,4.83,5.83,5.5,13.4,6.04,47.68-14.47,55.22-19.08-.87-.41-5.15-2.52-7.04-7.61-1.71-4.61-.34-8.6.05-9.61Z"/>
      <path class="cls-1" d="m215.37,352.22c.84-1.89,2.59-1.53,7.16-3.69,10.57-5,12.38-12.23,18.75-11.75.38.03,3.66.32,4.5,2.25,1.26,2.88-3.69,7.6-3.5,7.75.11.09,2.06-1.33,3.15-3.98,1.53-3.71-.14-6.13,1.1-7.27,1.72-1.58,8.04.28,10.75,4.5,4.11,6.39-.38,17.7-7.5,23.75-.49.41-10.66,8.78-21.75,4.75-8.21-2.98-14.6-11.91-12.66-16.31Z"/>
      <path class="cls-6" d="m283.98,110.58c1.09-.87,3.67-2.69,7.47-3.22,4.18-.58,7.42.74,8.67,1.33-.04-1.43.03-5.26,2.59-8.94,2.26-3.25,6.66-6.67,9.41-5.89,3.28.93,5.92,8.27,4.17,34.5-5.64-4.15-6.91-5.16-6.88-5.21.06-.08,4.67,2.24,7.88,6.75,1.74,2.45,2.8,5.17,3.5,8.62,2.5,12.39,5.16,25.61-3.17,36.47-7.38,9.63-20.73,13.91-34.17,11.7-4.1,2.65-13.85,8.15-27.33,8.33-17.7.24-29.86-8.87-33.33-11.67-3.63,1.31-13.79,4.42-26,1-9.93-2.78-16.24-8.49-19-11.33-1.81.29-12.91,1.91-22-5.67-9.83-8.2-9.49-20.65-9.33-23.33.6-10.39,6.5-12.4,13.67-26.33,10.85-21.1,8.11-37.46,14-38.33,2.23-.33,5.8,1.54,11.42,12.42,2.77.2,6.93.79,11.5,2.75,3.53,1.51,5.84,3.22,6.25,3.5,4.32,3.02,24.1,7.09,80.7,12.55Z"/>
      <path class="cls-6" d="m240.24,86.92c-1.13-3.1-8.09-4.02-11.11-4.03-8.04-.04-11.77,6.25-21.43,11.7-14.37,8.11-27.37,6.22-27.39,8.68,0,1.14,2.76,2.78,15.94,4.84-2.57,2.51-3.63,4.18-3.17,5.01.8,1.45,6.17.37,16.12-3.23-3.76,2.25-8.01,5.05-7.56,6.12.55,1.31,7.9-.52,11.18-1.49,6.68-1.96,16.48-6.22,27.27-16.57l.44.07c7.99,12.64,16.49,19.12,22.5,22.62,2.95,1.72,9.66,5.27,10.5,4.12.69-.93-2.76-4.67-5.88-7.75,8.79,5.88,13.75,8.21,14.88,7,.65-.7.02-2.57-1.88-5.62,13.28,1.16,16.37.23,16.63-.88.58-2.4-12.5-3.68-24.51-15-8.07-7.61-10.16-14.58-18-16.5-3.11-.76-9.98-1.42-11.75,1.25-.24.36-.87,1.51-1.56,1.44-.71-.08-1.08-1.39-1.22-1.79Z"/>
      <path class="cls-4" d="m231.28,108.53c1.77.65,4.77,1.49,8.5,1.25,2.42-.15,4.42-.72,5.86-1.25"/>
      <path class="cls-9" d="m154.75,184.72c1.19,4.34,2.39,8.68,3.58,13.02.21.77,3.11,0,2.9-.78-1.19-4.34-2.39-8.68-3.58-13.02-.21-.77-3.11,0-2.9.78h0Z"/>
      <path class="cls-9" d="m144.26,200.46c.12.04.25.08.37.12.2.06-.14-.06-.01,0,.06.02.12.05.18.07.24.1.47.21.7.34s.43.24.63.38c.11.07.21.15.32.22.04.03.18.15.02.01.05.04.1.08.15.12.79.66,1.44,1.46,1.94,2.36l-.11-.2c.21.39.38.79.52,1.21.21.62,1.17.56,1.66.41.34-.1.71-.25.96-.51.16-.17.36-.42.27-.68-.91-2.69-3.15-4.74-5.86-5.54-.64-.19-1.59.06-2.05.55-.16.17-.36.43-.27.68s.32.38.58.45h0Z"/>
      <path class="cls-9" d="m147.83,216.13c2.21,2.79,4.42,5.57,6.64,8.36.12.15.61.12.74.11.37-.02.78-.11,1.13-.25.29-.11,1.18-.45.85-.87-2.21-2.79-4.42-5.57-6.64-8.36-.12-.15-.61-.12-.74-.11-.37.02-.78.11-1.13.25-.29.11-1.18.45-.85.87h0Z"/>
      <path class="cls-9" d="m167.53,217.62c1.02,1.66,2.03,3.31,3.05,4.97.16.25.56.39.83.42.36.05.82-.03,1.14-.2.56-.3,1.07-.88.68-1.51-1.02-1.66-2.03-3.31-3.05-4.97-.16-.25-.56-.39-.83-.42-.36-.05-.82.03-1.14.2-.56.3-1.07.88-.68,1.51h0Z"/>
      <path class="cls-9" d="m177.17,199.38c2.85,2.09,4.8,5.24,5.43,8.71.07.41,1.34.08,1.56.02.26-.07,1.42-.36,1.34-.79-.65-3.55-2.69-6.77-5.6-8.9-.17-.12-.56-.08-.73-.06-.37.03-.78.13-1.13.26-.16.06-1.26.49-.88.77h0Z"/>
      <path class="cls-9" d="m204.35,202.66c1.76,7.47,3.52,14.95,5.29,22.42.2.87,3.11.13,2.9-.78-1.76-7.47-3.52-14.95-5.29-22.42-.2-.87-3.11-.13-2.9.78h0Z"/>
      <path class="cls-9" d="m193.33,216.08c1,3,2,6,3,9,.17.5,1.25.26,1.6.16.28-.08,1.47-.44,1.3-.93-1-3-2-6-3-9-.17-.5-1.25-.26-1.6-.16-.28.08-1.47.44-1.3.93h0Z"/>
      <path class="cls-9" d="m186.61,231.77c1,2.67,2.01,5.33,3.01,8,.25.68,1.09.86,1.73.66.53-.16,1.43-.74,1.17-1.44-1-2.67-2.01-5.33-3.01-8-.25-.68-1.09-.86-1.73-.66-.53.16-1.43.74-1.17,1.44h0Z"/>
      <path class="cls-9" d="m164.59,237.12c1.84,3.75,3.67,7.5,5.51,11.25.46.95,3.28.01,2.9-.78-1.84-3.75-3.67-7.5-5.51-11.25-.46-.95-3.28-.01-2.9.78h0Z"/>
      <path class="cls-9" d="m191.31,194.75c.45,3.78.9,7.55,1.34,11.33.08.66,1.25.58,1.68.47.56-.15,1.3-.56,1.22-1.24-.45-3.78-.9-7.55-1.34-11.33-.08-.66-1.25-.58-1.68-.47-.56.15-1.3.56-1.22,1.24h0Z"/>
      <path class="cls-9" d="m155.15,248.59c2.31,1.81,4.61,3.62,6.92,5.43.9.7,3.5-.59,2.26-1.56-2.31-1.81-4.61-3.62-6.92-5.43-.9-.7-3.5.59-2.26,1.56h0Z"/>
      <path class="cls-9" d="m221.28,207.58c1.06,1.81,2.11,3.62,3.17,5.43.3.51,1.14.38,1.62.24.34-.1.71-.22.97-.46.12-.11.42-.37.3-.56-1.06-1.81-2.11-3.62-3.17-5.43-.3-.51-1.14-.38-1.62-.24-.34.1-.71.22-.97.46-.12.11-.42.37-.3.56h0Z"/>
      <path class="cls-9" d="m216.02,216.69c.42,1,.84,2,1.26,2.99.08.2.34.24.52.25.34.03.74-.03,1.07-.12s.7-.21.98-.43c.12-.09.41-.29.33-.48-.42-1-.84-2-1.26-2.99-.08-.2-.34-.24-.52-.25-.34-.03-.74.03-1.07.12s-.7.21-.98.43c-.12.09-.41.29-.33.48h0Z"/>
      <path class="cls-9" d="m214.33,200.91c.33.92.67,1.83,1,2.75.11.3.32.49.62.6.33.12.77.12,1.1.02s.72-.27.94-.57c.17-.23.34-.54.23-.83-.33-.92-.67-1.83-1-2.75-.11-.3-.32-.49-.62-.6-.33-.12-.77-.12-1.1-.02s-.72.27-.94.57c-.17.23-.34.54-.23.83h0Z"/>
      <path class="cls-9" d="m231.59,198.16c1.1,2.41,2.21,4.81,3.31,7.22.26.57,1.14.49,1.65.35.35-.1.7-.24.97-.49.15-.14.39-.41.29-.63-1.1-2.41-2.21-4.81-3.31-7.22-.26-.57-1.14-.49-1.65-.35-.35.1-.7.24-.97.49-.15.14-.39.41-.29.63h0Z"/>
      <path class="cls-9" d="m225.69,202.01c.55,0,1.63-.21,1.92-.76s-.25-.72-.75-.72c-.55,0-1.63.21-1.92.76s.25.72.75.72h0Z"/>
      <path class="cls-9" d="m164.25,208.99c.65,0,1.59-.18,1.9-.85.27-.6-.24-1.07-.84-1.07-.65,0-1.59.18-1.9.85-.27.6.24,1.07.84,1.07h0Z"/>
      <path class="cls-9" d="m183.2,221.79c.56,0,1.63-.2,1.92-.77s-.25-.76-.76-.76c-.56,0-1.63.2-1.92.77s.25.76.76.76h0Z"/>
      <path class="cls-9" d="m157.2,239.79c.56,0,1.63-.2,1.92-.77s-.25-.77-.76-.77c-.56,0-1.63.2-1.92.77s.25.77.76.77h0Z"/>
    </g>
  </g>
</svg>