<?xml version="1.0" encoding="UTF-8"?>
<svg id="Capa_2" data-name="Capa 2" xmlns="http://www.w3.org/2000/svg" viewBox="0 0 384.48 460.24">
  <defs>
    <style>
      .cls-1 {
        fill: #2a3f50;
      }

      .cls-1, .cls-2, .cls-3, .cls-4, .cls-5, .cls-6, .cls-7, .cls-8, .cls-9, .cls-10, .cls-11, .cls-12, .cls-13, .cls-14, .cls-15, .cls-16 {
        stroke-width: 0px;
      }

      .cls-2 {
        fill: #99caee;
      }

      .cls-17 {
        fill: none;
        stroke: #1d1d1b;
        stroke-miterlimit: 10;
      }

      .cls-3 {
        fill: #d6ddf1;
      }

      .cls-4 {
        fill: #191f2e;
      }

      .cls-5 {
        fill: #333f4c;
      }

      .cls-6 {
        fill: #99cbee;
      }

      .cls-7 {
        fill: #455664;
      }

      .cls-8 {
        fill: #3b3c5d;
      }

      .cls-9 {
        fill: #98caee;
      }

      .cls-10 {
        fill: #5b616d;
      }

      .cls-11 {
        fill: #39414d;
      }

      .cls-12 {
        fill: #4663ac;
      }

      .cls-13 {
        fill: #3c4c58;
      }

      .cls-14 {
        fill: #3b3c5e;
      }

      .cls-15 {
        fill: #1d1d1b;
      }

      .cls-16 {
        fill: #242c5a;
      }
    </style>
  </defs>
  <g id="Capa_25" data-name="Capa 25">
    <g>
      <path class="cls-15" d="m368.73,176.74c0,1.33.34,2.45,1.06,3.69,11.51,19.79,16.57,40.91,14.05,63.92-2.72,24.83-10.92,47.36-26.11,67.23-4.03,5.27-8.28,10.4-12.73,15.33-1.88,2.08-1.69,3.83-1.11,6.21,3.82,15.45,3.12,30.22-6.91,43.5-6.04,8-14.15,12.9-23.62,15.64-7.66,2.22-15.43,3.97-23.49,3.44-1.61-.11-2.46.53-3.02,1.96-6.09,15.53-18.4,23.22-33.87,27.17-11.37,2.9-22.49,6.85-34.31,7.65-2.59.17-3.08,1.56-2.92,3.6.29,3.56-.53,6.97-1.49,10.3-1.5,5.18-3.42,10.52-9.6,11.55-6.12,1.02-9.94-2.66-12.59-8.5-2.9,3.57-3.56,9.34-9.42,8.58-5.05-.66-6.46-4.88-7.93-9.43-1.88,2.89-3.2,5.53-5.08,7.68-5.4,6.2-13.13,5.03-16.38-2.5-1.99-4.62-2.73-9.58-2.41-14.63.17-2.75-.2-4.15-3.7-4.86-13.46-2.73-26.68-6.29-38.99-12.82-14.18-7.53-23.3-18.86-27.39-34.25-.86-3.24-1.95-3.51-5.02-2.58-13.43,4.07-26.54,3.78-38.74-4.17-15.79-10.28-22.57-41.82-6.39-57.41,2.22-2.14,2.01-3.14.04-5.46C13.82,297.73,3.54,274.93.66,248.95c-2.59-23.38,2.32-44.85,16.64-63.81,1.89-2.5,4.34-4.58,6.53-6.85.62-.87.31-2.75,2.31-2.16,1.38.79,2.07,2.14,2.73,3.48,6.45,12.87,17.48,20.81,29.91,26.89,14.19,6.93,29.52,10.21,45.1,12.29,2.38.32,4.98,1.11,7.1-1.01.51-.16,1.02-.2,1.55-.11,1.33.31,2.47,1.01,3.55,1.78,15.51,11.14,33.13,16.16,51.9,17.15,21.02,1.1,41.98.43,62.27-6.13,3.26-1.05,7.34-.96,9.16-4.88,1.23-1.9,3.23-1.6,5.06-1.8,11.16-.23,22.14,2.49,33.31,2,21.57-.93,42.27-5.04,60.69-17.07,11.95-7.81,21.65-17.59,26.45-31.47.52-1.5.78-3.38,3.05-3.37,1.4.64,1.09,1.74.76,2.85Z"/>
      <path class="cls-15" d="m83.73,20.35C96.45.6,123.93-6.14,141.65,6.23c6.73,4.7,11.67,11.02,13.94,18.89,1.18,4.08,2.91,5.06,6.76,4.09,7.82-1.98,15.14.19,22.3,3.17.1,1.05-.59,1.42-1.43,1.68-1.16.21-2.31.07-3.4-.28-7.88-2.56-15.8-2.22-23.75-.44-1.11-.08-2.1-.4-2.71-1.42-4.7-26.57-31.28-35.93-54.25-21.89-3.96,2.42-7.59,5.34-10.32,9.24-1.03,1.48-2.27,2.89-4.2,3.33-1.28-.37-1.74-1.06-.86-2.25Z"/>
      <path class="cls-15" d="m26.59,112.55c-2.83-12.34,1.09-23.2,8.03-33.02,7.53-10.66,17.8-17.58,30.91-19.75,2.3-.38,3.88-1.02,4.16-3.84,1.01-9.85,4.85-18.81,9.16-27.6.99-.11,1.38.54,1.67,1.32.41,1.73-.24,3.28-.84,4.84-4.31,11.24-7.17,22.85-8.96,34.74-.32,2.09-.02,5.84-2.65,5.58-2.47-.25-1.62-3.88-1.68-6.1-.15-5.16-.98-5.9-5.93-3.98-18.38,7.13-29.33,20.16-31.37,40.11-.12,1.16-.16,2.33-.43,3.47-.57,1.47-.56,3.22-2.07,4.22Z"/>
      <path class="cls-15" d="m296.67,3.29c18.86,3.8,28.08,16.72,32.55,34.24,2.15,8.41,3.19,16.94,3.49,25.58.37,1.57-.8,1.84-1.85,2.22-6.37-.13-12.41-2.25-18.68-3.04-1.35-.17-2.73-1.07-2.45-2.63.22-1.25,1.71-1.44,2.87-1.58,4.05-.49,7.95.59,11.87,1.3,2.54.47,3.92-.04,3.73-2.87-.85-12.4-2.87-24.45-9.79-35.17-5.11-7.92-12.68-11.98-21.51-14.27-2.32-.6-5.08-.58-6.47-3.18,1.92-1.9,4.09-1.14,6.24-.6Z"/>
      <path class="cls-15" d="m183.51,33.38c.38-.33.76-.67,1.14-1,7.21,5.18,14.16,2.48,21.66.15,10.25-3.18,20.55-1.32,30.39,2.84,1.59.67,3.38,2.54,4.86-.24.8.2,1.34.69,1.65,1.45.36,1.36.05,2.67-.52,3.88-1.13,2.38-2.35,4.61-4.5.68-1.23-2.26-3.58-2.87-5.77-3.62-16.08-5.55-30.76-3.09-44.07,7.63-1.63,1.31-3.59,4.61-5.57,2.53-1.86-1.96,1.18-4.1,2.78-5.55,2.83-2.56,3.83-4.56-.55-6.39-.89-.37-1.64-1.17-1.52-2.35Z"/>
      <path class="cls-15" d="m26.59,112.55c.32-1.43-.28-3.07.99-4.28,2.01,1.62,2.03,4.07,2.49,6.28,1.18,5.68,3.76,10.91,5.2,16.51-.12.83-.56,1.4-1.38,1.64-2.65-.67-3.82.84-4.92,2.98-4.57,8.89-5.31,18.39-4.84,28.13-.46,1.94.86,4.65-2.33,5.4-2.82-13.59-1.59-26.65,5.79-38.61,1.84-2.99,2.31-5.22.87-8.48-1.29-2.92-2.39-6.16-1.87-9.57Z"/>
      <path class="cls-15" d="m330.39,64.4c.91-.18,1.85-.31,2.32-1.29,16.58,5.95,30.36,15.26,38.09,31.82,1.25,2.68,2.25,5.44,2.65,8.39-.82.9.3,2.51-1.16,3.18-1.63-.41-1.7-1.86-2.05-3.11-4.71-16.78-16.12-27.34-31.53-34.34-2.86-1.3-6.7-1.07-8.31-4.65Z"/>
      <path class="cls-15" d="m368.73,176.74c-.21-.97-.29-2.01-1.32-2.55-1.3-1.42-1.04-3.12-.67-4.73,1.31-5.76-.28-11.16-1.9-17.39-2.9,3.19-4.63,6.79-8.12,8.5-.99.49-2.12,1.4-3.15.28-.78-.85-.36-2,.29-2.75,5.15-5.93,9.27-12.52,12.82-19.49.21-.42.81-.54,1.32-.62,1.29.53,1.16,1.51.8,2.56-1.88,3.37-1.7,6.58-.38,10.29,3.02,8.5,3.14,17.23.32,25.89Z"/>
      <path class="cls-15" d="m242.6,36.28c-.34-.38-.69-.77-1.03-1.15,5.6-16.66,16.35-27.87,33.82-31.98,1.51-.33,3.05-.88,4.41.41-.15,2.23-2.04,2.49-3.55,2.78-14.82,2.84-23.19,13.26-30.1,25.42-.96,1.68-1.26,3.87-3.54,4.51Z"/>
      <path class="cls-15" d="m372.4,106.58c.46-1.05-.06-2.42,1.05-3.27,2.14,9.82,1.96,19.48-1.92,28.89-1.16.16-1.52-.66-1.87-1.5,1.37-7.99.59-16.22,2.74-24.12Z"/>
      <path class="cls-15" d="m279.62,4.24c-1.13-1.45-2.82-.74-4.23-1.09,7.11-2.17,14.2-2.14,21.28.13-2,.35-4.24-.85-6.01.94-3.68,2.41-7.36,2.39-11.04.01Z"/>
      <path class="cls-15" d="m21.8,169.21c1.72-1.8.27-4.14,1.03-6.11,3.54,3.82,3.87,8.35,2.92,13.16-.64.67-1.28,1.35-1.92,2.02-.31-3.11-2.56-5.78-2.03-9.08Z"/>
      <path class="cls-15" d="m79.95,29.6c-.36-.42-.73-.83-1.09-1.25,1.23-2.91,2.63-5.71,4.88-8,.08.75.1,1.52.91,1.93.55,3.8-1.79,5.74-4.69,7.33Z"/>
      <path class="cls-15" d="m370.52,131.14c.34.36.67.71,1.01,1.07.3,3.18-1.29,5.74-2.74,8.35-.31-.75-.63-1.5-.94-2.25-.97-3.08-.47-5.62,2.67-7.17Z"/>
      <path class="cls-12" d="m79.83,380.19c-.28.4-.48,1.03-.87,1.17-12.26,4.51-24.7,5.57-36.76-.09-19.58-9.19-25.45-42.14-9.68-57.14,2.62-2.49,2.63-3.82.28-6.75C13.46,293.24.77,266.34,2.13,234.68c.79-18.58,5.83-36.09,18.79-50.38,3.78-4.17,3.74-4.09,6.81.66,7.47,11.58,18.19,19.35,30.5,24.91,10.9,4.93,22.18,8.96,34.1,10.78,3.44.52,6.93,1.23,10.37,1.09,11.52-.47,19.95,7.32,29.94,10.88,23.05,8.23,46.66,9.68,70.76,6.93,14.8-1.69,29.18-4.74,42.63-11.38,1.65-.81,3.2-.34,4.86-.22,25.85,1.94,51.5,1.9,75.85-8.81,16.56-7.29,30.16-18.06,39.07-34.17.51-.92.72-2.78,2.09-2.29,1.03.37,1.77,1.88,2.38,3.02,10.91,20.16,14.58,41.61,10.94,64.21-2.74,17.01-7.22,33.52-16.74,48.17-6.44,9.91-13.91,19.08-21.32,28.28-1.44,1.79-2.57,3.44-1.76,6.24,11.11,38.3-16.29,62.3-49.52,60.54-4.43-.23-8.86-.58-13.68-.91.46.53.65.93.95,1.06,6.6,2.78,6.51,2.72,3.01,9.09-6.63,12.09-17.95,17.09-30.37,20.82-11.97,3.6-24.12,6.24-36.49,7.93-2.18.3-2.22.47-1.83,3.06,1.06,6.89-.79,13.67-5.07,19.3-3.35,4.4-10.41,2.99-13.32-2.41-2.28-4.22-2.43-8.93-2.59-14.46-1.41,5.29-2.46,9.79-3.82,14.19-.85,2.74-2.18,5.56-5.72,5.26-3.2-.27-4.66-2.63-5.62-5.56-1.22-3.72-.3-7.55-.92-11.42-2.05,4.43-3.84,8.85-6.09,13-1.87,3.45-4.56,6.52-9,5.97-4.48-.55-6.16-4.19-7.08-8.07-1.08-4.54-1.47-9.2-1.22-13.86.14-2.59-.34-3.55-3.37-3.94-15.11-1.97-29.51-6.41-42.86-13.93-15.25-8.58-23.28-21.81-25.17-39-1.19-1.15-.78-2.67-.95-4.06.09,1.72.09,3.43-.84,4.98Z"/>
      <path class="cls-3" d="m370.52,131.14c-1.43,2.19-2.01,4.69-2.67,7.17-3.44,8.19-8.27,15.51-14.14,22.24,5.2-2.39,8.06-7.01,11.5-11.57,3.04,8.54,4.12,16.75,2.2,25.22-8.12,25.93-28.23,38.7-52.15,46.96-16.24,5.6-33.14,6.39-50.17,5.33-6.79-.42-13.57-.88-20.36-1.33-4.25-.86-8.6.06-12.85-.93-.68.32.34.93,0,.35,2.9-.87,5.4.15,7.81,1.63.61.23,1.58.3,1.78.72.82,1.76-1,1.21-1.62,1.48-12.79,5.63-26.39,7.96-40.14,9.41-17.15,1.81-34.33,1.03-51.16-2.38-13.43-2.72-25.9-8.36-36.55-17.38-1.17-.25-1.94-.95-2.36-2.24.06,1,.78,1.64.75,2.5.27.97,3.06,2.97-.6,2.52-21.72-2.68-43.05-6.7-61.87-18.93-9.87-6.41-17.43-14.81-22.17-25.64-.97-4.39-1.95-8.77-2.92-13.16-.3-10.67.64-21.07,6.07-30.64,1.73-3.05,3.07-3.07,4.75-.15.82.39,1.78.52,1.98.94-.36-.3-.44-1.29-.73-2.18-4.27-7.02-6.05-14.83-7.32-22.81.18-22.03,16.4-42.44,36.35-45.88,3.14-.54,5.18-.79,4.08,3.63-.62,2.5-.11,5.28.19,7.99,2.54-15.18,5.94-30.12,11.74-44.41,1.56-2.44,3.13-4.89,4.69-7.33C94.27,9.37,106.56,1.66,123.23,2.34c14.75.6,28.11,11.89,31.22,26.5.22,1.03.36,1.98-.72,2.62-3.09,3.09-7.45,4.14-10.82,6.78-1.51,1.18-3.22,2.13-4.45,3.49,5.28-4.06,10.49-8.29,17.48-9.3,9.32-3.35,18.45-1.61,27.57.95,2.58,1.48,5.16,2.95,8.15,4.66-2.8,3.32-7.08,5.02-9.07,10.26,3.07-2.42,5.2-4.15,7.38-5.82,14.94-11.45,30.93-11.19,47.62-4.44,2.16.87,2.42,2.26,2.52,4.3,1.62-1.88,2.14-3.94,2.49-6.06,5.66-11.46,12.24-22.08,24.16-28.26,4.1-2.13,8.58-2.53,12.87-3.77,3.68,0,7.36,0,11.04-.01,25.28,4.34,33,16.04,38.12,42.58.87,4.54,2.61,10.54.56,13.57-2.12,3.12-7.93-.9-12.21-.96-2.24-.03-4.53-.8-6.8.94,6.75,1.14,13.42,2.55,20.08,4.03,7.61,2.82,14.98,6.03,21.61,10.9,10.77,7.92,17.5,18.31,20.4,31.28.74,8.29-.01,16.47-1.88,24.56Z"/>
      <path class="cls-15" d="m239.7,226.21c-3.32.12-6.32-.9-9.17-2.58,4.86-.41,9.58.13,14.21,1.53-1.59.79-3.66-.78-5.04,1.05Z"/>
      <path class="cls-16" d="m79.83,380.19c-.05-2.73-.77-5.53,1.8-8.16,0,2.41,0,4.83,0,7.24-.6.31-1.2.61-1.8.92Z"/>
      <path class="cls-15" d="m110.39,218.32c-2.02-1.47-2.8-3.63-3.04-6.17,1.55,1.97,3.1,3.94,4.65,5.91-.54.09-1.07.17-1.61.26Z"/>
      <path class="cls-15" d="m155.94,32.43c-6.48,2.8-12.33,6.81-18.73,9.81,4.68-4.91,10.09-8.65,16.52-10.78.73.32,1.47.65,2.2.97Z"/>
      <path class="cls-15" d="m34.9,131.08c1.78,1.41,2.82,3.3,3.1,5.83-1.45-1.53-2.9-3.06-4.35-4.59.42-.41.83-.83,1.25-1.24Z"/>
      <path class="cls-6" d="m52.93,266.18c4.2.08,8.4.15,12.6.23,4.1-.78,5.48,1.23,5.18,5.02-1.45,18.28.51,36.55,0,54.83,0,.33,0,.67,0,1-.06,2.02-.02,4.57-2.47,4.77-2.06.17-2.46-2.29-3.06-4.16-.55,1.43-.35,3.51-2.36,3.58-2.21.07-2.23-2.03-2.78-3.51-.81,1.85-.43,5.1-3.03,4.99-2.42-.1-2.6-3.15-2.93-5.22-1.21-7.7-1.82-15.46-2.59-23.21-1.12-11.31-.38-22.56-.69-33.84-.04-1.62-1.09-4.21,2.14-4.47Z"/>
      <path class="cls-15" d="m52.93,266.18c-2.44,3.96-1.42,8.45-1.4,12.59.07,15.28.22,30.61,3.16,45.7.53,2.7.54,5.65,2.58,7.95,1.57-3.13.95-6.56,1.8-9.95,3.02,2.1,1.35,5.83,3.47,8.36,2.54-2.58-.04-6.43,2.34-9.34,1.74,3.43.98,7.34,3.1,10.47,1.96-1.86,1.75-4.2,1.75-6.31-.02-18.8-.27-37.6-.15-56.4.02-3.75-3.12-1.35-4.04-2.83,3.23-.95,4.31-2.97,4.43-6.44.21-6.46,1.15-12.9,1.84-19.34.13-1.21-.02-2.7,2.09-3.32.33,5.08-.65,9.87-1.16,14.67-2.33,22.06-2.01,44.15-.81,66.25.23,4.14.7,8.34-.43,12.42-.68,2.48-1.34,4.44-5.2,2.98-1.84-.7-5.36-2-8.04,1.04-2.18,2.47-3.47-.55-4.11-2.21-2.38-6.11-2.58-12.68-3.21-19.08-1.52-15.4-2-30.89-1.13-46.35.37-6.6.34-13.29,1.84-19.8,2.77.26,1.26,2.08,1.22,3.36.68,5.2-2.07,10.42.07,15.61Z"/>
      <path class="cls-15" d="m307.69,331.31c-.62,6.1-.81,12.29-3.22,18.05-.97,2.31-2.64,2.85-5.36,3.6-3.94,1.09-7.6-1.01-11.4.75-3.33,1.54-3.63-2.09-3.95-4.15-1.02-6.63-.18-13.3.12-19.94.82-18.61,2.21-37.2,2.51-55.81.16-10.26-1.42-20.54-2.23-30.82-.09-1.09-.81-2.24.77-3.53,1.37,2.78,1.58,5.62,1.73,8.48.41,7.8.8,15.59,1.27,23.39.06.96.55,1.9.84,2.84.37.68.58,1.39.58,2.17-.05.51-.13,1.02-.23,1.52-.2,4.43-.12,8.86-.02,13.29.17,17.26-2.79,34.41-2.02,51.7.07,1.63-.29,3.29.32,5.01,1.28-1.09,1.05-2.71,1.68-3.94.57-1.11.6-2.88,2.37-2.71,1.52.15,2.02,1.56,2.32,2.9.3,1.3.27,2.64.37,4.01,1.15-.7.69-1.9.98-2.84.47-1.49.07-3.87,2.13-3.92,1.88-.05,2.15,2.19,2.64,3.75.19.62.21,1.31,1.07,2.07,2.27-4.94,2.46-10.18,3.26-15.26.35-2.25.17-4.76,2.79-5.95,1.99,1.56,1.05,3.49.69,5.34Z"/>
      <path class="cls-15" d="m307.69,331.31c-.48-1.67.54-3.64-1.02-5.1-2.13-2.17-1.67-4.93-1.52-7.51.78-13.17,2.15-26.31.99-39.53-.07-.83.11-1.65.27-2.46.29-.89.72-1.72,1.07-2.58.28-11.63-1.07-23.17-2.35-34.76,2.71,2.71,2.92,6.24,3.26,9.49,2.87,27.03,2.46,54.06-.16,81.09-.05.47-.36.91-.55,1.37Z"/>
      <path class="cls-15" d="m52.86,250.56c-.28-1.17.1-2.58-1.22-3.36.29-5.85,1.17-11.54,3.78-16.77.48.1.95.2,1.43.3-1.33,6.61-2.66,13.22-3.99,19.82Z"/>
      <path class="cls-15" d="m307.49,274.12c0,.69.01,1.38.02,2.06-5.5,4.54-13.6,4.5-18.8-.08.02-.64.04-1.29.06-1.93,6.25,2.64,12.49,2.82,18.73-.05Z"/>
      <path class="cls-5" d="m104.68,167.21c2.31-.38,2.03-2.02,1.95-3.72-.29-5.96-2.31-11.5-3.98-17.14-.69-1.2-.48-2.02.97-2.34,2.13.86,2.55,2.94,3.33,4.73,1.61,3.71,2.11,7.7,2.65,11.64.42,3.1,1.86,4.83,5.03,5.12,13.75,1.26,25.92,7.02,37.71,13.64,3.77,2.11,6.66,1.97,10.55-.07,16.74-8.78,34.5-10.36,52.79-6.03,2.99.71,5.33,1.22,7.24-2.02,6.3-10.67,16.31-16.81,27.27-21.63,6.05-2.66,6.25-2.58,5-9.23-1.61-8.52-1.21-16.92,1.33-25.15,1.13-3.65.17-5.12-3.5-5.81-7.77-1.47-14.87-4.64-21.49-9-6.42-4.22-11.59-9.51-14.64-16.59-1.55-3.59-3.54-5.41-7.62-4.23-1.74.5-3.63.31-5.47.28-1.34-.09-2.7-.11-3.88-.91-.48-.4-.57-.88-.25-1.42,3.36-.69,6.82-.67,10.2-1.07,2.7-.32,4.5-1,5.88-3.73,1.75,4.22,2.95,7.98,4.78,11.4,5.87,10.98,15.89,16.62,27.21,20.43,1.58.53,3.21.88,4.78,1.42,5.07,1.73,9.7,2.15,12.71-3.58.37-.71,1.06-1.62,2.89-1.44-4.32,5.82-8.05,11.56-9.4,18.55-1.57,8.16-1.06,16.2.37,24.28.48,2.72,1.64,3.62,4.45,2.75,1.99-.62,4.12-1.25,6.73-.7-2.26,2.02-4.86,2.02-7.16,2.64-11.57,3.1-22.09,8.17-30.98,16.33-1.59,1.46-3.04,3.08-4.37,4.78-4.73,6.08-4.72,7.07-.22,12.77-20.03-11.63-40.35-8.73-60.79-1.66-.31.11-.63.23-.91.4-3.25,1.92-6.5,3.85-9.75,5.78-1.56-3.81-5.43-4.7-8.52-6.35-12.7-6.76-25.73-12.56-40.62-11.92-1.1.25-2.38.83-2.27-1.21Z"/>
      <path class="cls-13" d="m199.67,77.33c-.03.3-.05.61-.06.91-1.97,2.06-4.54,1.29-6.9,1.43-3.72.22-7.46-.36-11.15.45-7.32.54-14.2-1.29-20.69-4.45-3.16-1.53-5.73-1.41-8.9.12-10.48,5.05-21.16,9.67-32.29,13.16-1.88.59-3.76,1.43-5.83.87-.78-.36-1.32-.93-1.51-1.78,13.1-4.63,26.29-9.03,38.58-15.65,1.34-.72,3.47-.66,3.66-2.82.16-1.81,1.02-.65,1.48-.34,13.39,8.95,28.46,8.75,43.63,8.1Z"/>
      <path class="cls-5" d="m112.33,88.04c.45.38.9.76,1.35,1.13-.22.45-.48,1.06-.92,1.13-6.68,1.04-7.35,5.97-8.49,11.47-2,9.61-5.04,19.01-11.6,26.76-.54.6-1.13,1.08-2.02.76-.84-.63-1.68-1.26-2.52-1.88.49-1.06,2.04-.17,2.46-1.34,6.42-9.21,9.86-19.49,11.2-30.57.33-2.75,0-4.7-3.45-5.01,4.66-.82,9.33-1.63,13.99-2.45Z"/>
      <path class="cls-7" d="m90.65,129.29c.42-.43.84-.86,1.25-1.3,6.8,3.34,10.82,8.68,11.71,16.28-.32.69-.64,1.38-.96,2.07-3.03-6.37-6.75-12.25-12-17.06Z"/>
      <path class="cls-5" d="m90.59,126.06c-.47,1.09-1.51,1.15-2.46,1.34-3.07-1.57-6.17-3.08-9.16-5.73,4.96-.38,7.69,3.59,11.63,4.39Z"/>
      <path class="cls-10" d="m104.68,167.21c.43,1.01,1.44.95,2.27,1.21-2.47.6-4.94,1.2-8.41,2.04,2-2.67,4.03-3.02,6.14-3.24Z"/>
      <path class="cls-9" d="m288.71,276.1c6.26,2.49,12.52,2.62,18.8.08,1.6,15.71-.09,31.38-.76,47.05-.04.99-.05,1.98-.07,2.97-1.48,7.32-1.93,14.83-4.13,22.02-.33,1.08-.17,2.62-1.62,2.69-1.48.08-1.61-1.5-1.87-2.56-.51-2.03-.84-4.11-1.64-6.18-1.28,3.46-.59,7.44-3.28,10.55-2.74-3.36-.88-7.59-2.66-11.47-2.14,3.66-1.14,8.24-5.24,11.37-1.83-20.98,1.08-41.2,1.66-61.46.87-4.91-.39-9.92.67-14.83l.16-.24Z"/>
      <path class="cls-15" d="m288.55,276.34c.12,4.96.24,9.92-.67,14.83-.25-4.97-.98-9.95.67-14.83Z"/>
      <path class="cls-2" d="m103.61,144.27c-2.38-6.52-6.64-11.69-11.71-16.28,6.91-10.19,11.07-21.39,12.27-33.66.25-2.59,1.6-3.73,4.17-3.95,1.8-.15,3.56-.79,5.33-1.21,13.93-3.47,26.97-9.22,39.76-15.59,2-1,3.61-1.76,5.92-.32,6.49,4.06,13.83,5.39,21.36,5.85,6.04-.72,12.11-.13,18.16-.33,1.79-.06,3.62.27,5.35-.44,8.21-2.39,12.1,1.17,16.2,8.55,7.11,12.81,20.1,18.31,34,21.39,1.61.36,3.23.67,5.3,1.11-4.6,11.79-5.3,23.66-2.24,35.68.61,2.39-.69,3.19-2.57,3.96-3.68,1.51-7.36,3.05-10.91,4.85-8.93,4.54-16.48,10.66-21.17,19.74-1.12,2.16-2.09,2.58-4.61,1.81-20.12-6.14-39.44-3.93-57.67,6.51-2.51,1.44-4,1.14-6.21-.15-13.28-7.81-27.08-14.29-42.78-15.31-2.23-.14-2.62-1.14-2.86-3.09-.81-6.6-1.92-13.15-5.1-19.13Z"/>
      <path class="cls-11" d="m204.23,78.34c-7.78,1.93-15.65,1.1-23.51.78,6.23-1.82,12.61-.31,18.89-.88,1.54.03,3.08.07,4.62.1Z"/>
      <path class="cls-4" d="m129.59,112.28c-2.17-.57-4.24-.48-4.92-1.41-2.16-2.98-5.46-3.41-8.41-4.69-1.4-.61-2.71-1.63-2.52-3.35.16-1.42,1.32-2.47,2.66-2.7,8.9-1.5,17.85-2.02,26.65.34,2.97.8,4.18,3.76,1.12,5.52-4.7,2.71-10.51,2.97-14.57,6.29Z"/>
      <path class="cls-4" d="m193.63,109.29c-1.27-.3-2.58-.49-3.81-.92-1.31-.47-2.3-1.38-2.32-2.91-.02-1.73.98-3.02,2.51-3.29,8.37-1.49,16.76-1.6,25.11.15,1.61.34,2.55,1.74,2.52,3.32-.06,2.47-1.93,3.21-4.03,3.52-.71-.24-1.22-.65-1.26-1.46.3-1.5-.39-2.01-1.84-2.17-5.24-.58-10.46-1.74-15.68.27.43.91,2.13.85,2.05,2.31-.77,1.27-2.01,1.21-3.25,1.18Z"/>
      <path class="cls-4" d="m193.63,109.29c.73-1.2,1.99-.94,3.09-1.13,5.31-2.3,10.61-2.37,15.91.04.33.32.66.64.99.96-3.25,1.38-6.76,1.72-10.01,3.57-3.83,2.19-7.65.65-9.97-3.44Z"/>
      <path class="cls-1" d="m177.53,121.55c-8.01-5.31-16.27-5.35-24.72-.94,8.56-7.41,18.96-6.93,24.72.94Z"/>
      <path class="cls-14" d="m129.53,101.57c3.8,0,7.6-.1,11.4.06,1.04.04,2.5.59,2.27,2.09-.16,1.03-1.27,1.41-2.33,1.52-7.05.75-14.1,1.79-21.17.07-1.52-.37-3.35-.85-3.24-2.47.14-1.98,2.25-1.47,3.63-1.51,3.14-.09,6.29-.03,9.44-.03,0,.09,0,.17,0,.26Z"/>
      <path class="cls-8" d="m212.62,108.2c-5.3-.01-10.61-.03-15.91-.04-1.37-1.9-5.73.4-5.31-2.89.28-2.15,3.78-.59,5.73-1.31,5.6-2.04,11.12.82,16.71.37.7-.06,1.38.32,1.36,1.09-.02,1.64-1.9,1.68-2.59,2.78Z"/>
      <line class="cls-17" x1="51.14" y1="266.62" x2="67.39" y2="266.24"/>
      <ellipse class="cls-4" cx="127.22" cy="109.87" rx="3.75" ry="3.17"/>
      <ellipse class="cls-4" cx="199.67" cy="111.37" rx="3.75" ry="3.17"/>
    </g>
  </g>
</svg>