<?xml version="1.0" encoding="UTF-8"?>
<svg id="Capa_2" data-name="Capa 2" xmlns="http://www.w3.org/2000/svg" viewBox="0 0 729.88 963.88">
  <defs>
    <style>
      .cls-1 {
        stroke-width: 2.27px;
      }

      .cls-1, .cls-2, .cls-3, .cls-4, .cls-5, .cls-6, .cls-7, .cls-8, .cls-9, .cls-10, .cls-11, .cls-12, .cls-13 {
        stroke-miterlimit: 10;
      }

      .cls-1, .cls-3, .cls-4, .cls-5, .cls-6, .cls-9, .cls-10 {
        stroke: #76cbea;
      }

      .cls-1, .cls-3, .cls-5, .cls-14, .cls-10 {
        fill: #6ac5d6;
      }

      .cls-2 {
        fill: #00acc6;
      }

      .cls-2, .cls-11, .cls-12, .cls-13 {
        stroke: #1d1d1b;
      }

      .cls-3 {
        stroke-width: 2.02px;
      }

      .cls-4 {
        fill: #fafcf9;
      }

      .cls-4, .cls-6, .cls-10 {
        stroke-width: 2px;
      }

      .cls-15 {
        fill: #074458;
      }

      .cls-15, .cls-16, .cls-17, .cls-14, .cls-18, .cls-19 {
        stroke-width: 0px;
      }

      .cls-5 {
        stroke-width: 2.09px;
      }

      .cls-6 {
        fill: #fdfcfd;
      }

      .cls-16 {
        fill: #3dbcd4;
      }

      .cls-17 {
        fill: #fcfafd;
      }

      .cls-7 {
        fill: #6cc5d5;
        stroke: #365ba6;
      }

      .cls-18, .cls-11 {
        fill: #044a6b;
      }

      .cls-8 {
        fill: #f4faf8;
        stroke: #6dc9f3;
      }

      .cls-9 {
        fill: #fbfdfa;
      }

      .cls-12 {
        fill: #009ec5;
      }

      .cls-19 {
        fill: #1d1d1b;
      }

      .cls-13 {
        fill: #06567f;
      }
    </style>
  </defs>
  <g id="Capa_27" data-name="Capa 27">
    <g>
      <path class="cls-9" d="m69.22,530.29c-2.38,26.65-.92,32.01.67,32.33,1.62.33,5.21-4.22,14-32,1.78,1.56,3.56,3.11,5.33,4.67,5.78-26.78,11.56-53.56,17.33-80.33,9.57-3.35,20.62-8.03,32.33-14.67,16.48-9.33,29.23-19.67,38.58-28.5-3.08-.5-6.17-1-9.25-1.5,14-14.78,28-29.56,42-44.33-9.5,3.03-19,6.06-28.5,9.08-.28-2.14-.56-4.28-.83-6.42-13.11,6-26.22,12-39.33,18,9.11-27.22,18.22-54.44,27.33-81.67-3.44.33-6.89.67-10.33,1,11.81-45.06,23.61-90.11,35.42-135.17-4.03,1.72-8.06,3.44-12.08,5.17,5.78-41,11.56-82,17.33-123-3.89,4-7.78,8-11.67,12,2-21,4-42,6-63-11.67,17.78-23.33,35.56-35,53.33-1.67-3.11-3.33-6.22-5-9.33-16.44,53-32.89,106-49.33,159-2.22-2.44-4.44-4.89-6.67-7.33-3.44,35.11-6.89,70.22-10.33,105.33-2.78-1.22-5.56-2.44-8.33-3.67-1.56,27.56-3.11,55.11-4.67,82.67-6.44-8.44-12.89-16.89-19.33-25.33-.16,1.63-.58,3.97-1.92,4.42-2.11.7-5.31-3.72-6.08-4.75-3.57-4.72-14.4-14.58-45.67-37,4.95,11.02,9.45,19.83,12.75,26,5.38,10.06,9.25,16.29,6.92,19.33-1.76,2.3-6.32,1.82-10,1,24.5,22.92,35.61,35.92,33.33,39-1.23,1.66-6.34.43-15.33-3.67.7,4.76,2.12,10.54,5,16.67,8.43,17.89,23.65,26.54,30,29.67-.78,28.22-1.56,56.44-2.33,84.67,2.56-.56,5.11-1.11,7.67-1.67Z"/>
      <path class="cls-7" d="m149.72,168.79c-13.78,59.01-15.95,90.51-6.5,94.5,2.61,1.1,6.11.1,10.5-3-23.46,71.19-33.29,107.52-29.5,109,.94.37,2.72-1.41,5.33-5.33-15.6,28.56-22.8,52.06-16.83,56.33,5.94,4.26,25.72-9.99,47.5-33.5-4.33,6-8.67,12-13,18h13.5c-4.36,6.7-19.79,28.53-47.5,34.5-8.12,1.75-30.85,6.65-45.5-7.5-7.31-7.06-9.64-15.99-10.5-21,3.5,1.17,7,2.33,10.5,3.5-8.18-11.86-16.37-23.71-24.55-35.57,12.78,13.15,20.13,19,22.05,17.57.94-.7.58-3.14-1.08-7.33,9.91,17.84,17.43,26.11,22.58,24.83,8.21-2.04,10.38-28.37,6.5-79,3.67,3.83,7.33,7.67,11,11.5,10.44-37.12,14.75-66.6,16.75-87,1.37-13.97,2.52-32.65,11.25-56,5.7-15.26,12.56-26.96,17.5-34.5Z"/>
      <path class="cls-2" d="m560.88,522.63c2.01,6.34,5.36,26.98-3,48.67-3.47,9.01-8.01,15.72-11.33,20-3.89,31.48-5.19,73.16,4.17,120.5,3.71,18.78,8.57,35.77,13.83,50.83-1.36,3.61-3.69,8.63-6.67,8.67-4.74.05-7.4-13.06-10-12.67-3.61.54.54,25.91-5.67,28.17-5.11,1.86-15.69-12.52-22-25-8.66-17.13-10.27-32.6-10.67-36.83-4.5-47.69-2.51-124.46-2.33-131-52.22-2.67-104.44-5.33-156.67-8-16.24,20.87-33.89,46.49-50.67,77-17.27,31.41-29.67,60.86-38.67,86.33-1.23-4.27-3.23-9.52-6-9.67-4.94-.25-8.63,15.88-11.67,15.33-3.28-.59-1.43-19.82-4.33-20.33-3.34-.59-9.06,22.55-12.33,22-2.49-.42-2.11-14.23-2-16.67,1.51-32.06,54.1-120.34,89-176-4.4-9.1-10.98-25.98-4.85-41.43,24.7-62.23,235.68-50.78,251.85.1Z"/>
      <path class="cls-18" d="m302.06,333.11c-9.22,57.72-6.51,89.55-1.85,108.18,0,0,9.99,42.02,6.67,74.73-.04.35-.25,2.02.46,3.9,0,0,.21.55.68,1.3,0,0,.9,1.43,2.31,2.56,24.34,19.46,130.38,14.76,130.38,14.76,33.58-1.49,39.18-1.97,44.5-2.5,30.63-3.07,56.33-8.45,75.67-13.42.22-8.7.23-17.71,0-27-.59-23.31-2.65-44.97-5.54-64.72-9.62-4.06-24.66-11.83-39.15-26.27-12.36-12.31-19.72-24.9-23.97-33.68-63.38-12.62-126.77-25.23-190.15-37.85Z"/>
      <path class="cls-6" d="m321.22,49.29c4.66-.27,2.21,28.9,20,44.67,5.32,4.71,10.79,6.77,54,10.67,51.01,4.61,57.06,2.98,62.67-1.33,8.52-6.56,14.72-18.37,24.33-36.67,5.03-9.57,8.91-18.58,11-18,3.12.87-1.84,21.91,1.67,23,2.99.93,12.02-12.73,16.83-26.33,1.38-3.91,4.45-9.77,10.58-21.5.66-1.27,2.16-4.08,3.25-3.83,1.29.29,1.33,4.67,1.33,6.67.04,14.35-.21,57.1,1.33,57.33,1.2.18,4.87-25.2,7.83-25,1.16.08,1.84,4.03,3.67,18.83,1.58,12.79,2.65,22.57,2.83,24.17,1.83,16.17,6.43,24.77,10.67,37.67,7.48,22.77,8.19,41.74,9,63.67.58,15.53.13,35.93-3.67,59.67-6.27,1.02-34.58,6.34-53.96,32.37-24.73,33.2-13.64,71.51-12.37,75.63-14.19,3.8-32.46,7.1-53.75,7.08-10.44,0-19.99-.81-28.5-2-1.17,3-3.23,7.86-6.5,13.5-6.27,10.82-10.47,13.25-10.25,19.08.14,3.76,1.92,3.63,7.25,14.17,5.25,10.38,4.18,11.8,7.08,14.17,7.46,6.08,19.41.72,20.67,4,1.11,2.9-8.5,6.48-8.67,13.33-.15,6.19,7.56,8.02,7.33,12.67-.39,8.05-23.73,6.43-33.33,20.67-8.88,13.15-.77,32.03-3.67,32.67-1.2.26-2.67-2.97-9.92-19.25-5.51-12.37-8.24-18.62-7.08-21.42,3.41-8.27,18.39-6.09,20-13,.82-3.51-3.03-4.16-9.17-14.83-5.23-9.1-6.38-15.51-12.17-17.17-1.17-.34-2.28-.4-3.83-.29-13.1.92-23.34,11.69-24.5,10.62-2.37-2.18,31.03-56.27,34.5-61.92.95-1.55,3.09-5.14,1.75-7.75-1.25-2.43-4.92-2.83-6.25-3-9.65-1.22-18.29-6.62-27.47-9.82-8.99-3.13-14.7-6.92-24.53-13.43-13.99-9.27-39.29-32.25-53.33-66.75,0,0-19.95-49.01-1.67-128.5,3.16-13.74,4.35-27.97,8.57-41.41.43-1.36,1.99-6.08,2.18-12.59.02-.7.05-2.32-.13-4.91-.7-10.32-3.36-16.77-2.62-17.09,1.32-.58,9.26,20.9,14,20,2.85-.54,3.3-8.91,5-33.5,1.94-27.98,2.58-34.87,4-35,3.78-.34,9.5,47.31,15,47,4.09-.23,4.55-26.75,9-27Z"/>
      <ellipse class="cls-14" cx="387.72" cy="234.29" rx="111.5" ry="100"/>
      <path class="cls-15" d="m327.22,276.29c5.57.93,10.1-2.94,13.67-5.33,14.12-9.46,31.54-8.02,35.83-7.67,15.17,1.25,16.87,9.45,38,12,12.4,1.5,15.62-.87,17-2.5,4.27-5.06.9-15.05-2.06-20.47-14.17-25.99-60.49-23.43-63.67-23.22-9.74.65-24.45,1.84-36.27,12.69-6.08,5.58-15.92,17.88-12,27,1.59,3.71,5.43,6.82,9.5,7.5Z"/>
      <path class="cls-16" d="m372.36,263.04c11.47-6.82,21.52-8.27,27.35-8.58,13.62-.71,32.34,3.35,34.02,11.49.51,2.48-.59,5.21-2.02,6.85-.99,1.14-3.52,3.35-13.15,2.86-10.85-.55-19.13-3.94-20.52-4.52-7.36-3.09-9.26-5.52-16.37-7.1-3.82-.85-7.09-1.01-9.32-.99Z"/>
      <path class="cls-17" d="m339.47,235.67c1.51-1.05,3.39-2.16,5.62-3.12,4.74-2.04,9.08-2.54,12.06-2.61,3.24,7.17-.49,14.42-5.06,15.74-4.43,1.28-11.2-2.57-12.62-10Z"/>
      <path class="cls-17" d="m380.87,229.26c5.73.85,11.45,1.7,17.18,2.55-.47,8.16-6.47,13.13-10.46,12.61-4.03-.53-8.59-7.05-6.72-15.16Z"/>
      <path class="cls-17" d="m403.8,233.4c5.4,2.67,10.81,5.33,16.21,8-2.92,7.53-10.63,10.05-14.55,7.9-3.78-2.07-5.79-9.44-1.67-15.89Z"/>
      <path class="cls-8" d="m338.97,212.54c-.53-4.33-1.91-10.85-6-17.5-5.42-8.82-15.39-17.56-18.75-15.5-3.53,2.16-1.26,17.15,8,25.75,5.93,5.51,13.06,6.85,16.75,7.25Z"/>
      <path class="cls-8" d="m410.97,213.29c1.08-6.28,3.69-15.89,10.75-25,5.82-7.5,15.46-15.7,18.25-13.75,2.79,1.95-1.18,14.12-7.5,22.75-6.84,9.33-15.94,13.85-21.5,16Z"/>
      <path class="cls-11" d="m272.31,292.09c-2.28.63-28.1,8.22-37.42,34.87-9.6,27.45,7.07,50.01,8.33,51.67-18,16.79-18.98,39.5-9.33,49,8.43,8.3,23.56,5.14,25.67,4.67,2.32,7.11,8.1,12.2,14.33,12.67,8.67.65,17.93-7.63,18-19.33h9c.14-3.35.32-8.86.33-15.67.04-33.61-.28-68.22-18.25-101.33-2.09-3.85-5.54-9.75-10.66-16.54Z"/>
      <path class="cls-12" d="m562.21,225.81c11.19,2.18,27,6.92,43,17.85,24.12,16.46,35.02,37.66,40,47.64,7.97,15.96,14.41,28.87,12,39-6.3,26.48-74.08,37.99-164.5,33.5-.74-3.51-9.57-49.3,22.19-79.84,16.14-15.53,35.06-19.69,43.64-20.99,1.22-12.38,2.44-24.77,3.66-37.15Z"/>
      <path class="cls-13" d="m492.72,363.79c4.53,13.85,13.16,32.85,30.83,47.83,18.76,15.9,43.47,23.68,43.33,24-.04.08-1.79-.54-11.54-4.72,1.74,21.91,3.47,43.81,5.21,65.72,9.66-3.07,57.15-19.27,84.33-70,26.43-49.33,14.96-96.42,12.24-106.59-54.8,14.58-109.6,29.17-164.4,43.75Z"/>
      <path class="cls-11" d="m591.88,340.96c4.21,12.16,14.07,17.55,20,15.33,4.94-1.85,6.59-8.76,6.89-10.13,5.46,7.98,13.15,11.78,18.45,9.8,6.73-2.52,7.5-13.59,7.67-16,1.26-18.1-13.75-35.96-29.67-44.67-4.37-2.39-21.75-11.54-42.67-5.67-26.11,7.33-36.33,32.05-38.33,37.33-11.59,30.57,2.25,68.42,26.67,81.67,14.21,7.71,34.69,8.55,38,2,2.07-4.1-2.71-10.84-8-16.67,2.3,3.65,5.91,8.79,11.17,14.17,5.6,5.73,13.21,13.52,25.17,16.83,6.04,1.67,16.67,4.62,22-1.33,4.17-4.65,3.89-13.39-.83-21.5,1.47.62,9.32,3.79,17,0,8.06-3.98,10.1-12.75,10.5-14.5,3.11-13.43-9.58-30.92-31.5-43.42,0,4.9-2.22,9.33-5.95,11.19-5.27,2.62-11.06-1.11-13.3-2.55-3.38-2.18-5.34-4.95-6.36-6.67-.3,1.37-1.95,8.28-6.89,10.13-5.93,2.22-15.79-3.18-20-15.33Z"/>
      <path class="cls-3" d="m240.57,431.94c-5.87,31.16-21.17,40.23-25.82,42.6-22.94,11.66-55.66-3.16-68.35-8.91-17.54-7.95-40.03-22.6-54.41-19-2.18.55-6.86,1.72-7.99,5.17-1.09,3.33,1.39,7.94,4.59,8.83,4.15,1.16,8.71-4.15,9.52-3.33.7.7-3.2,4.09-4.25,8.67-1.2,5.27.69,11.53,4.76,14.5,2.59,1.89,5.46,2.03,6.29,2.08,14.76,1.02,39.89,22.54,67.33,29.5,9.24,2.34,24.81,6.33,41.32.25,20.59-7.58,33.49-27.41,47.69-49.25,4.89-7.51,8.49-13.97,10.81-18.36-.88-8.86-7.17-15.95-15.14-17.51-8.79-1.72-15.56,4.07-16.35,4.77Z"/>
      <path class="cls-5" d="m96.57,446.39c.12-2.97-12.87-8.95-22.91-4.85-9.08,3.71-12.29,14.24-11.02,15.12,1.1.77,5.3-5.95,13.47-6.62,3.56-.3,4.34.85,8.71.62,5.08-.26,11.67-2.19,11.75-4.28Z"/>
      <path class="cls-5" d="m60.59,465.92c-.27-2.13-.31-5.85,2.04-9.25,3.53-5.1,10.04-5.98,15.12-6.66,3.28-.44,8.37-1.13,9.55.87,1.12,1.91-1.58,5.78-4.94,7.79-3.68,2.2-6.4,1.12-11.84,2.5-3.2.81-6.56,2.28-9.94,4.75Z"/>
      <path class="cls-1" d="m60.59,464.51c2.4-1.67,5.61-3.57,9.63-5.15,5.15-2.02,9.78-2.78,13.17-3.06,6.04-1.68,11.74.99,13.4,5.24,1.38,3.53.04,8.32-2.99,10.19-5.09,3.13-11.1-4.31-18.39-1.42-4.83,1.92-5.57,6.53-8.41,6.23-2.37-.25-4.57-3.76-6.41-12.03Z"/>
      <path class="cls-7" d="m165.22,85.29c-1.67-.25-5.6,15.56-7.5,28.5-.21,1.45-2.63,18.15-1,18.5,1.36.29,5.41-10.91,7.5-22,2.22-11.78,2.49-24.77,1-25Z"/>
      <path class="cls-10" d="m673.4,394.21c30.63,37.03,43,71.81,48.48,92.42,6.38,23.99,6.58,52.55,7,109.67.01,1.88-.01-.72-3,32.33-.61,6.79-2.22,24.75-9.33,29-.56.33-2.06,1.23-3.5.75-2.94-.98-3.55-7.02-3.83-9.83-.31-3.06-.13-5.75-.17-5.75,0,0,.35,4.27-.83,8.75-.12.46-2.7,9.91-6.67,9.92-2.94,0-5.9-5.17-6.33-9.33-.15-1.41.1-1.73,0-5.74-.1-4.04-.4-5.94-.47-5.93-.13,0,1.88,7.2-1.68,12.25-1.46,2.07-4.39,4.53-6.52,3.92-4.95-1.43-3.98-18.88-3.67-24.67,4.27-79.12,6.46-124.76-5.33-159-4.74-13.78-14.47-33.59-37-54.33,10.95-8.14,21.9-16.28,32.86-24.42Z"/>
      <path class="cls-4" d="m518.72,775.54c-1.42-7.17-2.83-14.33-4.25-21.5,7.76,8.06,15.53,16.12,23.29,24.17,3.15-8.14,6.3-16.28,9.46-24.42,2.58,3.83,5.17,7.67,7.75,11.5,3.5-6.83,7-13.67,10.5-20.5l6.75,12.75c2.5-2.67,5-5.33,7.5-8,.58,6.08,1.17,12.17,1.75,18.25,3.58.92,7.17,1.83,10.75,2.75-9.42,14.83-18.83,29.67-28.25,44.5-6.11-.96-14.4-3.03-23.25-7.75-17.13-9.13-26.17-22.78-30-29.5,2.67-.75,5.33-1.5,8-2.25Z"/>
      <path class="cls-4" d="m210.47,733.79c2.5,4.33,5,8.67,7.5,13l.75-25.5c3.33,8.08,6.67,16.17,10,24.25l9.75-18.75c1.67,5.92,3.33,11.83,5,17.75,1.85-1.6,4.09-3.33,6.75-5,3.46-2.17,6.72-3.68,9.5-4.75.42,3.17.83,6.33,1.25,9.5,6.5.33,13,.67,19.5,1-4.31,7.57-11.97,18.7-24.75,28.5-7.01,5.37-13.82,9.02-19.5,11.5-4.46-2.92-11.73-8.55-17.5-18-8.61-14.1-8.57-28-8.25-33.5Z"/>
      <path class="cls-19" d="m217.34,764.9c-16.02,83.74-20.87,118.41-19.62,125.39.11.62.69,3.4-.5,6.33-2.34,5.76-9.68,7.58-15,9.17-12.95,3.86-30.55,9.1-32.5,17.5-1.34,5.8,4.89,12.57,10.17,15.67,6.96,4.08,14.42,3.06,25.33.67,27.56-6.05,41.34-9.07,48-15.83,12.3-12.48,10.29-30.69,10-51-.35-24.71,1.74-59.83,13-104-12.96-1.3-25.92-2.6-38.88-3.89Z"/>
      <path class="cls-19" d="m538.88,803.63c32.76,58,56.2,98.62,61.5,105.33.6.76,3,3.66,2.5,7-.62,4.19-5.41,6.48-8.67,8.33-8.23,4.67-22.04,15.18-22.17,24.33-.08,5.98,5.66,11.73,11,14.17,4.1,1.87,10.39,2.91,39.5-10.83,17.14-8.09,25.76-12.25,28-17.67,5.54-13.42-8.92-31.02-14.67-38.33-16.92-21.53-38.56-56.01-60.33-113.67-12.22,7.11-24.44,14.22-36.67,21.33Z"/>
      <path class="cls-12" d="m302.07,333.11c-.11,9.35-.21,18.71-.31,28.07-10.31-4.97-20.62-9.95-30.92-14.93-.15-20.59,6.97-36.64,8.95-40.9,7.42,9.25,14.85,18.51,22.28,27.76Z"/>
      <path class="cls-13" d="m301.76,361.18c-.18,16.26-.36,32.52-.54,48.78-6.78-5.68-17.55-16.37-24.33-33-4.38-10.73-5.99-21.21-6.05-30.71,10.3,4.98,20.61,9.96,30.92,14.93Z"/>
    </g>
  </g>
</svg>