<?xml version="1.0" encoding="UTF-8"?>
<svg id="Capa_2" data-name="Capa 2" xmlns="http://www.w3.org/2000/svg" viewBox="0 0 397.88 369.85">
  <defs>
    <style>
      .cls-1 {
        fill: none;
      }

      .cls-1, .cls-2 {
        stroke: #000;
      }

      .cls-1, .cls-2, .cls-3 {
        stroke-miterlimit: 10;
      }

      .cls-2 {
        fill: #faf9e2;
      }

      .cls-4, .cls-5 {
        stroke-width: 0px;
      }

      .cls-5 {
        fill: #612411;
      }

      .cls-3 {
        fill: #fcfefe;
        stroke: #1d1d1b;
      }
    </style>
  </defs>
  <g id="Capa_25" data-name="Capa 25">
    <g>
      <path class="cls-2" d="m396.82,177.5c-2.06-20.91-10.87-51.36-22.75-52.14-3.78-.25-7.36,2.55-9.25,5.14-8.06,11.09,8.78,26.7,13,52,6.67,39.98-23.12,74.65-26.66,78.67-9.66,10.93-19.89,17.71-26.98,21.69-.3-7.27-2.14-14.63-5.36-21.03-5.77-11.47-14.93-17.81-20.14-20.79,5.24-5.34,10.02-11.47,14.14-18.54,24.93-42.71,8.69-89.61,7.34-93.33-9.08-24.97-26.34-42.92-46.02-55.82-1.34-9.25-3.22-19.75-5.9-30.35-1.91-7.54-3.39-11.51-6.35-19.45,0,0-2.27-6.05-8.9-17.05-2.14-3.55-3.81-5.99-6-6-1.58-.01-3.56,1.23-6,6-4.66,9.11-10.65,30.47-14.44,44.97-26.19-8.21-48.86-10.38-55.06-10.97-20.38-1.95-54.55-4.78-91.33,13.33-4.66,2.3-21.17,10.42-37.85,25.33-.01.01-.02.02-.03.04-9.48,8.46-19.02,19.12-26.49,32.15-6.82,11.92-11.91,25.81-13.63,41.82-3.9,36.19,10.26,75.5,38.66,98.66,8.61,7.02,16.95,11.28,27.07,14.81-6.27,10.97,2.12,28.13,9.6,37.86,3.52,4.57,7.48,8.34,12,11.47v32.77c-.42.27-1.12.81-1.5,1.73-.7,1.68.17,3.49.88,4.37,2.06,2.56,7.12,2.58,9.87.38,2.3-1.85,2.62-4.96,2.75-6.5.7-8.11.53-18.88.29-26.2,7.71,3.14,16.68,5.33,27.24,7.09v14.08c-.42.27-1.12.82-1.5,1.73-.7,1.68.16,3.49.87,4.38,2.06,2.56,7.13,2.57,9.88.37,2.3-1.84,2.61-4.96,2.75-6.5.32-3.72.46-8,.49-12.25,10.38,1.33,22.08,2.47,35.31,3.75,0,0,25.76,2.5,62.67-1.06v27.16c-.42.27-1.12.82-1.5,1.73-.7,1.68.17,3.49.88,4.38,2.06,2.55,7.12,2.57,9.87.37,2.3-1.85,2.62-4.96,2.75-6.5.78-9,.48-21.3.21-28.5,8.1-1.02,16.61-2.35,25.4-4.05v20.04c-.42.27-1.12.81-1.5,1.73-.69,1.68.17,3.49.88,4.37,2.06,2.56,7.12,2.58,9.87.38,2.31-1.85,2.62-4.96,2.75-6.5.59-6.91.56-15.75.39-22.75,6.25-1.75,12.47-4.39,18.5-8.72,1.64-1.18,3.95-2.83,6.19-5.06,14.36-6.21,35.28-17.93,52.98-39.69,3.87-4.77,34.72-43.86,29.66-95Zm-348.16-4.33c-1.75,0-3.17-1.42-3.17-3.17s1.42-3.17,3.17-3.17,3.16,1.42,3.16,3.17-1.41,3.17-3.16,3.17Zm48,7.16c.38-.74,1.5-.48,6.49-.62,4.57-.12,5.62-.39,6.01.29.81,1.43-2.63,4.62-3.59,5.5-.94.88-1.61,1.28-2.41,1.33-.65.05-1.44-.14-2.75-1.16-1.22-.95-4.51-3.87-3.75-5.34Zm51.5,49.17c-1.33,4.12-5.47,8.01-10.34,9-3.79.77-7.02-.42-10.07-2.33-.02-.01-.03-.02-.05-.03-.63-.4-1.25-.83-1.87-1.28-3.83-2.61-7.66-5.21-11.5-7.81,0-.01-.01-.01-.01-.01-.13-.06-.28-.12-.45-.18-.23-.08-.47-.16-.7-.24-.36-.11-.72-.2-1.08-.29-.34-.08-.72-.15-1.11-.2-.33-.04-.67-.07-1.01-.09-.35-.01-.71-.01-1.06,0-.16.01-.32.02-.48.03-.22,0-.43.04-.64.07-2.1.28-3.75,1.07-4.88,1.77-.57.36-1.01.7-1.29.93-.16.12-.32.25-.47.38-.91.97-2.72,2.71-5.5,3.96-.56.26-1.16.49-1.8.7-.03.01-.05.02-.08.02-.22.07-.45.14-.67.19-.18.05-.35.1-.53.13-2.43.6-4.5.52-5.79.38h0c-4.29-.26-9.16-1.69-11.62-5.43-3.95-6-.11-15.47,4-20.67.41-.52.85-1.03,1.31-1.51-.01,0-.01-.01-.01-.01.07-.07.15-.15.22-.22.1-.1.2-.2.31-.31,1.66-1.66,3.56-3.1,5.66-4.3.05-.04.11-.08.17-.11l.06-.03c3.07-1.8,5.94-2.77,8.11-3.31.11-.04.22-.06.32-.09.03-.01.06-.01.09-.02,4.95-1.31,10.36-1.75,15.77-1.33.1,0,.2.01.29.01h0c.13.02.26.03.39.05h0c.08,0,.15,0,.23,0,.07.01.15.01.23.02.16.02.32.03.48.05,1.56.17,3.3.43,5.16.84.03,0,.06.01.1.02.54.11,1.08.24,1.64.39.01,0,.02,0,.03.01.22.05.44.11.67.17.16.04.33.09.49.14.43.12.85.24,1.26.37.19.06.37.12.55.18.28.08.56.17.83.28.33.11.65.22.97.34.28.1.55.21.82.31.51.2,1,.4,1.47.6.39.17.78.34,1.17.52,2.19,1.03,4.27,2.23,6.21,3.6,6.71,4.76,16.89,15.37,14,24.33Zm7.77-57.75c-1.75,0-3.17-1.42-3.17-3.17s1.42-3.16,3.17-3.16,3.16,1.41,3.16,3.16-1.41,3.17-3.16,3.17Z"/>
      <path class="cls-4" d="m40.71,153.05c3.85-4.73,10.71-5.84,15.82-2.47,1.35.89,2.6-1.28,1.26-2.16-5.97-3.93-14.33-2.69-18.85,2.86-1.01,1.24.75,3.02,1.77,1.77h0Z"/>
      <path class="cls-4" d="m144.88,147.08c2.04-1.93,4.9-3.17,7.8-3.24,1.86-.05,3.73.35,5.4,1.17.59.29,1.17.62,1.71,1,.48.33.47.32.85.65,1.21,1.04,2.99-.72,1.77-1.77-5.55-4.78-13.98-4.63-19.3.43-1.17,1.11.6,2.88,1.77,1.77h0Z"/>
      <path class="cls-4" d="m51.82,170c0,1.75-1.41,3.17-3.16,3.17s-3.17-1.42-3.17-3.17,1.42-3.17,3.17-3.17,3.16,1.42,3.16,3.17Z"/>
      <path class="cls-4" d="m159.09,168.58c0,1.75-1.41,3.17-3.16,3.17s-3.17-1.42-3.17-3.17,1.42-3.16,3.17-3.16,3.16,1.41,3.16,3.16Z"/>
      <path class="cls-4" d="m44.06,182.54c-1.31-.31-2.51-1.02-3.42-2.06-1.19-1.36-1.71-3.2-1.52-4.98.04-.34-.31-.62-.62-.62-.37,0-.59.29-.62.62-.4,3.77,2.19,7.37,5.86,8.25.78.19,1.12-1.02.33-1.21h0Z"/>
      <path class="cls-4" d="m165.8,172.7c-.31,1.31-1.02,2.51-2.06,3.42-1.36,1.19-3.2,1.71-4.98,1.52-.34-.04-.62.31-.62.62,0,.37.29.59.62.62,3.77.4,7.37-2.19,8.25-5.86.19-.78-1.02-1.12-1.21-.33h0Z"/>
      <path class="cls-1" d="m148.16,229.5c-1.33,4.12-5.47,8.01-10.34,9-3.79.77-7.02-.42-10.07-2.33-.02-.01-.03-.02-.05-.03-.62-.43-1.25-.85-1.87-1.28-3.76-2.71-7.34-6.14-11.5-7.81,0-.01-.01-.01-.01-.01-.13-.06-.28-.12-.45-.18-.23-.08-.47-.16-.7-.24-.36-.11-.72-.2-1.08-.29-.34-.08-.72-.15-1.11-.2-.32-.05-.66-.08-1.01-.09s-.71-.01-1.06,0c-.16.01-.32.02-.48.03-.21,0-.43.03-.64.07-.1,0-.2.02-.3.03-1.9.28-3.34.92-4.58,1.74-.57.36-1.01.7-1.29.93-.16.12-.32.25-.47.38-1.65,1.36-3.19,2.88-5.5,3.96-.56.26-1.16.49-1.8.7-.03.01-.05.02-.08.02-.22.07-.45.14-.67.19-.18.05-.35.1-.53.13-.55.11-1.13.2-1.75.28-1.2.14-2.58.18-4.04.09-4.29-.25-9.16-1.68-11.62-5.42-3.95-6-.11-15.47,4-20.67.41-.52.85-1.03,1.31-1.51.07-.08.14-.16.21-.23.1-.1.2-.2.31-.31.07-.06.14-.12.21-.19.21-.2.43-.41.67-.62.92-.85,1.91-1.63,2.96-2.32.57-.4,1.18-.79,1.82-1.17.05-.04.11-.08.17-.11l.06-.03c2.48-1.41,5.21-2.51,8.11-3.31.11-.03.21-.06.32-.08h0s.06-.02.09-.03c4.95-1.31,10.36-1.75,15.77-1.33.09,0,.19.01.29.02.13.01.26.02.39.04.08,0,.15,0,.23,0,.07.01.15.01.23.02.16.02.32.03.48.05,1.56.17,3.3.43,5.16.84.03,0,.06.01.1.02.55.12,1.1.25,1.64.39.01,0,.02,0,.03.01.22.05.44.11.67.17.16.04.33.09.49.14.43.12.85.24,1.26.37.19.06.37.12.55.18.28.09.56.18.83.28.33.11.65.22.97.34.28.1.55.21.82.31.51.2,1,.4,1.47.6.39.17.78.34,1.17.52,2.19,1.03,4.27,2.23,6.21,3.6,6.71,4.76,16.89,15.37,14,24.33Z"/>
      <path class="cls-1" d="m105.57,185.5c-.94.88-1.61,1.28-2.41,1.33-.65.05-1.44-.14-2.75-1.16-1.22-.95-4.51-3.87-3.75-5.34.38-.74,1.5-.48,6.49-.62,4.57-.12,5.62-.39,6.01.29.81,1.43-2.63,4.62-3.59,5.5Z"/>
      <path class="cls-1" d="m103.16,186.83c.2,3.46.39,6.93.59,10.39"/>
      <path class="cls-2" d="m44.49,76.83c-.66.69-1.39,1.47-2.18,2.33-.01.01-.02.02-.03.04-9.48,8.46-19.02,19.12-26.49,32.15C7.74,109.04-1.08,78.54.74,49.5c.32-5.12.92-9.36,1.42-12.33,14.11,13.22,28.22,26.44,42.33,39.66Z"/>
      <path class="cls-1" d="m51.82,170c0,1.75-1.41,3.17-3.16,3.17s-3.17-1.42-3.17-3.17,1.42-3.17,3.17-3.17,3.16,1.42,3.16,3.17Z"/>
      <path class="cls-1" d="m105.57,185.5c-.94.88-1.61,1.28-2.41,1.33-.65.05-1.44-.14-2.75-1.16-1.22-.95-4.51-3.87-3.75-5.34.38-.74,1.5-.48,6.49-.62,4.57-.12,5.62-.39,6.01.29.81,1.43-2.63,4.62-3.59,5.5Z"/>
      <path class="cls-5" d="m148.16,229.5c-1.33,4.12-5.47,8.01-10.34,9-3.79.77-7.02-.42-10.07-2.33-.02-.01-.03-.02-.05-.03-.62-.43-1.25-.85-1.87-1.28-3.83-2.61-7.66-5.21-11.5-7.81,0-.01-.01-.01-.01-.01-.13-.06-.28-.12-.45-.18-.23-.08-.47-.16-.7-.24-.36-.11-.72-.2-1.08-.29-.34-.08-.72-.15-1.11-.2-.32-.05-.66-.08-1.01-.09s-.71-.01-1.06,0c-.16.01-.32.02-.48.03-.21,0-.43.03-.64.07-2.1.28-3.75,1.07-4.88,1.77-.57.36-1.01.7-1.29.93-.16.12-.32.25-.47.38-.91.97-2.72,2.71-5.5,3.96-.56.26-1.16.49-1.8.7-.03.01-.05.02-.08.02-.22.07-.45.14-.67.19-.18.05-.35.1-.53.13-2.43.6-4.5.52-5.79.38h0c-4.29-.26-9.16-1.69-11.62-5.43-3.95-6-.11-15.47,4-20.67.41-.52.85-1.03,1.31-1.51-.01,0-.01-.01-.01-.01.07-.07.15-.15.22-.22.1-.1.2-.2.31-.31.07-.06.14-.12.21-.19.21-.2.43-.41.67-.62.92-.85,1.91-1.63,2.96-2.32.57-.4,1.18-.79,1.82-1.17.05-.04.11-.08.17-.11l.06-.03c3.07-1.8,5.94-2.77,8.11-3.31.11-.04.22-.06.32-.09.03-.01.06-.01.09-.02,4.95-1.31,10.36-1.75,15.77-1.33.1,0,.2.01.29.01h0c.13.02.26.03.39.05h0c.08,0,.15,0,.23,0,.07.01.15.01.23.02.16.02.32.03.48.05,1.56.17,3.3.43,5.16.84.03,0,.06.01.1.02.55.12,1.1.25,1.64.39.01,0,.02,0,.03.01.22.05.44.11.67.17.16.04.33.09.49.14.43.12.85.24,1.26.37.19.06.37.12.55.18.28.09.56.18.83.28.33.11.65.22.97.34.28.1.55.21.82.31.51.2,1,.4,1.47.6.39.17.78.34,1.17.52,2.19,1.03,4.27,2.23,6.21,3.6,6.71,4.76,16.89,15.37,14,24.33Z"/>
      <path class="cls-1" d="m159.09,168.58c0,1.75-1.41,3.17-3.16,3.17s-3.17-1.42-3.17-3.17,1.42-3.16,3.17-3.16,3.16,1.41,3.16,3.16Z"/>
      <path class="cls-3" d="m127.75,236.17s-.03-.02-.05-.03c-.62-.43-1.25-.85-1.87-1.28-3.83-2.61-7.66-5.21-11.5-7.81,0-.01-.01-.01-.01-.01,2.91-9.1,5.41-13.56,7.5-13.37,2.62.23,4.6,7.73,5.93,22.5Z"/>
      <path class="cls-3" d="m114.32,227.04c-.13-.06-.28-.12-.45-.18-.21-.08-.44-.17-.7-.24-.32-.11-.68-.21-1.08-.29-.34-.08-.72-.15-1.11-.2-.32-.05-.66-.08-1.01-.09-.34-.02-.69-.02-1.06,0-.09,0-.18,0-.27.01-.07,0-.14.01-.21.02-.21,0-.43.03-.64.07-2.1.28-3.75,1.07-4.88,1.77-.57.36-1.01.7-1.29.93-.05-.45-.12-1.07-.15-1.81-.23-5.09,1.29-11.81,3.69-12.36,2.33-.54,6.05,4.69,9.16,12.37Z"/>
      <path class="cls-3" d="m101.15,229.22c-.91.97-2.72,2.71-5.5,3.96-.56.26-1.16.49-1.8.7-.03.01-.05.02-.08.02-.22.07-.45.14-.67.19-.18.05-.35.1-.53.13-2.43.6-4.5.52-5.79.38h0c.01-2.4.27-5.86,1.46-9.85,1.07-3.61,1.82-4.03,2.13-4.17,3.15-1.37,9.39,6.79,10.78,8.64Z"/>
      <path class="cls-3" d="m91.43,216.12c-1.15.28-2.35-.48-4.13-1.62-3.81-2.44-5.85-5.66-6.83-7.51-.01,0-.01-.01-.01-.01.07-.07.15-.15.22-.22.1-.1.2-.2.31-.31.07-.06.14-.12.21-.19.21-.2.43-.41.67-.62.84-.75,1.83-1.54,2.96-2.32.57-.4,1.18-.79,1.82-1.17.05-.04.11-.08.17-.11l.06-.03c3.07-1.8,5.94-2.77,8.11-3.31.11-.04.22-.06.32-.09h0c.06,3.02.21,16.52-3.88,17.51Z"/>
      <path class="cls-3" d="m111.46,197.27h0c-.64,6.76-2.22,11.73-3.97,13.11-1.3,1.02-2.5,1-2.5,1-1.03-.02-1.78-.57-2.12-.82-1.69-1.22-4.55-5.67-7.56-11.94h0s.06-.02.09-.03c2.25-.49,4.82-.92,7.67-1.17,3-.27,5.72-.28,8.1-.16.1,0,.2.01.29.01Z"/>
      <path class="cls-3" d="m127.95,201.57c-1.09,2.26-2.97,5.84-5.27,8.55-.54.64-1.33,1.5-2.38,1.5-1.07.01-1.94-.9-2.62-1.81-2.68-3.53-5.1-10.41-5.83-12.49h0c.08,0,.15,0,.23,0,.07.01.15.01.23.02.16.02.32.03.48.05,1.56.17,3.3.43,5.16.84.03,0,.06.01.1.02.55.12,1.1.25,1.64.39.01,0,.02,0,.03.01.22.05.44.11.67.17.16.04.33.09.49.14.43.12.85.24,1.26.37.19.06.37.12.55.18.28.09.56.18.83.28.33.11.65.22.97.34.28.1.55.21.82.31.51.2,1,.4,1.47.6.39.17.78.34,1.17.52Z"/>
      <path class="cls-2" d="m298.68,241.04c-9.06,5.58-23.49,12.95-42.52,16.79-15.29,3.09-28.51,2.89-38,2"/>
      <path class="cls-2" d="m61.56,264.23c4.68,1.72,10.09,3.4,16.18,4.77,5.63,1.26,10.84,2.04,15.5,2.5"/>
    </g>
  </g>
</svg>