<?xml version="1.0" encoding="UTF-8"?>
<svg id="Capa_2" data-name="Capa 2" xmlns="http://www.w3.org/2000/svg" viewBox="0 0 1080.62 662.99">
  <defs>
    <style>
      .cls-1 {
        fill: #743364;
      }

      .cls-1, .cls-2 {
        stroke-width: 0px;
      }

      .cls-2 {
        fill: #020304;
      }

      .cls-3 {
        fill: #003f5c;
      }

      .cls-3, .cls-4, .cls-5, .cls-6, .cls-7, .cls-8, .cls-9, .cls-10 {
        stroke: #000;
        stroke-miterlimit: 10;
      }

      .cls-4, .cls-10 {
        fill: #0a101c;
      }

      .cls-5 {
        fill: #4f1c10;
      }

      .cls-6 {
        fill: #3e66a9;
      }

      .cls-7 {
        fill: #5a717b;
      }

      .cls-8 {
        fill: #d59516;
      }

      .cls-9 {
        fill: #fff;
      }

      .cls-10 {
        stroke-width: 2px;
      }
    </style>
  </defs>
  <g id="Capa_27" data-name="Capa 27">
    <g>
      <path class="cls-6" d="m345.01,394.87c-14.4,23.91-35.86,54.2-66.9,84.56-33.44,32.7-66.72,54.43-92.27,68.49-1.96-8.73-5.31-17.92-11.37-19.19-12.53-2.64-30.3,30.03-38.66,53.93-2.32,6.65-20.99,60.03-.48,75.29,6.3,4.68,17.15,6.42,25.92,1.96,9.73-4.94,12.64-15.33,13.19-17.49,1.11.68,17,10.03,29.84,2.79,13.52-7.63,12.43-27.36,12.06-34.21-1.12-20.25-13.97-33.79-18.55-38.18,61.24-48.03,122.48-96.07,183.72-144.1,10.07-10.11,10.48-25.76,2.5-35-9.15-10.6-27.96-11.21-39,1.17Z"/>
      <path class="cls-6" d="m627.85,430.14c6.28,4.14,14.23-2.97,32.94-2.49,6.9.18,12.54,1.32,16.25,2.27-11.86,22.06-20.7,39.06-26.69,50.72-4.1,7.97-9.71,19.01-15.87,18.46-6.43-.58-7.86-13.28-12.94-13.45-6.22-.21-12.98,18.54-16.1,36.69-2.66,15.51-9.96,58.01,14.37,79.99,1.55,1.4,15.16,13.43,24.73,9.32,9.18-3.94,6.33-19.15,16.55-23.34,8.05-3.3,14.61,4.17,24.08-.37,0,0,5.47-2.62,8.66-8.38,6.36-11.45-5.6-34.25-28.89-56.16,16.14-35.37,32.44-62.24,45.09-81.07,12.35-18.38,24.43-33.91,18.94-43.42-2.33-4.04-7.36-6.15-33.03-7.19-41.94-1.7-63.05-2.31-70.42,8.89-6.29,9.56-4.42,25.06,2.33,29.51Z"/>
      <path class="cls-6" d="m780.73,150.9c8.31-1.16,90.45-12.37,127.65-6.58,7.35,1.14,14.92,3.26,22.14,8.3,12.12,8.46,17.25,20.97,20.71,30.98,12.86,37.18,17.97,84.13,19.4,98.6-11.33,13.86-22.66,27.72-33.99,41.58-19.35-27.66-38.7-55.31-58.06-82.97-31.4,13.97-62.79,27.93-94.19,41.9-36.93-40.08-47.34-86.7-29.36-112.89,3.7-5.39,10.97-13.36,25.68-18.92Z"/>
      <path class="cls-6" d="m411.67,178.89c-11.87-14.44-23.74-28.88-35.61-43.32-11.61,8.43-24.95,19.6-38.27,34.14-19.15,20.9-31.75,41.65-39.95,57.93-2.4-14.49-5.45-29.83-9.31-45.89-4.88-20.25-10.41-38.95-16.17-55.99,3.63-15.47,11.57-40.28,30.05-65.68,9.79-13.46,23.21-24.57,50.03-46.8,7.6-6.3,14.75-11.87,24.9-12.68,12.7-1.01,22.53,6.04,30.74,11.85,60.31,42.62,63.93,39.48,77.49,57.06,13.21,17.12,20.65,26.77,21.2,41.42,1.18,31.71-30.85,63.61-64.88,69.38-12.35,2.09-23.02.42-30.21-1.41Z"/>
      <path class="cls-6" d="m1051.4,325.87c4.89-7.55,19.88-32.33,10.75-48.4-12.2-21.45-61.21-16.45-91.5-.06-50.24,27.16-57.85,90.39-58.85,99.91,62.95,39.6,123.08,49.8,149.62,24.99,7.84-7.33,23.75-27.99,17.13-49.28-5.39-17.33-22.65-25.25-27.15-27.16Z"/>
      <path class="cls-6" d="m412.14,292.03c-34.89-44.95-55.3-65.66-61.23-62.12-1.81,1.08-2.27,4.41-1.38,9.99-7.44-3.7-15.42-7.08-23.95-9.99-65.07-22.18-127.12-4.69-161.33,8.67,17.5,8.56,20.54,14.44,20.16,18.2-1.74,17.26-79.37,26.72-124.17,56.45-2.29,1.52-15.54,10.31-13.99,14.02s17,.18,17.28,1.53c.49,2.31-44.62,12.35-43.95,17.8.42,3.42,18.46,1.93,19.59,6.82,1.64,7.14-34.56,20.35-33.59,23.18,1.42,4.15,79.03-23.45,87.88-7.57,2.23,4.01-1.48,7.97.79,10.24,9.71,9.7,86.41-53.84,94.05-45.54,1.53,1.66-.57,5.27,1.14,6.32,4.99,3.09,26.35-25.67,30.91-22.78,2.2,1.39-1.89,8.61.56,10.64,4.37,3.63,20.07-17.1,42.57-24.16,16.54-5.19,16.88,3.25,55.9,6.1,35.76,2.61,59.88-2.7,71.74,12.08,2.16,2.69,4.09,6.27,7,6.15,6.73-.3,11.28-20.02,14.03-36.03Z"/>
      <path class="cls-4" d="m358.52,392.89c-14.4,23.91-35.86,54.2-66.9,84.56-33.44,32.7-66.72,54.43-92.27,68.49-1.96-8.73-5.31-17.92-11.37-19.19-12.53-2.64-30.3,30.03-38.66,53.93-2.32,6.65-20.99,60.03-.48,75.29,6.3,4.68,17.15,6.42,25.92,1.96,9.73-4.94,12.64-15.33,13.19-17.49,1.11.68,17,10.03,29.84,2.79,13.52-7.63,12.43-27.36,12.06-34.21-1.12-20.25-13.97-33.79-18.55-38.18,61.24-48.03,122.48-96.07,183.72-144.1,10.07-10.11,10.48-25.76,2.5-35-9.15-10.6-27.96-11.21-39,1.17Z"/>
      <path class="cls-4" d="m632.83,423.71c6.28,4.14,14.23-2.97,32.94-2.49,6.9.18,12.54,1.32,16.25,2.27-11.86,22.06-20.7,39.06-26.69,50.72-4.1,7.97-9.71,19.01-15.87,18.46-6.43-.58-7.86-13.28-12.94-13.45-6.22-.21-12.98,18.54-16.1,36.69-2.66,15.51-9.96,58.01,14.37,79.99,1.55,1.4,15.16,13.43,24.73,9.32,9.18-3.94,6.33-19.15,16.55-23.34,8.05-3.3,14.61,4.17,24.08-.37,0,0,5.47-2.62,8.66-8.38,6.36-11.45-5.6-34.25-28.89-56.16,16.14-35.37,32.44-62.24,45.09-81.07,12.35-18.38,24.43-33.91,18.94-43.42-2.33-4.04-7.36-6.15-33.03-7.19-41.94-1.7-63.05-2.31-70.42,8.89-6.29,9.56-4.42,25.06,2.33,29.51Z"/>
      <path class="cls-4" d="m407.08,300.34c-34.89-44.95-55.3-65.66-61.23-62.12-1.81,1.08-2.27,4.41-1.38,9.99-7.44-3.7-15.42-7.08-23.95-9.99-65.07-22.18-127.12-4.69-161.33,8.67,17.5,8.56,20.54,14.44,20.16,18.2-1.74,17.26-79.37,26.72-124.17,56.45-2.29,1.52-15.54,10.31-13.99,14.02s17,.18,17.28,1.53c.49,2.31-44.62,12.35-43.95,17.8.42,3.42,18.46,1.93,19.59,6.82,1.64,7.14-34.56,20.35-33.59,23.18,1.42,4.15,79.03-23.45,87.88-7.57,2.23,4.01-1.48,7.97.79,10.24,9.71,9.7,86.41-53.84,94.05-45.54,1.53,1.66-.57,5.27,1.14,6.32,4.99,3.09,26.35-25.67,30.91-22.78,2.2,1.39-1.89,8.61.56,10.64,4.37,3.63,20.07-17.1,42.57-24.16,16.54-5.19,16.88,3.25,55.9,6.1,35.76,2.61,59.88-2.7,71.74,12.08,2.16,2.69,4.09,6.27,7,6.15,6.73-.3,11.28-20.02,14.03-36.03Z"/>
      <path class="cls-4" d="m772.2,162.81c8.31-1.16,90.45-12.37,127.65-6.58,7.35,1.14,14.92,3.26,22.14,8.3,12.12,8.46,17.25,20.97,20.71,30.98,12.86,37.18,17.97,84.13,19.4,98.6-11.33,13.86-22.66,27.72-33.99,41.58-19.35-27.66-38.7-55.31-58.06-82.97-31.4,13.97-62.79,27.93-94.19,41.9-36.93-40.08-47.34-86.7-29.36-112.89,3.7-5.39,10.97-13.36,25.68-18.92Z"/>
      <path class="cls-4" d="m423.31,193.31c-11.87-14.44-23.74-28.88-35.61-43.32-11.61,8.43-24.95,19.6-38.27,34.14-19.15,20.9-31.75,41.65-39.95,57.93-2.4-14.49-5.45-29.83-9.31-45.89-4.88-20.25-10.41-38.95-16.17-55.99,3.63-15.47,11.57-40.28,30.05-65.68,9.79-13.46,23.21-24.57,50.03-46.8,7.6-6.3,14.75-11.87,24.9-12.68,12.7-1.01,22.53,6.04,30.74,11.85,60.31,42.62,63.93,39.48,77.49,57.06,13.21,17.12,20.65,26.77,21.2,41.42,1.18,31.71-30.85,63.61-64.88,69.38-12.35,2.09-23.02.42-30.21-1.41Z"/>
      <path class="cls-4" d="m436.45,249.38c-4.85,5.06-15.57,19.36-23.92,38.05-3.73,8.35-11.38,25.47-11.35,37.46.16,52.24,146.61,119.97,197.43,75.65,8.21-7.16,12.44-15.95,14.72-22.21,6.06-.64,12.73-1.71,19.84-3.45,16.26-3.99,29.44-10.15,39.29-15.84.53-3.87,1.16-10.95-.25-19.41-13.7-81.86-193.18-134.68-235.76-90.25Z"/>
      <path class="cls-3" d="m712.57,339.83c-7.7,10.77-28.93,26.91-36.18,23.36-.68-.33-3.55-1.74-3.92-4.16-.51-3.3,3.98-6.19,3.53-6.82-.54-.74-6.38,3.73-12.67,5.84-10.82,3.64-24.36.76-25.61-4.04-1.41-5.41,12.64-13.73,11.94-14.67-.59-.79-9.52,6.36-12.98,3.84-2.3-1.67-.84-6.63-1.93-6.91-1.53-.4-2.89,9.91-8.79,14.28-5.4,3.99-13.18,1.97-33.69-5.84-38.45-14.63-40.25-18.61-40.48-21.26-.87-9.82,18.16-19.13,16.76-21.32-1.28-2-16.4,6.94-19.13,3.6-2.44-2.98,7.33-12.89,5.36-15.25-3.46-4.16-38.35,21.1-41.26,17.56-2.12-2.58,14.16-18.76,12.31-20.78-1.57-1.71-12.2,11.02-27.2,11.95-16.54,1.02-34.55-12.56-33.85-22.63.71-10.23,20.79-17.82,20.52-18.23-.11-.17-3.22,1.62-5.03,2.6-3.35,1.81-12.58,6.82-19.91,7.06-10.81.36-23.59-9.42-23.9-18.66-.29-8.48,10-14.75,8.11-17.44-1.76-2.5-10.52,3.13-13.08.33-2.97-3.23,2.77-17.26,12.07-19.74,8.19-2.18,16.96,5.18,16.98,5.15.03-.05-38.75-20.62-37.22-24.37.84-2.07,13.22,2.76,15.73-1.21,3.17-5.02-12.8-18.71-10.58-21.64,2.86-3.78,30.92,16.72,35.92,11.69,6.15-6.2-26.88-46.96-23.36-49.92,3.1-2.62,31.09,27.2,34.63,24.23,2.97-2.48-13.38-26.16-10.95-27.95,2.03-1.49,14.64,14.07,17.23,12.34,3.68-2.46-18.22-36.37-12.28-41.43,5.55-4.72,31.27,19.18,35.83,14.8,4.03-3.87-13.29-25.15-8.28-30.3,2.99-3.07,12.13,1.43,14.16,2.42,18.14,8.92,25.8,28.77,28.82,38.91,12.58.43,33.86,2.45,57.53,12.09,93.13,37.93,144.04,161.65,114.86,202.48Z"/>
      <path class="cls-1" d="m725.35,285.97c12.86,25.26,9.69,34.72,7,39-3.34,5.31-8.89,7.29-9.5,7.5-2.67.91-10.87,2.96-26-7.5-11.29-7.81-17.54-16.42-36.67-48.17-15.16-25.16-18.35-31.56-21.33-40.67-2.08-6.36-10.7-32.73-3.33-37.33,5.53-3.45,17.51,6.97,36,23.33,36.33,32.14,48.5,53.35,53.83,63.83Z"/>
      <path class="cls-3" d="m732.19,168.56c13.7-11.97,38.15-10.65,40.01-5.75,2.17,5.71-25.26,19.06-22.88,24.82,2.46,5.94,33.91-2.9,35.27,1.29,1.34,4.12-28.49,14.88-27.11,21.1,1.64,7.4,45.87,1.02,47.38,7.88,1.45,6.6-37.88,20.04-36.85,23.09.88,2.62,30.49-5.32,31.18-3.09.81,2.6-39.15,14.53-37.93,22.8.97,6.6,27.73,7.56,27.58,11.2-.13,3.15-20.17,3.81-20.53,8.24-.28,3.43,11.57,5.3,11.65,9.48.09,4.29-12.26,10.57-21.11,9.29-30.19-4.37-58.57-102.47-26.67-130.33Z"/>
      <path class="cls-10" d="m623.32,251.07c4.86,5.35,12.8,14.15,22.45,25.15,41.27,47.04,52.75,64.68,70.18,63.66,6.23-.37,16.5-3.31,19.44-10.99,2.83-7.41-2.61-15.48-3.82-17.2-2.1-.46-4.19-.92-6.29-1.39-.17.92-.35,2.25-.3,3.84.21,6.42,3.86,8.98,2.87,11.08-1.27,2.69-9.1,2.25-15.58.25-8.86-2.74-14.49-8.15-15.86-9.5-14.73-14.52-22.33-32.16-36.01-53.37-13.1-20.31-22.16-29-19.99-42.5.3-1.88,1.32-8.21,5.12-9.5,6.99-2.38,18.51,14.08,24.05,22.14,24.92,36.19,19.75,53.71,40.25,69.2,3.36,2.54,16.98,12.83,31.35,9.2,5.82-1.47,15.42-6.14,17.12-14.01.64-2.97-.05-5.46-.39-6.63-4.45-15.32-11.11-35.86-12.97-42.29-2.23-7.68-6.68-23.02-5.29-37.8.3-3.18,1.52-13.23-3.29-23.78-.59-1.3-1.16-2.34-1.55-3.03-5.93-6.65-28.05-29.81-62.75-32.2-10.74-.74-39.26-2.71-56.22,17.75-15.7,18.94-11.98,46.04-5.57,61.75,3.79,9.29,9.08,15.96,13.05,20.18Z"/>
      <path class="cls-7" d="m623.32,251.07c-9.38-5.01-24.34-14.62-36.82-31.7-5-6.84-13.39-18.24-14.97-30.65-3.14-24.57,20.41-52.23,56.25-70.58.43-1.85,2.87-11.43,11.83-16.03,2.13-1.09,8.49-4.36,14.2-1.41,5.29,2.74,8.18,9.87,6.74,17.59,5.31,1.06,11.01,2.5,16.98,4.44,15.87,5.14,28.67,12.2,38.37,18.72,3.35-4.69,9.25-6.8,14.67-5.29,5.41,1.51,9.06,6.24,9.7,11.32.78,6.16-2.92,12.33-9.09,14.81,1.21,7.1,2.42,14.21,3.63,21.31-32.51-31.48-73.95-40.96-100.99-25.4-10.38,5.97-22.92,18.09-27.26,35.99-7.44,30.65,14.84,54.87,16.76,56.89Z"/>
      <path class="cls-8" d="m660.19,172.89c-3.88,1.78-2.76,15.33,2.84,25.26,3.78,6.71,11.06,14.32,14.5,12.74,3.78-1.74,2.76-14.53-2.19-24.05-3.91-7.52-11.62-15.57-15.14-13.95Z"/>
      <path class="cls-5" d="m668.42,187.97c-2.59,1.63-2.29,5.94-2.25,6.6.09,1.31.59,4.87,2.02,5.09,1.64.25,4.16-3.95,4.14-7.85,0-.61-.02-3.66-1.61-4.29-.97-.38-2.05.3-2.3.46Z"/>
      <path class="cls-4" d="m1042.87,342.56c4.89-7.55,19.88-32.33,10.75-48.4-12.2-21.45-61.21-16.45-91.5-.06-50.24,27.16-57.85,90.39-58.85,99.91,62.95,39.6,123.08,49.8,149.62,24.99,7.84-7.33,23.75-27.99,17.13-49.28-5.39-17.33-22.65-25.25-27.15-27.16Z"/>
      <path class="cls-3" d="m401.19,324.89c5.85,7.99,14.38,18.44,26.04,29.29,28.63,26.66,57.74,38.61,70.06,43.1,16.29,5.93,40.85,14.88,71.9,12.27,40.02-3.36,74.71-24.56,75.48-22.85.5,1.11-15.01,7.81-14.03,14.62.59,4.1,6.78,5.68,6.79,10.92,0,1.84-.76,1.78-2.06,5.9-1.37,4.33-2.53,8.01-1.27,11.21,1.68,4.25,6.5,4.73,6.3,6.68-.26,2.59-8.96,3.66-9.84,3.77-18.1,2.12-26.13-4.78-40.15-3.11-7.53.9-10.55,3.52-17.19,6.21-12.67,5.13-29.19,2.99-61.7-1.5-48.34-6.68-72.68-10.17-80.63-17.2-4.78-4.23-12.14-12.22-17.42-10.09-3.83,1.55-3.75,7.29-11.47,22.24-2.69,5.2-5.03,9.03-7.31,8.74-2.43-.31-2.43-4.97-6.6-7.14-3.65-1.9-6.25.3-7.8-.93-5.32-4.21,16.15-36.97,11.7-40.62-3.62-2.98-21.99,15.46-28.6,10.64-2.61-1.9-2.1-6.5-4.27-6.79-2.64-.35-3.74,6.38-8.87,8.63-4.6,2.02-11.01-.21-12.67-2.34-3.65-4.7,5.18-22.4,63.61-81.63Z"/>
      <path class="cls-9" d="m642.14,233.22c.85-.52,2.27-1.4,4.05-2.54,2.21-1.41,2.76-1.81,3.32-1.59,1.2.47,1.56,3.41.69,5.56-1.29,3.18-5.04,4-5.55,4.1-.84-1.85-1.67-3.69-2.51-5.54Z"/>
      <path class="cls-9" d="m651.52,249.91c1.15-.64,2.83-1.69,4.62-3.25,3.81-3.31,4.43-5.73,5.43-5.49,1.93.45,3.55,10.33-1.31,13.75-1.38.97-2.94,1.18-4.06,1.19l-4.69-6.19Z"/>
      <path class="cls-9" d="m672.58,282.72c.25-1.6,1.46-3.33,2.27-3.16,1.55.33,2.03,7.72.69,8.16-.89.29-3.39-2.19-2.96-5Z"/>
      <path class="cls-9" d="m676.7,289.65c.62-1.9,2.98-3.02,4.06-2.42,1.74.97,1.01,6.9-.66,7.33-1.28.32-4.26-2.27-3.4-4.91Z"/>
      <path class="cls-9" d="m680.54,296.62c.18-2.71,2.7-4.76,3.88-4.35,1.96.68,1.89,8.72-.01,9.33-1.22.39-4.06-1.95-3.86-4.98Z"/>
      <path class="cls-9" d="m707.17,298.8c-1.43.17-2.73,4.82-1.48,5.76.8.61,2.95-.1,3.55-1.52.25-.6.17-1.15.12-1.47-.22-1.39-1.33-2.87-2.19-2.77Z"/>
      <path class="cls-9" d="m701.95,320.49c1.78-5.08,2.89-6.17,3.59-6.09,1.72.21,2.99,7.84,1.1,8.82-1.04.54-2.95-.98-4.69-2.73Z"/>
      <path class="cls-9" d="m717.41,326.12c0-5.39-.68-6.78-1.37-6.93-1.7-.37-5.42,6.41-3.96,7.95.8.85,3.1.05,5.33-1.02Z"/>
      <path class="cls-9" d="m685.51,261.96c-.28,1.6-1.53,3.3-2.34,3.11-1.55-.36-1.87-7.76-.51-8.17.9-.27,3.34,2.27,2.85,5.06Z"/>
      <path class="cls-9" d="m681.54,254.95c-.66,1.89-3.05,2.95-4.11,2.33-1.72-1.01-.87-6.92.81-7.31,1.28-.3,4.21,2.36,3.3,4.98Z"/>
      <path class="cls-9" d="m677.85,247.9c-.24,2.7-2.8,4.7-3.97,4.26-1.94-.72-1.71-8.76.21-9.33,1.23-.37,4.02,2.03,3.76,5.07Z"/>
      <path class="cls-9" d="m716.9,313.03c-1.3-.62-1.03-5.44.46-5.93.96-.32,2.76,1.05,2.87,2.59.05.64-.21,1.14-.36,1.43-.65,1.25-2.19,2.29-2.97,1.92Z"/>
      <path class="cls-2" d="m737.74,287.68c1.13,0,2.26,0,3.39,0,2.22-.2,4.13-.04,4.81,2.7.36,1.44,1.02,2.76-.18,4.04-1.38,1.47-2.67,2.65-5.15,2.34-2.93-.37-4.06-2.61-5.72-4.28-.93-.93-.82-2.18.62-2.99.82-.46,1.49-1.19,2.23-1.8Z"/>
      <path class="cls-6" d="m198.14,177.48c-.75-1.74-10.3-24.81,2.85-43.39,8.6-12.15,21.83-15.21,27.09-16.43,25.45-5.89,46.35,9.55,47.43,10.38,19.66,15.01,22.84,39.59,26.86,70.71,2.87,22.22,2.03,40.63.91,52.47-15.99,7.58-40.44,15.76-69.58,12.86-23.64-2.35-70.11-13.97-75.4-41.76-2.08-10.95,2.24-24.3,11.27-33.28,11.03-10.97,25.15-11.52,28.56-11.56Z"/>
      <path class="cls-4" d="m206.62,189.63c-.75-1.74-10.3-24.81,2.85-43.39,8.6-12.15,21.83-15.21,27.09-16.43,25.45-5.89,46.35,9.55,47.43,10.38,19.66,15.01,22.84,39.59,26.86,70.71,2.87,22.22,2.03,40.63.91,52.47-15.99,7.58-40.44,15.76-69.58,12.86-23.64-2.35-70.11-13.97-75.4-41.76-2.08-10.95,2.24-24.3,11.27-33.28,11.03-10.97,25.15-11.52,28.56-11.56Z"/>
    </g>
  </g>
</svg>