<?xml version="1.0" encoding="UTF-8"?>
<svg id="Capa_2" data-name="Capa 2" xmlns="http://www.w3.org/2000/svg" viewBox="0 0 536.63 770.36">
  <defs>
    <style>
      .cls-1 {
        fill: #2a3152;
      }

      .cls-1, .cls-2, .cls-3 {
        stroke-width: 0px;
      }

      .cls-4 {
        fill: #71bf96;
      }

      .cls-4, .cls-5, .cls-6, .cls-7, .cls-8, .cls-9 {
        stroke-miterlimit: 10;
      }

      .cls-4, .cls-5, .cls-6, .cls-7, .cls-9 {
        stroke: #1d1d1b;
      }

      .cls-5 {
        fill: #e94064;
      }

      .cls-6 {
        fill: #fbd2c1;
      }

      .cls-7 {
        fill: none;
      }

      .cls-8 {
        fill: #264f9e;
        stroke: #5b96d1;
        stroke-width: 2px;
      }

      .cls-3 {
        fill: #102e46;
      }

      .cls-9 {
        fill: #fbbb22;
      }
    </style>
  </defs>
  <g id="Capa_27" data-name="Capa 27">
    <g>
      <path class="cls-9" d="m384.06,219.82c3,3.6,48.58,57.18,89.23,48.42,3.33-.72,12.06-2.6,20.17-9.44,2.96-2.5,14.48-12.94,17.59-47.99,3.12-35.11-4.98-63.66-9.92-80.5-5.48-18.69-8.22-28.04-14.08-40.83,0,0-13.23-28.87-14.42-49.58-.16-2.76.65-6.08.92-7.17.9-3.69,1.74-4.24,2.25-4.42,1.39-.49,3.25.67,4.25,2,1.5,1.99.88,4.14.67,8.33-.34,6.57.68,10.65.5,10.67-.2.02-.87-5.29-.92-10.92-.06-6.58.78-7.69,1.58-8.17,1.47-.87,3.95-.27,5.17,1.17,1.46,1.73.26,3.69.42,8.08.19,5.47,2.3,9.29,2.17,9.33-.11.03-1.53-2.46-1.92-5.92-.4-3.61.76-4.49,0-8.06-.31-1.47-.7-2.22-.25-2.81.83-1.09,3.71-.58,5.42.37,3.99,2.22,4.37,8.41,4.75,11.92.93,8.63,5.36,16.53,7.25,25,4.13,18.48,7.52,24.74,16.25,58.5,9.13,35.32,13.7,52.97,14.5,69.75.94,19.69,1.52,36.6-8.25,54.75-2.66,4.95-11.21,20.32-29.75,30.25-16.6,8.89-32.06,8.52-39.5,8.25-38.98-1.42-65.05-29.65-71.25-36.75-.94-11.42-1.89-22.83-2.83-34.25Z"/>
      <path class="cls-9" d="m321.14,617.57c3.77,70.07.93,93.99-2.75,102-.91,1.98-5.5,10.9-1.75,17,1.41,2.29,3.47,3.34,4.75,4,22.31,11.47,23.94,15.16,34,16,4.55.38,13.07,1.1,15.5-3.25,2.28-4.09-1.73-11.04-5.5-14.75-3.36-3.3-11.19-8.63-19.75-10.25-1.02-.19-2.64-.44-3.75-1.75-2.78-3.27.26-10,1-11.75,2.08-4.89,3.55-21.18,6.5-53.75,1.13-12.47.91-30.34-5.5-53-7.58,3.17-15.17,6.33-22.75,9.5Z"/>
      <ellipse class="cls-2" cx="205.89" cy="504.76" rx="157.5" ry="92.06"/>
      <path class="cls-5" d="m301.63,195.73c11.51-5.83,32.2-3.26,56.75-21.93,2.32-1.76,4.13-3.3,5.25-4.29,3.61,5.73,8.61,14.44,13.09,25.64,12.86,32.08,11.72,60.02,10.67,88.67-2.15,58.44-3.31,87.67-3,92,3.92,54.27,24.73,148.38,28,185,.35,3.97,1,12.87-3.5,22-2.62,5.32-6.73,10.18-18.5,18-21.65,14.4-32.12,14.16-69.5,24.5-1.82.5-6.22,1.73-9.33-.5-2.64-1.89-3.14-5.39-3.33-6.83-13.59-103.96-12.33-147.67-12.33-147.67,0-.04-1.72-30.64-5.17-91.83-7.04-125-11.31-171.5,10.91-182.76Z"/>
      <path class="cls-9" d="m158.89,622.32c1.96,24.01,2.15,51.85-1.5,82.5-1.32,11.07-3.03,21.58-5,31.5-.38,1.72-.78,4.79.33,8.17,1.16,3.5,3.38,5.62,4.5,6.67,6.9,6.44,38.55,26.38,49.29,15.54.5-.51,3.14-3.16,2.75-6.25-.76-6.08-13.05-12.2-26.19-18.74-.31-.15-1.17-.58-1.81-1.51-1.19-1.74-.7-3.95-.63-4.37.56-3.19,3-49.64,6.26-114.84-9.33.44-18.67.89-28,1.33Z"/>
      <path class="cls-5" d="m301.85,194.72c-.38,2.69-2.32,4.59-3.29,5.43,20.8-2.76,36.92,1.31,40.72,10.59,1.19,2.9.84,5.5.71,6.43-1.63,11.19-18.6,20.16-41.26,23.81-1,64.17-2,128.33-3,192.5,16.14-7.3,31.18-5.11,36.67,3,3.87,5.71,2.04,12.92,1.51,14.72-3.54,12.14-18.78,20.7-38.18,21.31.47,23.02,1.16,41.42,1.67,53.3,1.34,31.52-4.86,62.96-5,94.5,0,1.08.01,4.39-2.17,7-.93,1.11-2.91,2.87-7.33,3.5-55.76,7.89-125.83-3.67-125.83-3.67-96.01-15.83-56.09-17.31-69-19-1.09-.14-4.74-.57-7.33-3.33-4.7-5-2.51-13.99-2-16.33,9.65-44.34-1.09-90.78.68-136.13,2.34-59.97-7.06-47.64-4.51-103.04,2.59-56.3,14.17-109.89,40.5-159.5,11.33-21.36,17.23-32.19,28.5-39.5,54.04-35.06,161.06,22.17,157.96,44.4Z"/>
      <path class="cls-4" d="m162.72,46.48c-.23-.07-7.96,17.14-8.67,37.33-.44,12.62,2,22.23,3.33,27.33,1.76,6.71,12.66,45.53,50,67.33,17.16,10.02,32.43,12.08,46.67,14,23.61,3.19,69.38,9.37,106-20,5.35-4.29,39.25-31.47,38-72.67-1.12-37.08-29.99-61.15-40.64-70.03,0,0-55.75-46.48-178.96-22.32-14.87,2.92-21.43,9.06-38.4,13.35-1.68.42-5.55,1.36-8,4.67-1.22,1.64-3.31,5.53-1,15,3.69,15.1,15.33,30.96,21.67,29,2.23-.69,3.59-4.18,6.33-11.17,2.35-6,3.8-11.8,3.67-11.83Z"/>
      <ellipse class="cls-6" cx="293.89" cy="108.48" rx="78.17" ry="59"/>
      <path class="cls-8" d="m221.93,88.48c16.53-7.43,48.47-18.96,88.96-15.67,21.9,1.78,39.88,7.38,52.83,12.67,8.36,12.15,8.99,26.63,2.17,34.83-8.84,10.63-27.1,6.97-35.83,3.5-13.8-5.48-13.83-14.46-24.67-16.5-12.71-2.39-19.64,8.55-34.5,13.5-10.94,3.65-27.91,4.6-53.5-8.83-.28-2.67-.38-6.07.17-9.96.82-5.9,2.78-10.52,4.38-13.54Z"/>
      <path class="cls-7" d="m290.39,122.82c2.17,5.8,7.13,10.04,13,11,7.16,1.17,14.55-2.71,18-9.67"/>
      <circle class="cls-3" cx="262.72" cy="101.15" r="4.67"/>
      <path class="cls-3" d="m351.72,103.82c0,2.58-2.09,4.67-4.67,4.67s-4.67-2.09-4.67-4.67,2.09-4.67,4.67-4.67,4.67,2.09,4.67,4.67Z"/>
      <path class="cls-5" d="m81.39,435.82c-6.22,51.78-12.44,103.56-18.67,155.33-16.1-4.68-43.7-15.5-56-40.67-12.56-25.69-2.94-53.55,1.33-66.67,45.06-138.5,4.51-205.17,75.33-302,2.15-2.94,53.42-72.17,76.78-61.8,7.55,3.35,10.22,14.14,11.28,23.14-5.91,5.22-11.81,10.44-17.72,15.66,12.29,3.35,21.04,12.62,22.33,23.33.17,1.4,1.17,10.81-4.7,16.97-7.8,8.19-25.3,8.11-40.64-3.64-15.19,38.4-29.64,85.17-38.33,139.33-3.53,21.98-5.74,42.89-7,62.5,22.81-1.33,38.42,11.49,38.75,23,.23,8.08-7.05,16.02-14.75,19.5-9.06,4.1-19.92,2.56-28-4Z"/>
      <path class="cls-9" d="m119,227.46c9.8,54.24,27.49,93.41,46.39,94.03,5.31.17,10.4-2.71,12.67-4,9.94-5.65,13.11-14.29,26.33-48.67,0,0,8.88-23.09,23.33-37,1.22-1.17,4.31-4.14,6.54-3.25.99.4,1.76,1.53,1.82,2.64.08,1.61-1.4,2.34-4.32,5.61-2.13,2.38-3.36,4.26-3.38,4.25-.01-.01,1.83-2.34,3.38-4.25,3.99-4.93,4.78-5.57,5.75-5.5,1.42.11,2.78,1.71,3,3.25.24,1.7-.98,2.83-3.48,6.12-3.14,4.13-4.38,6.51-4.39,6.51-.03-.02,6.9-12.02,9.62-11,.97.36,1.08,2.24,1.12,2.88.43,6.76-6.38,12.61-7.62,13.75-17.2,15.63-18.04,78.11-51.45,92.07-2.19.91-8.26,3.18-15.92,2.68-25.88-1.7-48.99-33.63-60.5-80,3.7-13.37,7.4-26.74,11.11-40.11Z"/>
      <circle class="cls-1" cx="101.14" cy="419.45" r="6.75"/>
      <circle class="cls-1" cx="154.06" cy="180.82" r="6.75"/>
      <circle class="cls-1" cx="312.06" cy="450.15" r="6.75"/>
      <circle class="cls-1" cx="312.06" cy="220.71" r="6.75"/>
    </g>
  </g>
</svg>